<svg width="55" height="42" viewBox="0 0 55 42" fill="none" xmlns="http://www.w3.org/2000/svg">
<path fill-rule="evenodd" clip-rule="evenodd" d="M6.39192 40.9352C8.3874 41.2294 10.3193 40.7524 11.9809 39.226C12.1319 39.226 12.1081 39.8461 12.6089 39.4645C17.5301 35.5212 22.0537 31.4269 26.3547 27.2451C28.1117 28.5251 31.3474 26.8953 32.8102 25.1463C38.0652 24.4626 42.891 21.0202 47.9234 20.3603C49.1716 20.2013 50.062 20.4557 51.1671 20.082C51.5089 19.9628 51.8508 19.7004 52.2483 19.5971C52.6299 19.5017 53.1228 19.6368 53.4726 19.4381C53.9258 19.1837 54.3233 18.2138 54.4584 17.5698C54.6174 16.8066 54.689 13.7696 54.4425 13.1654C54.204 12.5851 53.3931 12.2512 53.0195 11.7264C52.2642 10.6611 51.7395 9.30165 50.8968 8.13298C48.6469 5.00858 45.7928 1.66953 43.2567 0C39.7427 0.524709 37.6836 2.24194 35.6484 4.16587C32.6671 6.98022 30.3536 10.5419 27.9288 13.3085C27.579 12.9985 27.3564 13.4039 27.1736 13.6424C26.1957 12.6487 24.9316 12.7441 23.3972 13.8968C23.1587 14.0797 23.0713 14.4851 22.8328 14.668C22.483 14.9383 22.165 14.8508 21.9662 15.0496C21.5846 15.4471 21.68 16.0752 21.3302 16.2421C18.9531 16.4409 16.6635 16.6635 14.3182 16.5124C11.5277 16.3375 8.49869 16.8145 6.1057 16.4091C2.93359 17.9991 1.15277 20.1297 0 22.4989C1.71723 28.2468 2.1545 34.2651 3.14031 40.0289C4.19768 39.854 5.23914 40.7444 6.38396 40.9193L6.39192 40.9352Z" fill="#003434"/>
<path fill-rule="evenodd" clip-rule="evenodd" d="M43.2407 1.43901C46.4764 3.99895 48.6389 9.34939 51.0557 14.032C49.9109 15.2086 48.4083 16.6238 46.1982 17.1008C45.8802 16.6874 46.5957 16.1706 45.8086 15.0655C45.3396 14.4057 43.9483 14.1115 43.3441 14.4772C42.4854 15.0019 42.7637 16.8464 43.7336 17.6732C41.285 18.7544 38.2957 19.2235 35.9186 19.3427C36.2923 18.9532 36.7932 18.6034 37.0794 18.174C37.0953 17.061 36.1253 15.8764 35.227 15.7572C32.9055 15.9798 33.3905 18.4841 34.7023 19.2314C33.8755 19.7402 32.6035 19.3984 31.4904 19.8833C31.2519 19.0168 31.0373 18.1581 30.5523 17.1882C32.1026 15.5584 33.0328 13.2529 35.9584 12.442C35.5052 11.2733 33.7165 12.2591 32.8101 12.9349C31.7687 13.722 30.7193 15.2484 29.8209 15.8208C29.7016 15.3517 29.4393 15.2484 29.2803 14.8986C31.9118 12.0922 34.8056 8.68158 37.5484 5.50948C38.9556 3.8797 40.4264 1.74112 43.2487 1.41516L43.2407 1.43901ZM40.8636 4.83372C40.967 5.47768 41.3645 6.37604 41.7779 6.8928C42.3741 7.20286 43.1771 6.98026 44.0119 6.6702C44.4333 5.88314 43.988 4.29311 43.1453 3.55375C42.3105 3.27549 41.1101 4.11821 40.8636 4.83372ZM41.603 12.0206C43.6462 10.5022 40.641 6.56684 38.9476 9.83435C38.6137 10.4783 38.6773 11.4244 39.4167 12.3466C40.2117 12.5692 40.8398 12.5851 41.603 12.0206ZM47.0727 12.9508C49.4339 11.7583 47.4384 8.37152 45.1328 10.057C44.5525 11.0428 45.435 12.2671 45.4111 13.3006C45.8563 12.9588 46.5718 13.2052 47.0727 12.9508Z" fill="white"/>
<path fill-rule="evenodd" clip-rule="evenodd" d="M8.05398 19.0644C11.7905 18.5159 15.217 18.7782 18.7787 18.6908C17.4272 19.454 14.7718 19.6051 14.43 21.1474C14.5492 21.7119 15.225 22.3876 15.6861 22.7931C16.4414 22.4989 17.5385 22.7533 17.3238 21.8072C16.8389 21.4415 15.9644 22.0855 15.7736 20.9407C17.6975 20.7658 19.4942 20.9089 21.5215 20.4557C21.7918 21.0679 22.0701 21.68 22.3404 22.2922C20.8219 23.2621 19.3114 24.24 19.057 25.7028C20.5039 24.9714 21.3068 23.9935 22.9287 23.3257C23.0797 23.8743 23.3818 24.0174 23.5647 24.4705C19.0252 26.8874 17.459 30.4411 13.3726 33.0328C13.1262 32.6592 12.8082 32.4843 12.4424 32.4127C11.5759 32.7466 11.719 33.0805 10.924 33.0885C10.6696 33.4701 10.5185 33.8914 10.757 34.4559C8.58663 36.0539 5.16808 35.561 4.30151 34.2174C4.01531 33.7802 3.93581 32.5161 3.78476 31.5939C3.38725 29.2804 2.87843 26.1798 2.05957 23.9379C2.97384 22.3717 5.00113 20.2411 6.2175 18.7146C6.4878 18.3728 7.35435 18.5318 7.81546 18.5238C8.34017 18.3171 7.71212 18.7941 8.05398 19.0644ZM2.87843 23.445C2.67968 23.9776 2.68764 24.7647 3.21235 25.3689C4.79443 27.1736 7.82342 23.3098 4.66721 22.5148C3.7609 22.7533 3.47469 23.3337 2.87843 23.445ZM13.0705 19.5494C11.3215 19.1678 10.5424 21.3382 11.711 22.6182C12.6015 22.8408 13.2772 22.0457 14.0325 21.7118C14.3425 20.9407 13.7542 19.9708 13.0705 19.5494ZM9.54861 23.5801C8.02218 23.2383 6.31289 25.6949 7.91882 26.9033C10.4311 27.746 11.6792 24.0571 9.54861 23.5801ZM14.6049 26.7761C15.5668 27.8573 17.3795 25.997 17.6975 25.2735C16.8309 21.9344 12.6968 24.6375 14.6049 26.7761ZM12.2755 31.4428C13.15 31.2123 13.0467 30.0992 12.5378 29.1214C10.4152 28.0879 10.6855 31.8642 12.2755 31.4428Z" fill="white"/>
<path fill-rule="evenodd" clip-rule="evenodd" d="M42.1037 4.40442C42.3343 4.70652 41.897 4.74628 42.1276 5.04043C41.6903 5.13583 41.738 4.51572 42.1037 4.40442Z" fill="white"/>
<path fill-rule="evenodd" clip-rule="evenodd" d="M25.3849 15.4869C25.7665 15.2802 26.1004 15.1928 26.4105 15.1609C27.1976 17.9196 27.9767 20.6624 28.6445 23.3734C27.3486 21.4416 25.1941 18.8498 24.9238 16.4727C25.2657 16.1309 25.2657 16.6794 25.5598 16.4489C25.7586 16.2263 25.5598 15.8526 25.3929 15.4869H25.3849Z" fill="white"/>
<path fill-rule="evenodd" clip-rule="evenodd" d="M19.8828 18.8419C19.9941 18.5715 20.8289 18.3887 20.9402 18.8895C20.5586 18.9452 20.3042 18.6828 19.8828 18.8419Z" fill="white"/>
<path fill-rule="evenodd" clip-rule="evenodd" d="M39.838 10.0808C40.156 10.208 40.0606 10.9394 40.4184 11.3767C39.7506 11.6072 39.6631 10.3511 39.838 10.0808Z" fill="white"/>
<path fill-rule="evenodd" clip-rule="evenodd" d="M9.19824 24.2559C9.56395 24.1843 10.2477 25.4722 9.51624 25.5438C9.34929 25.0906 9.3652 24.709 9.19824 24.2559Z" fill="white"/>
<path fill-rule="evenodd" clip-rule="evenodd" d="M45.8008 10.6691C46.0393 10.526 46.2221 10.5022 46.3891 10.534C46.4606 10.7725 46.0313 10.8122 46.1029 11.0507C45.9439 11.0825 45.8882 10.8202 45.8008 10.6691Z" fill="white"/>
<path fill-rule="evenodd" clip-rule="evenodd" d="M15.2242 24.6852C15.3594 24.7408 15.6933 25.6392 15.6456 25.9254C15.0334 25.997 15.256 24.9793 15.2242 24.6852Z" fill="white"/>
<path fill-rule="evenodd" clip-rule="evenodd" d="M34.6621 16.7987C34.9721 16.9498 34.9244 17.7368 35.2901 18.2059C34.837 18.2377 34.4713 17.077 34.6621 16.7987Z" fill="white"/>
<path fill-rule="evenodd" clip-rule="evenodd" d="M24.0566 22.6897C24.4303 22.96 24.7165 23.4609 25.0106 23.9538C24.6211 23.7232 24.3349 23.2224 24.0566 22.6897Z" fill="white"/>
<path fill-rule="evenodd" clip-rule="evenodd" d="M51.7 15.1689C52.3678 16.1229 52.4712 16.8225 52.1214 17.5698C48.512 18.2694 45.3558 19.6607 41.9293 20.2967C38.6857 20.9009 35.1797 20.7499 31.9519 21.7595C31.777 21.3064 31.5623 20.8294 31.7929 20.5352C34.2495 19.9867 37.3898 20.4637 40.5698 19.8674C43.7738 19.2632 49.9033 17.9514 51.7 15.1689Z" fill="white"/>
<path fill-rule="evenodd" clip-rule="evenodd" d="M43.7334 15.3438C44.441 15.1133 43.9957 15.8765 44.1229 16.2104C43.7811 16.1865 43.8049 15.5585 43.7334 15.3438Z" fill="white"/>
<path fill-rule="evenodd" clip-rule="evenodd" d="M25.0743 26.1242C21.3457 28.541 17.6966 32.2458 14.3337 35.1874C12.3064 36.9602 11.1537 38.8444 8.57781 38.272C7.32169 37.9937 4.93665 36.841 4.30859 35.3782C5.73962 35.887 6.45513 36.9523 8.0054 36.9761C9.11047 36.992 10.0009 36.0539 11.3444 35.7439C11.9089 35.6167 12.5847 35.9347 13.1968 35.8234C13.7692 35.4497 13.7374 34.8376 13.9521 34.3208C18.3008 31.6257 20.0101 27.913 23.8023 25.0032C24.2634 25.194 25.0028 25.6869 25.0823 26.1242H25.0743Z" fill="white"/>
</svg>
