<svg width="63" height="78" viewBox="0 0 63 78" fill="none" xmlns="http://www.w3.org/2000/svg">
<path d="M47.695 61.0887C47.6583 60.3521 47.6125 59.8931 47.6125 59.4342C47.6125 46.7614 47.5758 34.0847 47.6537 21.4119C47.6629 19.7998 47.1815 18.8009 45.2924 18.3266C44.2424 18.0605 43.252 17.6285 41.9957 17.1889C41.9131 17.9139 41.8077 18.3998 41.8031 18.8896C41.7893 23.0124 41.7664 27.1389 41.8168 31.2616C41.8306 32.2914 41.4271 32.9007 40.3175 33.3982C37.8874 34.4858 35.5168 35.6813 33.1601 36.8807C32.0275 37.4592 31.0509 37.5171 29.9138 36.846C28.85 36.2174 27.6441 35.7585 26.1723 35.072V66.3414C24.3749 65.4582 22.8893 64.8335 21.578 64.0159C21.202 63.7806 21.2249 62.99 21.2203 62.4539C21.202 50.8957 21.2066 39.3413 21.2066 27.783C21.2066 24.8172 21.2066 21.8554 21.2066 18.8896C21.2066 18.4307 21.1562 17.9718 21.1103 17.2197C19.3542 17.8638 17.7769 18.3381 16.3555 19.0285C15.9199 19.2406 15.7182 20.0543 15.7136 20.5943C15.6631 24.8905 15.6815 29.1868 15.6815 33.4831C15.6815 42.0756 15.6815 50.6681 15.6723 59.2607C15.6723 59.8006 15.5944 60.3366 15.5302 61.1967C13.8749 60.3829 12.4352 59.7659 11.1422 58.9791C10.7937 58.767 10.7891 58.042 10.7891 57.556C10.7662 49.434 10.7754 41.3158 10.7708 33.1938C10.7708 32.6963 10.7708 32.2027 10.7708 31.3156C8.74414 32.1949 7.04305 32.8467 5.47493 33.6759C5.08977 33.8803 5.01183 34.6709 5.00724 35.1915C4.97973 41.5087 4.9889 47.8219 4.9889 54.1391C4.9889 54.6404 4.9889 55.1418 4.9889 55.6432C4.85593 55.7241 4.72296 55.809 4.58999 55.89C3.16401 55.0492 1.69676 54.2471 0.334972 53.333C0.0415219 53.1364 0.046107 52.5347 0.046107 52.1221C0.0277664 46.1945 0.046107 40.263 0.0185961 34.3354C0.0140109 33.4445 0.389993 32.9161 1.35288 32.5305C4.73672 31.1691 7.56576 29.2099 9.64283 26.5874C10.2527 25.82 10.5644 24.8172 10.7249 23.8878C10.9083 22.8349 10.8625 21.7358 10.7479 20.6714C10.5965 19.3177 11.3898 18.6467 12.6369 17.8908C15.1358 16.3713 17.4743 14.6474 19.7714 12.9042C20.8994 12.048 21.3625 10.8679 21.2387 9.51806C21.1241 8.28009 21.257 7.02669 21.1974 5.781C21.1607 4.95954 21.4771 4.43504 22.3712 4.02239C25.0535 2.78056 27.6625 1.42303 30.3723 0.219766C30.9684 -0.04634 32 -0.0849061 32.5823 0.173487C35.338 1.38832 38.0433 2.69186 40.6797 4.08024C41.2391 4.3772 41.6747 5.1408 41.7527 5.72701C41.9131 6.95727 41.8673 8.21838 41.7847 9.46021C41.693 10.8447 42.2754 11.9863 43.3299 12.9852C45.4391 14.9829 47.6492 16.8996 50.5837 18.0527C52.0188 18.6158 52.6791 19.4758 52.5094 20.8102C52.4406 21.3617 52.5965 21.9402 52.4819 22.484C51.9088 25.253 53.3714 27.351 55.7099 29.0402C57.5944 30.4016 59.6623 31.601 61.7485 32.7349C62.5876 33.1899 63.0002 33.6219 63.0002 34.4511C62.9819 40.3363 62.9773 46.2214 63.0002 52.1105C63.0002 52.9821 62.6426 53.5722 61.7623 54.0157C60.7673 54.5132 59.8136 55.0801 58.5618 55.7704C58.4655 54.9837 58.3509 54.463 58.3509 53.9424C58.3372 47.7564 58.3142 41.5704 58.3692 35.3805C58.3784 34.2428 58.0345 33.5409 56.6773 33.136C55.3568 32.7426 54.128 32.1332 52.6057 31.5162C52.5599 32.3106 52.5048 32.8506 52.5048 33.3905C52.5003 41.2966 52.459 49.2026 52.5369 57.1048C52.5507 58.4199 52.0647 59.1874 50.6708 59.7003C49.7492 60.0358 48.9009 60.5218 47.6996 61.0925L47.695 61.0887ZM36.9061 18.7084H36.9016C36.9016 15.2721 36.8741 11.832 36.9199 8.39579C36.9337 7.4702 36.5577 6.89942 35.5994 6.42506C31.6561 4.46975 31.6699 4.44661 27.7404 6.37878C27.6533 6.4212 27.5662 6.47519 27.4745 6.50219C26.4153 6.84157 26.1081 7.47791 26.1173 8.41893C26.1586 15.1641 26.1631 21.9132 26.1127 28.6584C26.1035 29.7113 26.5666 30.2936 27.5983 30.8143C31.6057 32.839 31.5736 32.839 35.5489 30.8413C36.5485 30.3399 36.952 29.746 36.9382 28.7664C36.8786 25.415 36.9153 22.0636 36.9153 18.7122L36.9061 18.7084Z" fill="#003434"/>
<path d="M0.0278084 58.1693C2.79266 59.4883 5.14025 60.5951 7.4741 61.729C15.2138 65.4853 22.9398 69.2686 30.7117 72.9787C31.2114 73.2178 32.2018 73.0983 32.7566 72.836C40.3955 69.1877 47.9931 65.4853 55.609 61.8022C57.897 60.6954 60.1988 59.6194 62.8857 58.3467C62.8857 60.0513 62.9774 61.4397 62.8215 62.805C62.7802 63.1636 62.0053 63.5223 61.4918 63.773C53.587 67.6334 45.6684 71.4746 37.7544 75.3197C36.0304 76.1566 34.3477 77.0706 32.5686 77.8149C31.9955 78.054 31.0143 78.0733 30.4732 77.8149C20.7527 73.1638 11.0826 68.4395 1.37126 63.773C0.330429 63.2716 -0.0684798 62.697 0.00946782 61.7212C0.0965857 60.6645 0.0278084 59.6001 0.0278084 58.1693Z" fill="#003434"/>
</svg>
