<svg width="95" height="109" viewBox="0 0 95 109" fill="none" xmlns="http://www.w3.org/2000/svg">
<g opacity="0.32">
<path fill-rule="evenodd" clip-rule="evenodd" d="M53.7699 14.5404C53.9005 14.8762 53.6021 15.044 53.8632 15.4171C56.8848 20.6023 60.1675 25.228 61.7903 30.2081C64.5321 38.6388 61.0628 46.0063 59.9251 53.1127C67.9641 44.0851 65.4461 25.9927 54.6466 14.4472C54.3109 14.5777 54.143 14.2793 53.7699 14.5404Z" fill="#F4D8BA"/>
<path fill-rule="evenodd" clip-rule="evenodd" d="M16.6896 40.8771C18.5921 38.0047 17.7155 34.1064 18.9465 30.9729C16.5404 33.6401 16.4845 37.2213 16.6896 40.8771Z" fill="#F4D8BA"/>
<path fill-rule="evenodd" clip-rule="evenodd" d="M35.1552 11.351C30.343 13.2721 24.7848 16.0139 25.2324 19.2221C27.4147 16.8906 30.343 14.8202 34.4464 13.1975C39.0348 12.2462 43.4181 14.7269 47.1485 14.186C43.7725 11.5561 39.4079 11.6121 35.1366 11.351H35.1552Z" fill="#F4D8BA"/>
<path fill-rule="evenodd" clip-rule="evenodd" d="M55.7468 5.38234C44.9287 1.42813 34.5582 -3.68248 19.0584 4.87876C18.9092 4.95337 18.7787 5.04662 18.9279 5.2518C18.76 5.3264 18.5921 5.401 18.4243 5.47561C12.6608 8.79566 9.54597 13.1043 5.98344 17.245C4.08094 21.4417 2.25302 25.6757 1.11525 30.1708C0.481087 35.0576 0.201349 40.0936 1.04069 45.5214C4.82703 61.5807 15.4213 72.7159 25.568 77.2856C35.4722 80.4938 46.2903 81.2399 54.6091 88.626C57.5188 93.0092 60.8015 96.4412 64.047 99.9664C67.6282 102.783 70.4632 107.595 74.8464 108.248C78.7633 108.155 84.8066 103.678 87.623 100.619C91.4094 97.2619 94.5242 93.6621 94.5616 88.8872C91.2042 80.5124 83.9672 75.9427 79.5281 70.5896C76.0402 60.4243 78.9126 52.6464 77.924 43.4324C78.9312 35.0576 72.6642 22.6541 66.8821 15.0441C63.3009 11.5002 59.7011 7.99362 55.7655 5.38234H55.7468ZM58.3395 85.3992C58.6379 82.788 62.7786 77.5841 64.8303 82.1538C62.2937 83.0864 60.8762 84.4667 58.3395 85.3992ZM48.4539 62.9236C44.4064 58.9135 40.1351 55.5002 35.7333 52.4599C38.9787 47.1441 42.5599 41.9588 46.8125 37.0161C52.7439 48.8041 58.7684 62.9609 65.9308 73.0703C64.8303 74.1335 63.7485 75.1966 61.6968 75.9054C58.0224 71.8766 54.0868 68.4633 50.3937 64.4904C51.8859 63.9308 52.7812 63.1475 53.3594 62.2335C52.3149 60.8906 50.114 62.6439 48.4726 62.9236H48.4539ZM40.0978 36.3819C41.1983 36.0648 42.0563 36.3819 42.6718 37.3518C42.0749 37.7622 41.6646 38.2285 41.4967 38.8067C40.7506 38.7134 40.6014 37.0907 40.0978 36.3819ZM44.2759 34.7965C43.8469 33.8639 43.9961 33.1551 44.1267 32.409C44.8168 32.2785 45.1339 33.1178 45.5815 33.5841C45.1152 33.9758 45.1339 34.5354 44.2945 34.7778L44.2759 34.7965ZM67.9452 76.1479C68.5794 76.5023 68.8778 77.7519 69.4933 78.1996C68.4115 78.983 67.7214 79.9156 66.6582 80.7176C65.8935 79.9342 65.1101 79.2068 64.3827 78.3861C66.136 77.8452 66.4903 76.8007 67.9638 76.1479H67.9452ZM67.6468 93.7367C67.0126 93.1771 66.3225 92.7854 65.8562 91.7969C72.1792 87.2831 76.3945 81.9859 78.5768 75.924C79.2296 75.8867 79.3788 77.1364 80.0317 77.0991C77.551 83.2729 73.1305 88.7006 67.6655 93.7367H67.6468ZM70.37 74.7303C71.4891 74.0029 72.2538 74.2267 73.2797 73.7231C72.9066 74.5625 72.459 75.3831 71.5637 76.036C71.172 75.5697 70.6124 75.607 70.37 74.749V74.7303ZM70.314 96.1987C75.4246 91.0881 79.7146 85.679 81.6917 79.3933C82.3445 79.356 82.4937 80.6057 83.1466 80.5684C81.1881 87.1339 76.8236 92.8041 72.6082 98.5302C71.8621 97.7282 71.0042 97.1686 70.3327 96.1987H70.314ZM89.8239 91.9461C88.052 94.0351 86.7277 96.2547 84.7133 98.2504C85.161 95.6765 87.4924 92.002 88.0706 88.7566C88.9286 89.0923 89.1898 90.9948 89.8239 91.9461ZM85.7578 83.6833C86.6531 87.9173 83.1466 92.2445 82.0274 96.4039C79.8265 98.325 78.9872 100.731 76.1894 102.428C75.6485 101.813 75.1822 101.03 74.5107 100.731C78.2411 95.0423 83.1652 89.7824 85.0304 83.4035C85.3102 83.4035 85.59 83.4035 85.7765 83.6833H85.7578ZM73.1118 48.3565C73.2424 55.295 71.6383 61.562 74.4361 69.5078C72.5522 69.8808 70.5192 70.571 68.3556 71.6528C61.3611 61.2823 55.4671 47.9834 49.5171 34.8524C49.1814 33.4535 51.8486 33.2111 50.7667 31.5324C50.3378 30.2454 49.2746 30.6557 48.1555 31.178C46.7939 30.0962 45.5256 28.8465 43.3246 30.0029C41.6646 30.8609 41.8512 32.4091 41.3102 33.6774C38.9415 33.752 37.3374 35.6172 37.8037 37.4264C37.0203 37.4637 36.1063 37.8181 35.1551 38.3217C34.5955 39.5154 34.1292 40.7465 35.2484 42.5743C32.5998 43.2645 32.0962 44.7566 32.0962 46.454C26.9855 46.1182 26.426 52.777 30.7346 52.8889C32.4505 51.9563 29.4103 50.5387 30.0072 49.2331C32.0402 47.7596 32.6184 50.1097 33.9614 50.5014C32.6557 50.9677 32.1335 49.401 30.8651 49.7554C30.5854 51.6579 33.2153 52.3666 32.0588 54.4184C32.5624 55.5188 34.1479 54.1199 34.4463 54.2691C38.1021 57.4213 41.7579 60.5735 45.3204 64.0428C34.7634 65.6095 26.2395 61.7486 19.7859 52.3293C23.2738 63.6884 36.5167 68.8363 46.9991 65.7214C51.4196 69.4891 55.579 73.9469 60.0368 77.5841C58.6006 79.5798 56.4556 81.2958 56.064 83.6833C46.9618 77.0618 35.5468 76.5769 25.5307 72.4175C20.4946 66.7473 14.2276 64.3225 9.88169 56.8431C0.984713 41.3433 4.95755 30.6744 9.15424 20.0988C14.0224 15.1933 17.0254 9.57904 26.1649 6.25899C32.9915 3.9648 38.8295 4.35651 44.0147 6.42688C46.5514 8.79568 50.7667 8.94488 54.0868 11.0526C56.4369 12.5447 58.7498 15.4171 61.3238 17.5621C69.6798 24.5566 72.2165 37.3145 73.1491 48.3565H73.1118Z" fill="#F4D8BA"/>
</g>
</svg>
