<svg width="51" height="107" viewBox="0 0 51 107" fill="none" xmlns="http://www.w3.org/2000/svg">
<path opacity="0.32" fill-rule="evenodd" clip-rule="evenodd" d="M48.2528 26.4695V23.1099C49.3864 22.9597 50.4103 22.6969 50.9954 21.9837C50.8491 19.9567 48.783 21.1766 47.9786 20.8576C47.5398 15.6773 45.7845 11.886 43.6088 8.50761C44.0293 7.92577 44.8703 6.85593 44.1573 5.97379C42.4569 5.63595 42.7312 7.32516 41.4147 7.38146C40.6834 6.06764 38.9099 5.82363 37.8494 4.84764C37.6117 4.07812 38.4162 2.21998 37.3009 2.31382C35.9296 2.12613 36.2404 3.64645 35.6554 4.2846C32.218 2.44524 26.5135 4.28456 22.8019 3.72149C23.0031 2.29505 22.5094 1.6006 21.9792 0.906151C19.9863 0.549541 20.5713 3.68395 20.8822 4.82886C17.0243 6.19899 13.3676 7.77557 10.497 10.1592C10.2045 9.52109 9.25375 8.69529 8.57725 9.31466C9.54628 12.5617 7.24254 14.5136 6.12724 17.7419C5.57873 17.2351 3.91491 16.8598 3.11043 17.4604C2.9276 19.5062 4.99365 19.2622 5.30447 20.8388C4.66454 25.0618 5.0485 30.6362 5.57873 34.5964C3.96977 34.634 3.0373 35.3659 2.83618 36.8487C4.29887 37.0551 5.17649 36.6235 6.12724 36.2856C7.38881 39.7579 8.26643 43.6243 9.12576 47.5095C6.85858 47.9975 3.69551 47.547 1.73916 48.3541C-0.418317 52.1079 0.00220839 59.4465 0.0936268 64.6455C1.04438 65.7341 2.28767 66.5037 3.11043 67.7424C3.18357 69.6944 3.2567 71.6276 3.34812 73.542C3.3664 74.5368 3.42125 75.5315 3.49439 76.5263C3.87834 83.6585 4.29887 90.7344 4.18917 98.3546C10.8079 101.358 22.0523 109.184 30.7188 106.219C31.1393 104.943 30.4994 105.036 30.4445 103.685C33.699 94.1128 36.2953 83.865 39.4767 74.199C40.5005 73.467 41.561 72.7725 42.7677 72.2282C43.8282 67.3295 43.1517 60.629 44.139 55.6552C43.3345 53.1214 40.3908 52.7648 38.6722 51.1694C39.8789 50.0808 40.4823 48.3353 41.689 47.2467C42.8409 48.2978 44.4315 48.9171 46.333 49.2174C46.0039 46.9276 43.883 46.4959 42.5117 45.2947C44.9069 40.3585 46.973 35.0844 47.9786 28.7218C48.8379 29.0971 50.5017 29.2098 50.9954 28.4402C51.1051 26.7323 49.2401 27.0513 48.2528 26.4695ZM35.6737 6.81836C41.7987 24.1421 35.052 43.6618 29.1098 56.8001C28.3419 53.9097 30.7005 49.499 30.7553 45.5763C32.602 36.7174 32.7848 26.1317 32.6751 15.2457C33.0591 13.8568 34.9423 14.0069 35.1251 12.4303C34.6863 11.1728 33.1505 12.2802 32.4009 12.4303C32.2912 10.103 31.9621 8.00084 31.5781 5.97379C33.443 5.74856 34.3024 6.55559 35.6737 6.81836ZM30.2068 5.97379C31.9804 16.9349 30.9747 30.411 29.9326 41.6348C29.2561 42.0853 27.1717 40.5837 26.3855 41.9163C26.477 43.6806 28.1225 43.8871 29.4024 44.4501C28.4516 48.3541 28.0859 52.8211 26.6598 56.2371C25.2702 56.2558 24.5023 55.6552 23.0945 55.674C22.8202 49.7054 23.3322 41.128 23.643 34.0521C24.74 34.146 25.6542 34.0521 25.837 33.2075C25.9833 31.8374 24.3561 32.2878 23.643 31.7998C24.0635 28.215 24.5206 24.6489 24.74 20.8576C25.7822 20.332 27.702 20.7262 28.287 19.7314C28.5247 17.9859 26.7147 18.3425 25.2702 18.3237C25.9833 13.913 26.7147 9.50236 28.287 5.97379H30.2068ZM26.6598 6.25531C23.1311 16.0152 22.5094 28.7593 21.7415 41.3533C20.4799 41.2219 19.5657 40.8465 18.7247 41.6348C18.8161 43.5117 20.8822 43.3615 21.7415 44.4501C21.2661 47.6221 21.5404 51.5448 21.4672 55.1109C18.5967 54.9044 19.0904 51.1694 18.7247 48.6544C18.3224 45.839 18.0482 43.0237 17.6277 40.7902C16.9695 29.3036 16.2747 15.5272 20.6445 7.66299C22.546 7.08115 24.1915 6.25531 26.6598 6.25531ZM10.2411 14.401C11.0638 13.7441 12.106 13.3312 12.1608 11.8672C14.0624 10.6285 15.8359 9.27712 18.1762 8.48882C17.4997 12.2802 15.2874 16.9536 15.7079 22.8095C15.5433 23.6354 13.459 21.6834 12.6911 23.3726C13.0019 24.9304 14.7388 25.0055 15.4336 26.1879C15.4153 36.1355 16.293 45.1446 17.3534 53.9848C15.5982 53.9097 14.4097 53.2528 12.4351 53.4217C10.9907 41.0342 3.43954 25.9627 10.2411 14.401ZM9.96681 50.062C10.0765 51.0756 10.3325 51.939 10.7896 52.5959C8.68695 52.2205 4.57313 51.4885 2.85446 49.7805C5.52388 49.5741 7.44366 50.1184 9.96681 50.062ZM2.0317 51.7512C13.3493 56.1432 25.4896 59.6717 40.8845 59.897C39.824 60.9668 37.6117 60.8354 35.9662 61.3046C31.1393 61.2108 26.2027 61.2108 22.0157 60.4601C16.0918 57.1755 7.15112 56.9878 2.04998 52.8774V51.7512H2.0317ZM28.287 104.267C18.5784 104.492 13.7515 99.7247 6.12724 97.8103V94.4319C13.3859 97.0783 19.7486 100.663 29.1098 101.17C29.0732 102.446 28.4333 103.103 28.287 104.267ZM30.2068 98.3733C20.7359 99.1616 14.1538 94.6758 6.14552 93.0429C5.79813 84.4092 5.56044 75.6629 4.49999 67.78C12.3985 73.1103 24.2281 78.0654 37.3192 75.3626C34.9606 83.0391 32.3643 90.4904 30.2068 98.3921V98.3733ZM41.1405 69.4504C40.2446 70.9707 38.2334 71.3461 37.0449 72.5473C25.2885 75.0623 13.5321 71.3085 6.67575 66.0908C5.01193 65.6403 3.47611 65.0772 2.0317 64.4016C2.19625 60.873 1.83058 57.8699 1.75744 54.5666C4.77425 56.7438 9.32688 57.4383 14.0624 59.0524C16.7683 59.9721 19.456 61.6988 21.9975 62.4121C27.9945 64.1013 36.1856 63.388 41.4147 62.4121C42.0912 64.4203 41.4513 67.4984 41.1405 69.4316V69.4504ZM41.4147 56.5374C40.4457 57.6635 37.6117 57.5133 35.9479 57.1004C35.6554 52.3894 40.1897 54.5291 41.4147 56.5374ZM40.592 43.6243C39.3487 46.008 37.6849 47.9412 36.4781 50.3624C34.211 51.695 34.1378 55.2611 32.1083 56.8189C31.9621 53.7971 33.9733 50.3812 35.1251 46.984C36.3136 43.5305 37.63 40.0395 38.1419 36.3044C39.7875 36.3983 41.2685 36.3419 41.9632 35.4598C41.6524 34.2774 40.2446 34.221 38.6905 34.3337C39.0561 31.3306 39.8241 28.7593 39.7875 25.3434C40.6651 25.0243 41.5976 24.7803 42.8043 24.7803C43.042 22.8471 40.9576 23.2975 39.7875 22.8095C39.7875 16.841 38.8367 11.7921 37.0449 7.6442C42.2923 8.80787 45.1994 14.814 45.8028 21.6834C46.2782 31.2368 43.17 37.1302 40.6102 43.5867L40.592 43.6243Z" fill="#F4D8BA"/>
</svg>
