<svg width="71" height="70" viewBox="0 0 71 70" fill="none" xmlns="http://www.w3.org/2000/svg">
<path d="M70.9997 69.3943C70.9913 64.2835 70.9811 59.1727 70.971 54.0619C68.0917 48.7604 65.2108 43.459 62.3298 38.1559C59.4978 43.3814 56.6641 48.6069 53.832 53.8325V69.337C56.6826 69.3471 59.5349 69.3556 62.3872 69.3657C62.3787 64.7609 62.3703 60.1561 62.3619 55.5513C64.3236 57.1132 66.2836 58.6734 68.2436 60.2353C68.2351 63.2698 68.225 66.3025 68.2149 69.337C69.1443 69.3555 70.072 69.3741 70.9997 69.3943ZM60.8084 52.3397C59.4303 53.9472 58.0523 55.5546 56.6742 57.1621V52.397C58.0523 49.9665 59.4303 47.5359 60.8084 45.1053V52.3397Z" fill="#003434"/>
<path d="M16.5368 51.3511V56.8752L14.6392 55.1682C14.4385 54.981 14.2395 54.7938 14.0388 54.6082V49.8415C12.1445 46.8728 10.2503 43.9025 8.35443 40.9338V66.8388H14.0388V60.3887C14.872 61.141 15.7036 61.8933 16.5368 62.6455V69.3368H0V54.6082C2.78481 49.1415 5.56962 43.6764 8.35443 38.2097C11.0802 42.5868 13.8026 46.9605 16.5284 51.3376C16.5318 51.3427 16.5334 51.3461 16.5368 51.3511Z" fill="#003434"/>
<path d="M35.8293 27.9645C40.8642 35.0556 45.8974 42.1466 50.9324 49.2394C50.9222 49.8803 50.9121 50.5213 50.9037 51.1623C45.8789 46.2623 40.8541 41.3623 35.8293 36.4623V61.1967C40.8541 62.7046 45.8789 64.2109 50.9037 65.7188V69.3369H19.8086V35.9175C25.1488 23.945 30.489 11.9725 35.8293 0C40.8642 11.7903 45.8974 23.5806 50.9324 35.371C50.9222 35.9546 50.9121 36.5399 50.9037 37.1235C45.8789 27.4281 40.8541 17.7344 35.8293 8.03901V27.9645Z" fill="#003434"/>
</svg>
