<svg width="464" height="246" viewBox="0 0 464 246" fill="none" xmlns="http://www.w3.org/2000/svg">
<path d="M202.19 5.30936L203.563 5.63571C203.652 5.65986 203.744 5.68356 203.838 5.70608C204.073 5.77233 204.288 5.83116 204.493 5.88701C204.965 6.01593 205.379 6.12879 205.835 6.27942L205.858 6.28678L205.88 6.29362C206.906 6.60558 207.876 6.98248 208.923 7.39131C209.198 7.50209 209.469 7.60223 209.71 7.69148L209.721 7.69584C209.968 7.78702 210.184 7.86749 210.396 7.95261C211.804 8.56857 213.155 9.23953 214.425 9.99559L214.435 10.0014L214.444 10.0071C214.633 10.1167 214.821 10.2367 215.052 10.3845L215.066 10.3933C215.276 10.5281 215.524 10.6875 215.789 10.8417C216.69 11.398 217.542 11.9575 218.31 12.5608L218.333 12.5783L218.355 12.5952C218.55 12.7397 218.742 12.8984 218.965 13.0878C219.002 13.12 219.042 13.1538 219.083 13.1888C219.266 13.3448 219.477 13.5252 219.691 13.6966C220.404 14.2774 221.101 14.9323 221.794 15.6178C221.929 15.7558 222.051 15.878 222.164 15.9908C222.464 16.2924 222.697 16.5259 222.934 16.8094L222.952 16.8317L222.972 16.8535C223.635 17.6041 224.278 18.4322 224.907 19.2881L226.519 18.1044L224.907 19.2882C225.034 19.4612 225.145 19.6091 225.246 19.7432C225.45 20.0151 225.612 20.2308 225.779 20.4853L225.782 20.4912L225.786 20.4972C226.626 21.7635 227.36 23.0859 227.994 24.5322L229.904 28.8923L231.681 24.4762C234.765 16.8126 241.686 10.0933 250.018 6.02948C258.348 1.96673 267.803 0.69377 275.854 3.52224C285.447 6.89824 292.853 14.972 295.514 24.2153C297.303 30.4868 297.033 36.6434 295.075 42.4016L293.391 47.3577L297.951 44.7875C301.168 42.9745 304.461 41.4546 307.583 40.2309C321.052 34.982 336.27 34.8237 349.167 41.2436L349.168 41.2442C362.936 48.0862 368.717 60.7778 370.575 75.2219L370.576 75.2247C371.502 82.3496 371.991 91.3221 369.778 98.8339L368.317 103.793L372.735 101.108C399.583 84.7964 439.026 88.5361 455.899 115.967L455.903 115.974C456.959 117.676 457.848 119.415 458.639 121.264L458.644 121.275L458.648 121.285C458.693 121.387 458.739 121.515 458.801 121.71C458.813 121.748 458.827 121.793 458.842 121.842C458.892 122.002 458.958 122.212 459.023 122.397L459.037 122.436L459.052 122.475C459.653 123.974 460.189 125.436 460.552 126.865L460.554 126.875L460.557 126.886C460.584 126.986 460.606 127.107 460.644 127.335C460.677 127.525 460.725 127.818 460.803 128.116C461.181 129.673 461.484 131.171 461.687 132.717C461.694 132.821 461.694 132.93 461.699 133.176C461.704 133.379 461.712 133.68 461.762 134.007C461.901 135.618 462 137.155 462 138.708V138.708V138.709V138.709V138.71V138.71V138.71V138.711V138.711V138.712V138.712V138.712V138.713V138.713V138.714V138.714V138.714V138.715V138.715V138.716V138.716V138.716V138.717V138.717V138.718V138.718V138.718V138.719V138.719V138.72V138.72V138.72V138.721V138.721V138.722V138.722V138.722V138.723V138.723V138.724V138.724V138.724V138.725V138.725V138.726V138.726V138.727V138.727V138.727V138.728V138.728V138.729V138.729V138.729V138.73V138.73V138.731V138.731V138.731V138.732V138.732V138.733V138.733V138.734V138.734V138.734V138.735V138.735V138.736V138.736V138.737V138.737V138.737V138.738V138.738V138.738V138.739V138.739V138.74V138.74V138.74V138.741V138.741V138.741V138.742V138.742V138.742V138.743V138.743V138.743V138.744V138.744V138.745V138.745V138.745V138.746V138.746V138.747V138.747V138.747V138.748V138.748V138.748V138.748V138.749V138.749V138.749V138.749V138.75V138.75V138.75V138.75V138.75V138.751V138.751V138.751V138.751V138.752V138.752V138.752V138.752V138.753V138.753V138.753V138.753V138.753V138.754V138.754V138.754V138.754V138.755V138.755V138.755V138.755V138.756V138.756V138.756V138.756V138.757V138.757V138.757V138.757V138.758V138.758V138.758V138.758V138.758V138.759V138.759V138.759V138.759V138.76V138.76V138.76V138.76V138.761V138.761V138.761V138.761V138.762V138.762V138.762V138.762V138.763V138.763V138.763V138.763V138.764V138.764V138.764V138.764V138.765V138.765V138.765V138.765V138.766V138.766V138.766V138.766V138.767V138.767V138.767V138.767V138.768V138.768V138.768V138.768V138.769V138.769V138.769V138.769V138.77V138.77V138.77V138.77V138.771V138.771V138.771V138.772V138.772V138.772V138.772V138.773V138.773V138.773V138.773V138.774V138.774V138.774V138.774V138.775V138.775V138.775V138.776V138.776V138.776V138.776V138.777V138.777V138.777V138.777V138.778V138.778V138.778V138.778V138.779V138.779V138.779V138.78V138.78V138.78V138.78V138.781V138.781V138.781V138.782V138.782V138.782V138.782V138.783V138.783V138.783V138.783V138.784V138.784V138.784V138.785V138.785V138.785V138.785V138.786V138.786V138.786V138.787V138.787V138.787V138.788V138.788V138.788V138.788V138.789V138.789V138.789V138.79V138.79V138.79V138.79V138.791V138.791V138.791V138.792V138.792V138.792V138.793V138.793V138.793V138.793V138.794V138.794V138.794V138.795V138.795V138.795V138.796V138.796V138.796V138.796V138.797V138.797V138.797V138.798V138.798V138.798V138.799V138.799V138.799V138.8V138.8V138.8V138.8V138.801V138.801V138.801V138.802V138.802V138.802V138.803V138.803V138.803V138.804V138.804V138.804V138.805V138.805V138.805V138.806V138.806V138.806V138.807V138.807V138.807V138.808V138.808V138.808V138.809V138.809V138.809V138.809V138.81V138.81V138.81V138.811V138.811V138.811V138.812V138.812V138.812V138.813V138.813V138.814V138.814V138.814V138.815V138.815V138.815V138.816V138.816V138.816V138.817V138.817V138.817V138.818V138.818V138.818V138.819V138.819V138.819V138.82V138.82V138.82C461.825 146.484 459.559 154.052 455.131 160.443L455.129 160.446C450.573 167.049 443.84 172.003 436.001 175.032C434.166 175.73 431.941 176.516 429.596 177.133L427.449 177.699L428.234 179.775C431.889 189.441 431.07 198.716 425.214 208.194C424.525 209.266 423.81 210.291 423.034 211.276C422.986 211.33 422.928 211.401 422.867 211.489L422.605 211.821V211.826C421.183 213.632 419.58 215.307 417.848 216.849L417.827 216.868L417.806 216.887L417.447 217.226L417.116 217.538C415.3 219.118 413.342 220.575 411.275 221.908C411.272 221.91 411.269 221.912 411.266 221.914L410.799 222.207L410.346 222.492C410.34 222.495 410.335 222.498 410.33 222.502C408.218 223.773 406.005 224.914 403.725 225.891L403.692 225.905L403.66 225.92C403.539 225.977 403.421 226.018 403.218 226.088C403.142 226.114 403.053 226.145 402.948 226.182L402.906 226.197L402.865 226.214C400.414 227.204 397.949 228.054 395.429 228.705C382.095 232.042 367.934 230.483 355.179 225.463C350.855 223.752 345.419 221.366 340.571 218.289C335.68 215.184 331.639 211.532 329.777 207.39L328.355 204.228L326.329 207.042C324.419 209.696 321.992 212.119 318.815 214.373L318.815 214.374C311.597 219.501 302.536 222.195 293.425 221.968C285.774 221.775 278.54 219.326 271.917 215.645L269.828 214.484L269.053 216.745C267.011 222.707 260.045 226.399 252.016 226.906C244.008 227.412 236.153 224.655 232.748 219.154L230.99 216.313L229.317 219.205C227.295 222.699 223.458 225.262 218.385 225.563L218.374 225.564L218.362 225.565C217.143 225.651 215.922 225.539 214.642 225.291L214.528 225.269L214.412 225.26C212.736 225.134 211.17 224.854 209.742 224.328L209.729 224.323C208.251 223.789 206.87 223.008 205.588 222.077L203.385 220.48L202.518 223.059C197.459 238.094 180.094 247.187 162.908 242.967L162.906 242.967C147.474 239.193 135.619 224.256 137.245 209.961L137.919 204.03L133.807 208.358C121.172 221.656 103.641 230.265 84.1702 232.486C61.4703 235.074 39.0357 226.62 23.3428 212.016C7.65948 197.42 -1.15093 176.829 3.04255 155.15C6.97482 134.911 22.0459 116.241 42.1423 107.853L42.1396 107.839C44.0106 107.072 46.0674 106.393 48.2123 105.805C48.4314 105.748 48.6407 105.684 48.8037 105.634C48.8248 105.627 48.8451 105.621 48.8645 105.615C49.0531 105.557 49.1967 105.515 49.3431 105.48L49.364 105.475L49.3848 105.47C51.548 104.911 53.7848 104.449 56.0959 104.086L56.1096 104.084L56.1233 104.081C56.4336 104.028 56.7214 104 57.0875 103.966L57.1282 103.962L57.1686 103.956C62.0141 103.299 67.0166 103.203 71.788 103.79L71.9096 103.805H72.0215L72.4255 103.857C74.4896 104.121 76.5021 104.477 78.383 105.016L82.139 106.091L80.8149 102.415C79.1046 97.6672 79.8428 91.6675 82.1274 85.8941C84.4029 80.1437 88.0758 74.9735 91.7376 71.9739C97.3107 67.4206 104.418 64.8373 111.861 64.2876L111.867 64.2872C115.723 63.9924 120.816 64.1727 124.918 65.5451L127.882 66.5368L127.54 63.4296C127.159 59.9626 127.125 56.633 127.366 53.5746C128.644 37.6523 137.204 23.5803 151.041 14.2384L151.043 14.2377C165.042 4.77315 185.454 1.33207 202.19 5.30936Z" fill="white" stroke="black" stroke-width="4"/>
</svg>
