<svg width="1440" height="544" viewBox="0 0 1440 544" fill="none" xmlns="http://www.w3.org/2000/svg">
<path d="M1234.09 423.982C1327.56 333.771 1605.93 194.791 2019.97 280.626C1985.06 200.45 1926.22 173.57 1868.56 147.223L1865.65 145.895C1836 132.337 1806.68 118.645 1781.51 97.5879C1756.51 76.6775 1735.65 48.5518 1722.41 6.19934C1456.25 -22.5363 1284.83 117.723 1142.82 243.11C1136.28 248.882 1129.8 254.625 1123.38 260.32C1060.04 316.479 1002.02 367.92 943.407 396.955C911.08 412.97 878.482 422.223 844.62 421.686C810.747 421.149 775.745 410.819 738.614 387.878L738.613 387.878C704.599 366.847 676.305 345.996 651.319 327.582C650.456 326.946 649.597 326.313 648.742 325.683C623.091 306.784 600.978 290.646 579.562 279.588C558.191 268.554 537.624 262.641 515.095 264.119C492.544 265.599 467.824 274.498 438.187 293.45C436.871 294.295 435.115 295.435 432.973 296.827C419.095 305.84 388.991 325.389 357.099 343.509C338.69 353.967 319.644 363.974 302.744 371.211C294.294 374.83 286.349 377.771 279.267 379.728C272.211 381.679 265.893 382.688 260.739 382.35C167.122 376.23 92.6662 306.548 41.7649 238.86C16.2788 204.969 -3.38594 171.468 -16.6785 146.444C-23.3258 133.929 -28.3823 123.53 -31.7788 116.255C-33.4771 112.617 -34.7605 109.76 -35.6204 107.81C-35.896 107.185 -36.1281 106.653 -36.3164 106.219L-78.8534 114.855C-78.6624 115.225 -78.4475 115.641 -78.2088 116.101C-77.0449 118.344 -75.3181 121.64 -73.0693 125.844C-68.5716 134.252 -61.9864 146.292 -53.6413 160.811C-36.9494 189.852 -13.2248 228.794 14.9123 268.416C43.0558 308.047 75.5778 348.307 109.857 380.015C144.174 411.759 180.052 434.744 214.9 440.169L214.901 440.169C249.82 445.619 281.308 438.173 310.877 426.126C325.668 420.1 339.955 412.933 353.95 405.662C357.039 404.057 360.116 402.446 363.182 400.841C373.977 395.188 384.628 389.611 395.169 384.64C422.231 371.878 448.959 362.91 476.589 366.694C504.082 370.46 532.093 386.789 562.047 423.617L562.158 423.601L562.823 424.424C622.419 498.245 747.032 539.797 878.682 541.951C1010.27 544.103 1148.16 506.872 1234.09 423.982Z" fill="#C7E7FF" stroke="black" stroke-width="3.73623"/>
</svg>
