<svg width="87" height="88" viewBox="0 0 87 88" fill="none" xmlns="http://www.w3.org/2000/svg">
<path d="M55.0391 74.4534C54.7168 74.5776 54.4049 74.6977 54.0746 74.801C37.654 80.552 19.5148 72.2311 13.2159 55.8757C9.33962 45.8109 10.8292 35.0167 16.2769 26.6264C17.4358 24.8309 18.7731 23.1577 20.2721 21.6252C23.4211 18.3946 27.2967 15.7796 31.7774 14.054C32.2868 13.8578 32.7898 13.676 33.3009 13.515C39.1996 11.5656 45.2905 11.4167 50.9645 12.7896C60.9495 15.1886 69.6242 22.3069 73.5966 32.6213C76.1034 39.1302 76.3635 45.9431 74.7581 52.2209C73.8664 55.7642 72.3707 59.1341 70.3518 62.1683C69.3559 63.6741 68.2224 65.1017 66.9785 66.4285C63.7544 69.8671 59.7277 72.6477 55.0391 74.4534Z" fill="#BF946D"/>
<path d="M12.1758 56.2762C7.48261 44.0902 10.3528 30.1854 19.4705 20.8473C22.8314 17.3918 26.8438 14.76 31.3765 13.0143C31.9067 12.8101 32.4305 12.6203 32.9623 12.4513C38.8611 10.5019 45.1726 10.2442 51.2282 11.7088C61.9227 14.2763 70.6793 21.9482 74.6357 32.221C77.1465 38.7403 77.5675 45.7539 75.8319 52.4997C74.9035 56.1646 73.3735 59.6313 71.2723 62.7927C67.4302 68.5946 61.947 72.9869 55.4286 75.4973C55.0855 75.6294 54.7529 75.7575 54.4018 75.8689C37.2767 81.8673 18.7086 73.2698 12.1654 56.2802L12.1758 56.2762ZM72.5565 33.0218C68.8644 23.4352 60.6992 16.2758 50.6998 13.8705C45.0545 12.5104 39.1653 12.7488 33.6488 14.5749C33.1482 14.7318 32.666 14.9056 32.1774 15.0938C27.9461 16.7234 24.2112 19.1767 21.0726 22.4033C12.5505 31.118 9.87417 44.1005 14.255 55.4754C20.3617 71.3317 37.6938 79.3545 53.7049 73.7493C54.0456 73.642 54.3366 73.5299 54.6381 73.4138C60.7199 71.0715 65.8353 66.9642 69.424 61.5584C71.3798 58.6082 72.8219 55.3783 73.6769 51.9566C75.2846 45.6541 74.9031 39.1147 72.5605 33.0322L72.5565 33.0218Z" fill="#2A243A"/>
<path d="M70.3508 62.1683C72.3698 59.1341 73.8654 55.7642 74.7571 52.2209C73.4425 51.3183 72.0456 50.543 70.5871 49.8868C65.6909 47.7129 59.8731 46.7418 56.4629 42.5987C52.6637 37.9725 53.3803 31.3088 53.1509 25.3197C52.9945 21.0697 52.2501 16.8432 50.9635 12.7896C45.2895 11.4168 39.1987 11.5656 33.2999 13.5151C35.5741 17.1883 36.9744 21.413 37.1837 25.7381C37.4794 31.8687 35.6438 38.3546 38.1269 43.9651C39.9382 48.0793 43.8365 50.9479 47.9447 52.7805C52.0632 54.6091 56.4949 55.5768 60.7421 57.0574C64.122 58.2391 67.5286 59.924 70.3508 62.1683Z" fill="#E9CA85"/>
<path d="M36.8348 43.7705C35.3611 39.9442 35.6375 35.826 35.9018 31.8318C36.0288 29.8367 36.1734 27.7632 36.0724 25.7962C35.88 21.763 34.5871 17.7238 32.3577 14.105C32.1752 13.8171 32.1446 13.4588 32.2604 13.1395C32.3763 12.8203 32.6361 12.565 32.956 12.4657C38.8651 10.5123 45.1871 10.2506 51.2323 11.7192C51.6139 11.8111 51.9123 12.0901 52.0317 12.462C53.3559 16.6444 54.1115 20.9621 54.2712 25.2825C54.3158 26.328 54.3227 27.3999 54.3336 28.4822C54.3808 33.3474 54.4425 38.3742 57.3269 41.896C59.5983 44.6628 63.087 45.9101 66.7838 47.2326C68.1966 47.7391 69.663 48.2609 71.0455 48.8747C72.5903 49.5692 74.0529 50.391 75.3963 51.3064C75.7819 51.5638 75.9557 52.0461 75.8528 52.4917C74.9284 56.167 73.3944 59.6233 71.2931 62.7847C71.1181 63.0432 70.851 63.2177 70.5359 63.2674C70.2312 63.3131 69.9136 63.2324 69.6719 63.0389C67.1938 61.0681 63.9839 59.3671 60.396 58.1103C58.8368 57.5645 57.2168 57.078 55.6401 56.6107C52.9442 55.8102 50.1619 54.9714 47.5122 53.795C43.9656 52.2117 39.2755 49.3018 37.1286 44.4095C37.0341 44.1952 36.9396 43.9808 36.8556 43.7625L36.8348 43.7705ZM36.5563 17.5983C37.5654 20.2184 38.157 22.9636 38.2896 25.6945C38.393 27.7919 38.2477 29.9254 38.1199 31.9805C37.8516 36.1195 37.5864 40.0185 39.1406 43.5272C41.0104 47.7621 45.2061 50.349 48.3926 51.7724C50.9127 52.8913 53.623 53.6981 56.2549 54.4874C57.8461 54.9611 59.4948 55.4604 61.1076 56.0213C64.4876 57.2031 67.5502 58.7697 70.0594 60.5734C71.5619 58.1202 72.7004 55.4967 73.4725 52.7278C72.426 52.0563 71.2979 51.452 70.1274 50.9237C68.817 50.3419 67.4042 49.8353 66.0202 49.3415C62.2122 47.9783 58.2642 46.5616 55.5975 43.3262C52.2057 39.1998 52.1534 33.7635 52.0924 28.5215C52.0791 27.464 52.0698 26.4169 52.0293 25.3818C51.881 21.463 51.232 17.546 50.0807 13.7507C45.0819 12.6432 39.8909 12.8037 34.9677 14.1864C35.5761 15.3012 36.1118 16.4441 36.5603 17.6087L36.5563 17.5983Z" fill="#2A243A"/>
<path d="M19.8613 30.0456C20.199 27.2649 20.4592 24.4066 20.2714 21.6253C11.6989 30.3952 8.51809 43.6794 13.2153 55.8758C19.5142 72.2312 37.6534 80.552 54.074 74.8011C52.8623 70.0739 50.3109 65.5881 45.9867 63.5044C42.6761 61.9139 38.848 61.9554 35.2818 61.0961C27.1759 59.1435 20.5808 52.0003 19.261 43.7687C18.5413 39.2342 19.302 34.607 19.8613 30.0456Z" fill="#E9CA85"/>
<path d="M12.1754 56.2762C7.48221 44.0903 10.3524 30.1854 19.4701 20.8473C19.7803 20.5368 20.241 20.431 20.657 20.5812C21.073 20.7315 21.3515 21.1137 21.3893 21.5529C21.5916 24.4957 21.3035 27.4364 20.9745 30.1779L20.7761 31.7707C20.2789 35.6874 19.7594 39.7321 20.374 43.5907C21.6289 51.4056 27.8711 58.1594 35.5562 60.0113C36.7689 60.3084 38.072 60.4991 39.3214 60.6746C41.7148 61.0304 44.1969 61.3997 46.4794 62.4907C50.5981 64.4745 53.69 68.7521 55.1678 74.5111C55.3136 75.0758 54.998 75.6511 54.4598 75.8345C37.3035 81.8449 18.7354 73.2474 12.1922 56.2578L12.1754 56.2762ZM19.2104 24.4815C12.1791 33.0996 10.2102 44.9739 14.2546 55.4754C20.2372 71.0094 36.9797 79.0204 52.7112 74.0841C51.7883 71.0367 49.756 66.5659 45.5038 64.5142C43.5237 63.5574 41.3119 63.2392 38.9826 62.8945C37.6795 62.7039 36.3373 62.5044 35.0214 62.1874C26.4843 60.1382 19.5586 52.6327 18.1618 43.9532C17.5015 39.7898 18.0377 35.5715 18.5596 31.502L18.7619 29.9197C18.9706 28.1677 19.1617 26.339 19.2144 24.4919L19.2104 24.4815Z" fill="#2A243A"/>
<g style="mix-blend-mode:multiply" opacity="0.2">
<path d="M69.5264 41.5199C66.5922 44.1305 61.7933 38.0865 64.5737 35.0456C67.3437 32.0088 72.471 38.9054 69.5264 41.5199Z" fill="#2D2B39"/>
</g>
<path d="M63.0431 39.3483C62.3863 37.6431 62.4566 35.7177 63.7533 34.3108C64.6326 33.3394 65.8082 32.9821 67.0641 33.2984C68.9696 33.7824 70.8151 35.8775 71.3714 38.1587C71.7801 39.84 71.3818 41.3784 70.2768 42.3532C68.6674 43.7849 66.3701 43.5235 64.5648 41.6875C63.9173 41.0294 63.3858 40.2073 63.0495 39.3339L63.0431 39.3483ZM69.0254 38.1428C68.5368 36.8743 67.4677 35.71 66.5005 35.4616C66.0613 35.3442 65.7207 35.4516 65.3953 35.8157C64.2265 37.0896 65.1274 39.1187 66.1405 40.1374C66.4958 40.502 67.7497 41.6191 68.7795 40.6971C69.3927 40.1505 69.3435 39.3098 69.188 38.6891C69.1407 38.5043 69.0831 38.3236 69.015 38.1468L69.0254 38.1428Z" fill="#2A243A"/>
<g style="mix-blend-mode:multiply" opacity="0.2">
<path d="M35.3476 53.7038C27.4429 55.9004 18.9874 39.122 26.1478 32.854C29.0876 30.289 29.9527 37.8361 32.0564 42.7092C33.8221 46.829 39.9613 52.4165 35.3436 53.6934L35.3476 53.7038Z" fill="#2D2B39"/>
</g>
<path d="M23.5641 45.7052C21.7581 41.0159 21.6409 35.318 25.4074 32.0167C26.4075 31.142 27.2826 31.1512 27.8434 31.3054C29.6657 31.8214 30.4941 34.4993 31.5492 37.8898C32.0202 39.3919 32.5009 40.95 33.0694 42.2712C33.5595 43.4198 34.4672 44.7537 35.3381 46.054C37.0558 48.5923 38.6679 50.9803 37.973 52.8956C37.6303 53.8037 36.8484 54.4392 35.64 54.7732C31.7572 55.8507 27.4119 53.1543 24.5826 47.9158C24.2047 47.2136 23.8604 46.4746 23.5641 45.7052ZM27.2365 33.4495C27.2365 33.4495 27.1182 33.4831 26.8775 33.6952C23.4021 36.7292 24.2736 42.6499 26.5409 46.8631C28.4447 50.3805 31.8096 53.5381 35.0446 52.6384C35.3125 52.5591 35.778 52.4037 35.8786 52.1381C36.1853 51.2917 34.6301 48.9893 33.4951 47.3131C32.5569 45.9312 31.6028 44.5077 31.0263 43.1656C30.4137 41.7299 29.913 40.1199 29.4219 38.5658C28.8515 36.7438 27.9141 33.69 27.2405 33.4599L27.2365 33.4495Z" fill="#2A243A"/>
</svg>
