<svg width="117" height="117" viewBox="0 0 117 117" fill="none" xmlns="http://www.w3.org/2000/svg">
<path d="M115.132 63.1986C114.582 69.5663 112.934 75.9622 110.116 82.1045C109.172 84.1613 108.129 86.1195 106.988 88.0073C100.535 98.5872 91.0098 106.448 80.1184 110.942C66.0005 116.761 49.5859 116.93 34.5944 110.041C24.5625 105.434 16.5313 98.2773 10.8813 89.6978C8.76782 86.5139 6.99251 83.1188 5.56944 79.5968C-0.0664729 65.5794 -0.150992 49.3502 6.66846 34.5298C7.27432 33.1915 7.92245 31.9095 8.62694 30.6557C12.9243 22.9074 18.8138 16.5115 25.7037 11.6935C41.7238 0.479581 63.1262 -2.18302 82.1897 6.5796C94.6732 12.3274 104.085 22.0199 109.637 33.4874C114.047 42.6304 116.019 52.9004 115.132 63.1986Z" fill="#E85372"/>
<path d="M115.132 63.1986C114.582 69.5663 112.934 75.9622 110.116 82.1045C109.172 84.1613 108.129 86.1195 106.988 88.0073C100.535 98.5872 91.0098 106.448 80.1184 110.942C66.0005 116.761 49.5859 116.93 34.5944 110.041C24.5625 105.434 16.5313 98.2773 10.8813 89.6978C8.76782 86.5139 6.99251 83.1188 5.56944 79.5968C-0.0664729 65.5794 -0.150992 49.3502 6.66846 34.5298C7.27432 33.1915 7.92245 31.9095 8.62694 30.6557C12.9243 22.9074 18.8138 16.5115 25.7037 11.6935C41.7238 0.479581 63.1262 -2.18302 82.1897 6.5796C94.6732 12.3274 104.085 22.0199 109.637 33.4874C114.047 42.6304 116.019 52.9004 115.132 63.1986Z" stroke="black"/>
<path d="M58.3923 116.648C50.0512 116.648 41.71 114.873 34.0029 111.323C20.4204 105.082 9.85302 93.9946 4.27347 80.1322C-1.78514 65.0723 -1.39061 48.6741 5.38657 33.9382C6.02061 32.5717 6.66873 31.2756 7.4014 29.9654C11.7129 22.1749 17.6024 15.6381 24.8868 10.5383C41.8368 -1.32364 64.0141 -3.3241 82.7817 5.31174C105.072 15.5677 118.64 38.883 116.541 63.3254C115.949 70.0312 114.23 76.5539 111.398 82.6962C110.44 84.7952 109.355 86.8239 108.186 88.7398C101.718 99.348 92.1937 107.477 80.6542 112.238C73.5388 115.169 65.9726 116.634 58.3923 116.634V116.648ZM7.93682 35.1216C1.4837 49.139 1.10328 64.7483 6.88008 79.0756C12.206 92.2759 22.252 102.814 35.1864 108.759C49.1776 115.197 65.3527 115.521 79.5833 109.632C90.5734 105.096 99.6331 97.3616 105.79 87.2606C106.903 85.4433 107.932 83.5133 108.848 81.5128C111.539 75.6522 113.187 69.4536 113.751 63.0718C115.752 39.8128 102.846 17.6104 81.6264 7.84757C63.7746 -0.365629 42.654 1.5362 26.5353 12.8346C19.6031 17.6808 13.9954 23.9077 9.8953 31.3179C9.2049 32.5576 8.57086 33.7973 7.97908 35.0934L7.93682 35.1216Z" fill="#2A243A"/>
<path d="M25.7041 11.6936C35.3415 31.4165 52.9678 47.2513 73.8629 54.1402C86.8115 58.4088 100.591 59.3809 113.779 62.8465C114.23 62.9592 114.695 63.1001 115.146 63.2128C117.147 39.9538 104.621 16.9061 82.2041 6.59381C63.1406 -2.16882 41.7383 0.479683 25.7182 11.6936H25.7041Z" fill="#A8436A"/>
<path d="M115.132 64.6216C115.019 64.6216 114.892 64.6075 114.78 64.5793L113.413 64.213C107.791 62.7338 101.944 61.6913 96.2938 60.691C88.7135 59.3386 80.8796 57.9439 73.412 55.4926C52.2774 48.5191 34.4256 32.7831 24.436 12.3275C24.126 11.7077 24.3232 10.9469 24.9009 10.5525C41.8509 -1.30948 64.0282 -3.30994 82.7958 5.3259C105.086 15.5818 118.654 38.8972 116.555 63.3396C116.527 63.7481 116.301 64.1285 115.963 64.368C115.724 64.537 115.442 64.6216 115.146 64.6216H115.132ZM27.5075 12.1726C37.1449 31.1489 54.5458 46.2933 74.2997 52.8159C81.5841 55.2109 89.3194 56.5915 96.8011 57.9157C102.423 58.916 108.228 59.9444 113.864 61.4095C115.118 38.7563 102.324 17.3992 81.6123 7.87579C64.1269 -0.168356 43.5135 1.49399 27.5216 12.1726H27.5075Z" fill="#2A243A"/>
<path d="M6.66842 34.5299C-0.15103 49.3503 -0.0664973 65.5795 5.5835 79.611C10.8249 92.614 20.8568 103.729 34.6084 110.041C49.6 116.93 66.0146 116.761 80.1325 110.942C91.0239 106.448 100.549 98.5873 107.002 88.0073C96.2089 82.823 83.9086 81.3297 71.89 81.2592C63.0275 81.2029 53.7001 81.7805 45.8098 77.7373C36.3415 72.8911 31.2269 62.607 25.9714 53.3513C21.2513 45.0535 15.7845 36.9108 8.64098 30.6558C7.93649 31.9096 7.28837 33.1916 6.66842 34.5299Z" fill="#A8436A"/>
<g style="mix-blend-mode:multiply" opacity="0.2">
<path d="M6.66842 34.5299C-0.15103 49.3503 -0.0664973 65.5795 5.5835 79.611C10.8249 92.614 20.8568 103.729 34.6084 110.041C49.6 116.93 66.0146 116.761 80.1325 110.942C91.0239 106.448 100.549 98.5873 107.002 88.0073C96.2089 82.823 83.9086 81.3297 71.89 81.2592C63.0275 81.2029 53.7001 81.7805 45.8098 77.7373C36.3415 72.8911 31.2269 62.607 25.9714 53.3513C21.2513 45.0535 15.7845 36.9108 8.64098 30.6558C7.93649 31.9096 7.28837 33.1916 6.66842 34.5299Z" fill="#2D2B39"/>
</g>
<path d="M58.3923 116.648C50.0512 116.648 41.71 114.873 34.0029 111.323C20.4204 105.082 9.85302 93.9946 4.27347 80.1322C-1.78514 65.0723 -1.39061 48.6741 5.38657 33.9382C6.02061 32.5717 6.66873 31.2756 7.4014 29.9654C7.61275 29.5991 7.96499 29.3315 8.38768 29.261C8.81037 29.1906 9.23307 29.3033 9.55713 29.5851C17.5179 36.5444 23.1538 45.5606 27.1975 52.6468C27.6625 53.4639 28.1134 54.2669 28.5783 55.0981C33.2984 63.5226 38.1876 72.243 46.4583 76.4834C53.0945 79.8786 60.9848 79.8645 68.6497 79.8504C69.7346 79.8504 70.8195 79.8504 71.9044 79.8504C86.4591 79.9349 98.1395 82.189 107.608 86.7394C107.96 86.9084 108.242 87.2324 108.355 87.6128C108.467 87.9932 108.411 88.4017 108.214 88.7398C101.747 99.3479 92.2219 107.477 80.6823 112.238C73.567 115.169 66.0008 116.634 58.4205 116.634L58.3923 116.648ZM7.93682 35.1216C1.4837 49.1389 1.10328 64.7483 6.88008 79.0756C12.206 92.2759 22.252 102.814 35.1864 108.759C49.1776 115.197 65.3527 115.521 79.5833 109.632C90.0802 105.307 98.8159 98.0519 104.945 88.5989C96.0261 84.6262 85.4588 82.7384 71.8762 82.6539C70.8054 82.6539 69.7346 82.6539 68.6497 82.6539C60.6748 82.668 52.4041 82.6821 45.1761 78.977C36.1586 74.3562 31.0581 65.2554 26.1267 56.4646L24.76 54.0274C21.0685 47.547 15.9962 39.4043 9.03582 32.8957C8.65539 33.6142 8.30316 34.3467 7.965 35.1075L7.93682 35.1216Z" fill="#2A243A"/>
<path d="M5.56934 79.5968C10.8107 92.5999 20.8427 103.715 34.5943 110.027C49.5858 116.915 66.0004 116.746 80.1183 110.928C77.7654 104.955 73.8907 99.6438 68.6493 95.9669C59.7445 89.7119 48.2896 88.768 37.7927 85.88C28.423 83.2878 19.2505 78.991 9.51448 79.2446C8.19004 79.2728 6.8656 79.3996 5.56934 79.5827V79.5968Z" fill="#A8436A"/>
<path d="M58.392 116.648C50.0509 116.648 41.7097 114.873 34.0026 111.323C20.4201 105.082 9.85272 93.9946 4.27316 80.1322C4.11818 79.7377 4.14635 79.2869 4.3577 78.9065C4.56905 78.5262 4.94947 78.2726 5.37216 78.2162C6.82341 78.0049 8.17604 77.8781 9.50048 77.864C16.8131 77.6809 23.8298 79.9772 30.607 82.2031C33.0868 83.0202 35.6511 83.8514 38.1732 84.5558C40.9629 85.3306 43.8936 85.9645 46.7116 86.5844C54.5878 88.3172 62.7176 90.1064 69.4666 94.8399C74.7221 98.5309 78.8504 103.927 81.4288 110.435C81.7106 111.154 81.3724 111.957 80.6539 112.252C73.5385 115.183 65.9723 116.648 58.392 116.648ZM7.59835 80.7802C13.0793 93.1775 22.8153 103.081 35.1861 108.759C48.7405 115 64.3661 115.493 78.2727 110.167C75.8915 104.758 72.2986 100.264 67.8462 97.1362C61.5622 92.7267 53.7142 90.9939 46.1057 89.3315C43.2455 88.6976 40.2866 88.0496 37.4123 87.2606C34.8198 86.5422 32.2273 85.6969 29.7193 84.8657C23.1676 82.7103 16.3904 80.4844 9.55683 80.6675C8.92279 80.6675 8.27466 80.7098 7.59835 80.7802Z" fill="#2A243A"/>
<path d="M82.1765 35.0089C87.0516 49.0826 35.6521 27.007 37.6951 14.3279C39.7381 1.64891 77.386 21.2028 82.1765 35.0089Z" fill="#E85372"/>
<path d="M78.0762 40.9117C71.2708 40.9117 59.999 36.2486 52.4046 31.9096C47.1773 28.923 35.1587 21.2169 36.3141 14.0885C36.8072 11.0314 39.0475 9.17186 42.6263 8.86192C53.884 7.87578 79.3584 22.5693 83.5008 34.544C84.473 37.3475 83.5148 38.8971 82.5567 39.7001C81.5423 40.5454 79.9783 40.9117 78.0621 40.9117H78.0762ZM43.7958 11.6372C43.4858 11.6372 43.1758 11.6372 42.8799 11.6795C39.8647 11.9472 39.2729 13.4404 39.1039 14.5534C38.5121 18.1739 44.2889 24.0345 53.8136 29.4724C66.0435 36.4599 78.3439 39.5452 80.7673 37.5306C80.9223 37.4038 81.3873 37.0094 80.8519 35.4738C77.2872 25.2038 54.2363 11.6372 43.7958 11.6372Z" fill="#2A243A"/>
<path d="M63.4792 103.602C62.2393 108.04 46.2756 104.265 47.0928 98.08C47.91 91.8955 65.0432 98.0096 63.4792 103.602Z" fill="#E85372"/>
<path d="M59.21 106.955C58.1532 106.955 56.9697 106.829 55.7016 106.561C50.4743 105.49 45.1202 102.32 45.7119 97.8969C45.9233 96.2909 46.9378 95.0793 48.5722 94.5017C52.5596 93.0648 59.4917 95.516 62.7747 98.5872C65.1277 100.771 65.1981 102.729 64.8459 103.983C64.3104 105.913 62.2393 106.955 59.21 106.955ZM51.2211 96.9108C50.5729 96.9108 49.9811 96.9953 49.5162 97.1643C48.7131 97.4461 48.5581 97.8969 48.5017 98.2773C48.1917 100.644 52.2919 102.997 56.2652 103.814C59.7313 104.532 61.9293 103.926 62.1265 103.236C62.3942 102.278 61.4361 101.208 60.8444 100.658C58.5618 98.5308 54.1658 96.9108 51.2211 96.9108Z" fill="#2A243A"/>
</svg>
