<svg width="110" height="110" viewBox="0 0 110 110" fill="none" xmlns="http://www.w3.org/2000/svg">
<path d="M69.4277 92.9033C69.0201 93.0603 68.6257 93.2122 68.2081 93.3428C47.4433 100.615 24.5051 90.093 16.5397 69.4107C11.6379 56.683 13.5216 43.0332 20.4105 32.4231C21.876 30.1526 23.5671 28.0367 25.4627 26.0988C29.4448 22.0135 34.3457 18.7067 40.0119 16.5245C40.6561 16.2764 41.2922 16.0465 41.9384 15.8429C49.3978 13.3778 57.1 13.1896 64.2751 14.9256C76.9018 17.9592 87.8715 26.9608 92.8948 40.004C96.0648 48.2349 96.3937 56.8503 94.3636 64.7889C93.236 69.2696 91.3446 73.5311 88.7916 77.368C87.5322 79.2722 86.0989 81.0775 84.5259 82.7553C80.4488 87.1036 75.3568 90.6198 69.4277 92.9033Z" fill="#BF946D"/>
<path d="M15.2254 69.9169C9.29058 54.5071 12.9201 36.9235 24.45 25.1149C28.7001 20.7452 33.7739 17.4172 39.5058 15.2096C40.1763 14.9514 40.8387 14.7114 41.5112 14.4977C48.9706 12.0325 56.9519 11.7066 64.6096 13.5588C78.1335 16.8055 89.2067 26.5071 94.2098 39.4977C97.3848 47.7417 97.9172 56.6109 95.7225 65.1414C94.5484 69.7758 92.6137 74.1597 89.9565 78.1575C85.098 85.4943 78.1641 91.0486 69.9212 94.2232C69.4874 94.3903 69.0667 94.5523 68.6228 94.6931C46.967 102.278 23.4865 91.4064 15.2122 69.922L15.2254 69.9169ZM91.5805 40.5103C86.9116 28.3875 76.5862 19.3341 63.9413 16.2923C56.8026 14.5725 49.3553 14.8739 42.3794 17.1831C41.7463 17.3816 41.1365 17.6013 40.5186 17.8393C35.168 19.9 30.4449 23.0024 26.476 27.0826C15.6992 38.1029 12.3149 54.52 17.8547 68.9043C25.577 88.9556 47.4944 99.1009 67.7415 92.0128C68.1723 91.8771 68.5404 91.7353 68.9216 91.5885C76.6124 88.6265 83.0811 83.4326 87.6192 76.5966C90.0924 72.8659 91.9161 68.7815 92.9973 64.4546C95.0304 56.4846 94.5479 48.2152 91.5855 40.5235L91.5805 40.5103Z" fill="#2A243A"/>
</svg>
