<svg width="158" height="149" viewBox="0 0 158 149" fill="none" xmlns="http://www.w3.org/2000/svg">
<path d="M79 148.227C35.4268 148.227 0 114.968 0 74.1134C0 33.259 35.452 0 79 0C122.548 0 158 33.259 158 74.1134C158 114.968 122.548 148.227 79 148.227ZM79 4.71759C38.2177 4.71759 5.02864 35.8537 5.02864 74.1134C5.02864 112.373 38.2177 143.509 79 143.509C119.782 143.509 152.971 112.373 152.971 74.1134C152.971 35.8537 119.782 4.71759 79 4.71759Z" fill="#37474F"/>
<path d="M120.009 113.458C119.28 113.458 118.576 113.175 118.073 112.609C117.193 111.595 117.343 110.109 118.4 109.283C127.753 101.994 133.812 91.7336 135.422 80.4113C138.489 58.9935 124.886 38.4248 103.138 31.4663C101.83 31.0417 101.126 29.6972 101.579 28.4706C102.031 27.2441 103.439 26.5836 104.772 27.0082C128.809 34.6743 143.819 57.3895 140.425 81.0482C138.64 93.5498 131.952 104.872 121.618 112.916C121.14 113.269 120.587 113.458 120.009 113.458Z" fill="#37474F"/>
<path d="M137.476 73.9456C137.476 74.6582 137.476 75.3478 137.43 76.0603C136.327 111.942 106.854 140.698 70.692 140.698C48.4382 140.698 28.7593 129.825 16.6438 113.114C14.046 109.551 11.816 105.736 9.97689 101.713C6.09167 93.2541 3.93066 83.8527 3.93066 73.9456C3.93066 72.8193 3.95365 71.7159 4.02262 70.6126C4.64334 57.8092 8.8734 45.9713 15.7243 36.0642C27.7477 18.6177 47.8865 7.19348 70.692 7.19348C85.0834 7.19348 98.3943 11.7448 109.291 19.4911C115.452 23.8355 120.832 29.2143 125.177 35.3517C127.338 38.3858 129.246 41.6269 130.878 45.0059C135.108 53.7637 137.476 63.5788 137.476 73.9456Z" fill="#BF946D"/>
<path d="M70.6921 142.996C43.7485 142.996 19.1038 127.159 7.88497 102.678C3.72388 93.6449 1.63184 83.9677 1.63184 73.9456C1.63184 72.7733 1.65483 71.624 1.72379 70.4747C2.34451 57.6714 6.52859 45.3277 13.8392 34.7541C26.7133 16.0662 47.9786 4.8949 70.6921 4.8949C85.1065 4.8949 98.9232 9.28527 110.625 17.6293C116.993 22.1346 122.533 27.6513 127.062 34.0415C135.384 45.7415 139.775 59.5562 139.775 73.9686C139.775 74.7272 139.775 75.4627 139.729 76.2213C138.58 113.643 108.257 143.019 70.6921 143.019V142.996ZM70.6921 9.49215C49.4959 9.49215 29.656 19.9049 17.6095 37.3745C10.8046 47.2356 6.89642 58.7517 6.32168 70.7276C6.25272 71.8079 6.22973 72.8653 6.22973 73.9456C6.22973 83.301 8.18383 92.3117 12.069 100.748C22.5292 123.619 45.5417 138.399 70.6921 138.399C105.751 138.399 134.051 110.977 135.132 75.9914C135.178 75.2559 135.178 74.6122 135.178 73.9456C135.178 60.4987 131.062 47.6034 123.315 36.6849C119.085 30.7315 113.935 25.5596 107.981 21.3761C97.0381 13.6067 84.164 9.49215 70.7151 9.49215H70.6921Z" fill="#2A243A"/>
<path d="M125.177 35.3517C120.832 29.2144 115.452 23.8356 109.291 19.4912C106.578 21.3531 104.05 23.4678 101.705 25.7894C93.8882 33.6048 87.7041 44.0865 77.1979 47.5804C65.4733 51.4651 53.1739 45.1439 41.4723 41.1443C33.1731 38.294 24.4831 36.593 15.7241 36.0643C8.87324 45.9714 4.64318 57.8093 4.02246 70.6127C12.7814 68.9577 21.9542 69.3944 30.4373 72.1987C42.4608 76.1754 53.5877 84.5194 66.2319 83.8987C75.4967 83.462 83.9108 78.0832 90.4858 71.5321C97.0608 64.958 102.21 57.1427 108.211 50.0629C112.992 44.4313 118.763 39.1215 125.177 35.3517Z" fill="#E9CA85"/>
<path d="M64.8988 86.2433C56.4387 86.2433 48.7143 82.6574 41.2197 79.1865C37.4724 77.4625 33.5872 75.6466 29.725 74.3824C21.8166 71.7619 13.0806 71.2562 4.45958 72.8653C3.76989 73.0032 3.05722 72.7963 2.52846 72.3366C1.9997 71.8768 1.70084 71.1873 1.74682 70.4977C2.36754 57.6713 6.55161 45.3047 13.8623 34.754C14.322 34.0874 15.0807 33.7196 15.8853 33.7656C24.9202 34.3173 33.7941 36.0642 42.2312 38.9605C44.2773 39.6501 46.3464 40.4316 48.4384 41.2132C57.8411 44.7301 67.5656 48.3389 76.4855 45.3967C83.4973 43.0751 88.486 37.2825 93.7736 31.1452C95.7967 28.8006 97.8887 26.364 100.096 24.1573C102.579 21.6978 105.245 19.4911 108.004 17.5833C108.786 17.0316 109.843 17.0546 110.625 17.5833C117.016 22.0886 122.533 27.6053 127.062 33.9955C127.43 34.5242 127.568 35.1678 127.43 35.8114C127.292 36.432 126.901 36.9837 126.35 37.3055C120.717 40.6155 115.062 45.5346 109.981 51.511C107.774 54.1085 105.636 56.8668 103.567 59.5562C100.027 64.1535 96.3484 68.8886 92.1183 73.1181C86.44 78.7727 77.3591 85.6456 66.3472 86.1513C65.8644 86.1743 65.3816 86.1973 64.8988 86.1973V86.2433ZM14.2991 67.3715C20.0924 67.3715 25.8168 68.268 31.1733 70.0379C35.2884 71.3941 39.2886 73.256 43.1508 75.026C50.9213 78.6118 58.2319 82.0138 66.1403 81.623C75.6809 81.1633 83.7732 75.003 88.8768 69.923C92.9 65.9004 96.4634 61.2802 99.9348 56.7979C102.027 54.0855 104.211 51.2811 106.487 48.5918C111.269 42.9601 116.556 38.225 121.89 34.731C118.28 30.0189 114.073 25.8813 109.314 22.3414C107.245 23.8585 105.245 25.5825 103.36 27.4444C101.268 29.5361 99.2451 31.8807 97.268 34.1794C91.8195 40.5006 86.1641 47.0517 77.9568 49.787C67.4966 53.258 56.9905 49.3273 46.8521 45.5576C44.8061 44.799 42.783 44.0405 40.7599 43.3509C33.1044 40.7305 25.0811 39.0754 16.9199 38.4778C11.0805 47.2815 7.54016 57.3955 6.55162 67.9002C9.14942 67.5554 11.7472 67.3715 14.3221 67.3715H14.2991Z" fill="#2A243A"/>
<path d="M25.8853 108.747C20.7816 106.034 15.471 103.414 9.97656 101.713C20.5057 124.722 43.7251 140.698 70.6917 140.698C106.854 140.698 136.327 111.942 137.43 76.0603C127.43 74.888 116.901 76.4741 109.682 83.255C104.164 88.4499 101.406 95.8515 97.1066 102.081C87.3361 116.24 68.6916 123.642 51.8633 120.079C42.5986 118.102 34.2534 113.206 25.8853 108.747Z" fill="#E9CA85"/>
<path d="M70.6917 142.996C43.7481 142.996 19.1034 127.159 7.88454 102.678C7.51671 101.851 7.65465 100.886 8.25237 100.196C8.8501 99.5064 9.79267 99.2535 10.6663 99.5064C16.4826 101.299 21.9311 104.035 26.9658 106.701L29.8855 108.264C37.0582 112.126 44.4608 116.125 52.3461 117.803C68.3238 121.182 85.9567 114.172 95.2215 100.748C96.6928 98.6329 98.0262 96.2653 99.2906 93.9897C101.75 89.6453 104.302 85.14 108.096 81.5541C114.969 75.095 125.499 72.3136 137.683 73.7388C138.878 73.8767 139.752 74.9111 139.706 76.0834C138.557 113.574 108.234 142.95 70.6687 142.95L70.6917 142.996ZM14.6894 105.874C26.0692 125.803 47.4724 138.399 70.6917 138.399C105.038 138.399 132.878 112.103 135.039 78.1521C128.487 77.6694 118.372 78.2671 111.268 84.9331C107.958 88.0362 105.705 92.0588 103.314 96.2883C101.98 98.6559 100.601 101.092 99.0147 103.391C88.7384 118.309 69.1514 126.078 51.4036 122.332C42.8975 120.516 35.173 116.355 27.7244 112.333L24.8278 110.77C21.6092 109.069 18.2298 107.345 14.7124 105.874H14.6894Z" fill="#2A243A"/>
<g style="mix-blend-mode:multiply" opacity="0.2">
<path d="M84.8085 21.6288C87.6592 29.2142 72.4632 33.9724 68.6699 26.3639C64.8767 18.7785 81.9578 14.0203 84.8085 21.6288Z" fill="#2D2B39"/>
</g>
<path d="M75.8192 32.5014C72.0489 32.5014 68.3936 30.9383 66.6464 27.3984C65.428 24.9849 65.6119 22.4564 67.1522 20.2727C69.4971 16.9626 74.8996 14.9628 79.7044 15.5835C83.2448 16.0432 85.9116 17.9511 86.9691 20.8014C88.5324 24.9619 86.3254 29.1913 81.4516 31.3061C79.7044 32.0646 77.7273 32.4784 75.7962 32.4784L75.8192 32.5014ZM77.9342 20.0888C75.1295 20.0888 72.0949 21.2841 70.8995 22.9621C70.3477 23.7206 70.3018 24.4562 70.7615 25.3526C72.3478 28.5477 76.9227 28.3179 79.6355 27.1226C80.601 26.7088 83.6816 25.1228 82.6701 22.4564C82.0724 20.8703 80.4171 20.3416 79.1067 20.1807C78.7159 20.1348 78.3251 20.1118 77.9342 20.1118V20.0888Z" fill="#2A243A"/>
<g style="mix-blend-mode:multiply" opacity="0.2">
<path d="M82.9226 96.4722C81.2904 113.321 42.7141 117.16 35.9552 98.7248C33.1964 91.1623 48.3695 95.093 59.3125 94.6562C68.5542 94.3115 83.8652 86.634 82.8996 96.4722H82.9226Z" fill="#2D2B39"/>
</g>
<path d="M58.784 113.229C48.4157 113.229 37.3578 109.23 33.7945 99.5293C32.8519 96.9549 33.5186 95.2769 34.2313 94.3114C36.5762 91.1853 42.3465 91.5761 49.6572 92.0588C52.8987 92.2657 56.2552 92.4955 59.2208 92.3806C61.7956 92.2886 65.0371 91.5301 68.1867 90.8175C74.3479 89.3924 80.1412 88.0592 83.3137 90.8175C84.8081 92.1507 85.4518 94.1275 85.1989 96.702C84.3942 104.977 75.9801 111.344 63.7957 112.907C62.1634 113.114 60.4852 113.229 58.784 113.229ZM37.9096 97.0698C37.9096 97.0698 37.8866 97.3226 38.1165 97.9433C41.381 106.885 53.4274 109.597 63.221 108.356C71.4052 107.299 79.9803 103.161 80.647 96.2653C80.6929 95.6906 80.7389 94.6792 80.3021 94.2884C78.8998 93.0702 73.3133 94.3574 69.2442 95.2998C65.8877 96.0814 62.4393 96.8629 59.4277 96.9778C56.2092 97.0928 52.7378 96.8629 49.3813 96.656C45.4501 96.4032 38.8751 95.9435 37.9326 97.0698H37.9096Z" fill="#2A243A"/>
</svg>
