<?xml version="1.0" encoding="utf-8"?>
<!-- Generator: Adobe Illustrator 27.3.1, SVG Export Plug-In . SVG Version: 6.00 Build 0)  -->
<svg version="1.1" id="Layer_1" xmlns="http://www.w3.org/2000/svg" xmlns:xlink="http://www.w3.org/1999/xlink" x="0px" y="0px"
	 viewBox="0 0 1440 1619" style="enable-background:new 0 0 1440 1619;" xml:space="preserve">
<style type="text/css">
	.st0{display:none;fill:none;}
	.st1{fill:#207D85;stroke:#000000;stroke-width:2;}
	.st2{display:none;fill:#C7E7FF;stroke:#000000;stroke-width:3.7362;}
	.st3{fill:#83ACFF;stroke:#000000;stroke-width:2;}
</style>
<polyline class="st0" points="1440,117.6 0,87 0,505.2 0,575.9 "/>
<path class="st1" d="M1440,152.4v490.2c-2.3,0.7-4.5,1.4-6.8,2.1c-1.3,0.4-2.6,0.9-3.9,1.2c-1.5,0.5-3,1-4.5,1.5
	c-1.4,0.4-2.8,1-4.2,1.4c-1.4,0.4-2.8,1-4.1,1.4c-1.4,0.4-2.8,1-4.1,1.4c-1.6,0.5-3.2,1-4.7,1.7c-1.1,0.4-2.2,0.8-3.4,1.2
	c-3.6,1.3-7.2,2.6-10.8,3.9c-3,1.1-5.9,2.3-8.9,3.4c-1.3,0.5-2.6,1-3.8,1.5c-2.5,1-5,2-7.5,3c-1.2,0.5-2.5,1-3.7,1.5s-2.4,1-3.7,1.5
	c-1.2,0.5-2.4,1-3.6,1.5l0,0c-1.2,0.5-2.3,1-3.5,1.5c-1.4,0.6-2.9,1.2-4.3,1.8c-1,0.4-1.9,0.9-2.9,1.2
	c-12.8,5.6-24.8,11.3-36.1,17.1c-1,0.5-2,1-3.1,1.6c-1,0.5-2,1-3,1.6c-3,1.6-5.9,3.1-8.8,4.7c-1,0.5-1.9,1-2.8,1.6s-1.9,1-2.8,1.6
	s-1.9,1-2.8,1.6c-10.1,5.8-19.4,11.5-27.9,17.2c-0.6,0.4-1.3,0.9-1.9,1.2c-1,0.6-1.9,1.3-2.8,1.9c-0.7,0.4-1.4,1-2.1,1.4
	c-0.7,0.5-1.5,1-2.2,1.6c-0.8,0.5-1.6,1.1-2.3,1.7c-0.6,0.4-1.3,0.9-1.9,1.4c-1.8,1.3-3.6,2.7-5.4,4c-0.7,0.5-1.4,1-2.1,1.6
	c-0.7,0.5-1.3,1-2,1.6c-2.6,2.1-5.2,4.1-7.6,6.1c-85.9,72.3-223.8,104.8-355.4,102.9c-131.6-1.9-256.3-38.1-315.9-102.5l-0.7-0.7
	h-0.1c-30-32.1-58-46.4-85.5-49.6c-27.6-3.3-54.4,4.5-81.4,15.7c-10.5,4.4-21.2,9.2-32,14.1c-3.1,1.4-6.1,2.8-9.2,4.2
	c-14,6.4-28.3,12.6-43.1,17.9c-12.1,4.3-24.6,7.9-37.5,10.4c-1.5,0.3-3,0.6-4.6,0.8c-9.9,1.7-20.1,2.6-30.6,2.6
	c-7.6,0-15.4-0.5-23.4-1.6c-34.9-4.7-70.7-24.8-105-52.4c-34.3-27.6-66.8-62.8-95-97.3c-1.3-1.6-2.5-3.1-3.8-4.7
	c-1.3-1.6-2.5-3.1-3.8-4.7c-0.9-1.1-1.9-2.4-2.8-3.5c-0.3-0.4-0.6-0.8-0.9-1.2c-1.1-1.4-2.2-2.8-3.3-4.2v-0.3v-438
	C219.2,112,462.8,89.3,719.5,89.3C976.6,88.8,1220.6,111.6,1440,152.4z"/>
<path class="st2" d="M1440,371.7v264.2c-97.7,34.6-167.4,80-205.9,117.1c-85.9,82.9-223.8,120.1-355.4,118
	c-131.6-2.2-256.3-43.7-315.9-117.5l-0.7-0.8H562c-30-36.8-58-53.2-85.5-56.9c-27.6-3.8-54.4,5.2-81.4,18c-10.5,5-21.2,10.5-32,16.2
	c-3.1,1.6-6.1,3.2-9.2,4.8c-14,7.3-28.3,14.4-43.1,20.5c-22.8,9.3-46.8,15.8-72.6,15.8c-7.6,0-15.4-0.6-23.4-1.8
	c-34.9-5.4-70.7-28.4-105-60.1c-34.3-31.7-66.8-72-95-111.6c-5-7.4-10-14.6-14.8-21.7v-70.7c11.4,19.3,25.4,40.9,41.8,62.7
	c50.9,67.7,125.4,137.4,219,143.5c5.2,0.3,11.5-0.7,18.5-2.6c7.1-2,15-4.9,23.5-8.5c16.9-7.2,36-17.2,54.4-27.7
	c31.9-18.1,62-37.7,75.9-46.7c2.1-1.4,3.9-2.5,5.2-3.4c29.6-19,54.3-27.9,76.9-29.3c22.5-1.5,43.1,4.4,64.5,15.5
	s43.5,27.2,69.2,46.1c0.9,0.6,1.7,1.3,2.6,1.9c12.5,9.2,25.8,19,40.3,29.2s30,20.6,47,31.1c37.1,22.9,72.1,33.3,106,33.8
	s66.5-8.7,98.8-24.7c58.6-29,116.6-80.5,180-136.6c6.4-5.7,12.9-11.4,19.4-17.2C1227,497.8,1321.5,418.2,1440,371.7z"/>
<path class="st3" d="M1142.8,588.9C1227,514.6,1321.5,435,1440,388.6v264.2c-2.3,0.8-4.5,1.6-6.8,2.4c-1.3,0.5-2.6,1-3.9,1.4
	c-1.5,0.6-3,1.1-4.5,1.7c-1.4,0.5-2.8,1.1-4.2,1.6c-1.4,0.5-2.8,1.1-4.1,1.6c-1.4,0.5-2.8,1.1-4.1,1.6c-1.6,0.6-3.2,1.2-4.7,1.9
	c-1.1,0.5-2.2,0.9-3.4,1.4c-3.6,1.5-7.2,3-10.8,4.5c-3,1.3-5.9,2.6-8.9,3.9c-1.3,0.6-2.6,1.1-3.8,1.7c-2.5,1.1-5,2.3-7.5,3.4
	c-1.2,0.6-2.5,1.1-3.7,1.7c-1.2,0.6-2.4,1.2-3.7,1.7c-1.2,0.6-2.4,1.2-3.6,1.7l0,0c-1.2,0.6-2.3,1.1-3.5,1.7
	c-1.4,0.7-2.9,1.4-4.3,2.1c-1,0.5-1.9,1-2.9,1.4c-12.8,6.4-24.8,13-36.1,19.6c-1,0.6-2,1.2-3.1,1.8c-1,0.6-2,1.2-3,1.8
	c-3,1.8-5.9,3.6-8.8,5.4c-1,0.6-1.9,1.2-2.8,1.8s-1.9,1.2-2.8,1.8s-1.9,1.2-2.8,1.8c-10.1,6.6-19.4,13.2-27.9,19.7
	c-0.6,0.5-1.3,1-1.9,1.4c-1,0.7-1.9,1.5-2.8,2.2c-0.7,0.5-1.4,1.1-2.1,1.6c-0.7,0.6-1.5,1.2-2.2,1.8c-0.8,0.6-1.6,1.3-2.3,1.9
	c-0.6,0.5-1.3,1-1.9,1.6c-1.8,1.5-3.6,3.1-5.4,4.6c-0.7,0.6-1.4,1.2-2.1,1.8s-1.3,1.2-2,1.8c-2.6,2.4-5.2,4.7-7.6,7
	c-85.9,82.9-223.8,120.1-355.4,118c-131.6-2.2-256.3-43.7-315.9-117.5l-0.7-0.8h-0.1c-30-36.8-58-53.2-85.5-56.9
	c-27.6-3.8-54.4,5.2-81.4,18c-10.5,5-21.2,10.5-32,16.2c-3.1,1.6-6.1,3.2-9.2,4.8c-14,7.3-28.3,14.4-43.1,20.5
	c-12.1,4.9-24.6,9.1-37.5,11.9c-1.5,0.3-3,0.7-4.6,0.9c-9.9,1.9-20.1,3-30.6,3c-7.6,0-15.4-0.6-23.4-1.8
	c-34.9-5.4-70.7-28.4-105-60.1c-34.3-31.7-66.8-72-95-111.6c-1.3-1.8-2.5-3.6-3.8-5.4c-1.3-1.8-2.5-3.6-3.8-5.4
	c-0.9-1.3-1.9-2.7-2.8-4c-0.3-0.5-0.6-0.9-0.9-1.4c-1.1-1.6-2.2-3.2-3.3-4.8v-0.5V522c11.4,19.3,25.4,40.9,41.8,62.7
	c50.9,67.7,125.4,137.4,219,143.5c5.2,0.3,11.5-0.7,18.5-2.6c7.1-2,15-4.9,23.5-8.5c16.9-7.2,36-17.2,54.4-27.7
	c31.9-18.1,62-37.7,75.9-46.7c2.1-1.4,3.9-2.5,5.2-3.4c29.6-19,54.3-27.9,76.9-29.3c22.5-1.5,43.1,4.4,64.5,15.5
	s43.5,27.2,69.2,46.1c0.9,0.6,1.7,1.3,2.6,1.9c12.5,9.2,25.8,19,40.3,29.2c14.5,10.1,30,20.6,47,31.1c37.1,22.9,72.1,33.3,106,33.8
	s66.5-8.7,98.8-24.7c58.6-29,116.6-80.5,180-136.6C1129.8,600.4,1136.3,594.7,1142.8,588.9z"/>
</svg>
