<svg width="47" height="55" viewBox="0 0 47 55" fill="none" xmlns="http://www.w3.org/2000/svg">
<path d="M35.2062 43.0747C35.1792 42.5553 35.1453 42.2317 35.1453 41.9081C35.1453 32.9725 35.1182 24.0341 35.1758 15.0985C35.1826 13.9618 34.8272 13.2575 33.4327 12.923C32.6577 12.7354 31.9266 12.4308 30.9992 12.1208C30.9383 12.6321 30.8605 12.9747 30.8571 13.3201C30.8469 16.227 30.83 19.1366 30.8673 22.0436C30.8774 22.7696 30.5796 23.1993 29.7605 23.5501C27.9667 24.3169 26.2169 25.1599 24.4772 26.0056C23.6412 26.4135 22.9203 26.4543 22.081 25.9811C21.2957 25.5379 20.4056 25.2143 19.3192 24.7303V46.7784C17.9924 46.1557 16.8958 45.7151 15.9279 45.1386C15.6503 44.9728 15.6672 44.4153 15.6639 44.0373C15.6503 35.8876 15.6537 27.7405 15.6537 19.5908C15.6537 17.4996 15.6537 15.4112 15.6537 13.3201C15.6537 12.9965 15.6165 12.6729 15.5826 12.1426C14.2863 12.5967 13.1221 12.9312 12.0729 13.418C11.7513 13.5675 11.6024 14.1413 11.599 14.522C11.5618 17.5513 11.5753 20.5806 11.5753 23.6099C11.5753 29.6685 11.5753 35.7271 11.5686 41.7857C11.5686 42.1664 11.511 42.5444 11.4636 43.1508C10.2418 42.577 9.17906 42.142 8.22462 41.5872C7.96739 41.4377 7.96401 40.9264 7.96401 40.5838C7.94709 34.8569 7.95385 29.1328 7.95047 23.406C7.95047 23.0552 7.95047 22.7071 7.95047 22.0817C6.4545 22.7017 5.19883 23.1612 4.04132 23.7459C3.75701 23.89 3.69948 24.4475 3.69609 24.8146C3.67578 29.2688 3.68255 33.7203 3.68255 38.1745C3.68255 38.528 3.68255 38.8815 3.68255 39.235C3.5844 39.2921 3.48625 39.352 3.3881 39.4091C2.3355 38.8163 1.25245 38.2506 0.247236 37.6062C0.0306252 37.4675 0.0340097 37.0433 0.0340097 36.7523C0.0204715 32.5727 0.0340097 28.3904 0.0137024 24.2109C0.0103179 23.5827 0.287851 23.2102 0.998606 22.9382C3.4964 21.9783 5.58467 20.5969 7.11787 18.7478C7.56802 18.2066 7.79817 17.4996 7.91662 16.8443C8.05201 16.1019 8.01816 15.3269 7.93355 14.5764C7.82186 13.6219 8.40738 13.1487 9.32798 12.6158C11.1726 11.5444 12.8987 10.3288 14.5943 9.0997C15.4269 8.49601 15.7688 7.6639 15.6774 6.71215C15.5928 5.83925 15.6909 4.95548 15.6469 4.07714C15.6199 3.49793 15.8534 3.1281 16.5134 2.83714C18.4933 1.96152 20.4191 1.00433 22.4194 0.155904C22.8594 -0.0317276 23.6209 -0.0589206 24.0508 0.123273C26.0849 0.979854 28.0818 1.89898 30.0279 2.87793C30.4408 3.08731 30.7623 3.62574 30.8199 4.03907C30.9383 4.90653 30.9045 5.79574 30.8436 6.67136C30.7759 7.64759 31.2057 8.4525 31.9842 9.1568C33.541 10.5654 35.1724 11.9169 37.3385 12.73C38.3979 13.127 38.8852 13.7334 38.76 14.6743C38.7093 15.0631 38.8243 15.471 38.7397 15.8544C38.3166 17.8069 39.3963 19.2862 41.1224 20.4773C42.5135 21.4372 44.0399 22.2829 45.5799 23.0824C46.1993 23.4032 46.5039 23.7078 46.5039 24.2924C46.4903 28.4421 46.4869 32.5918 46.5039 36.7441C46.5039 37.3587 46.2399 37.7748 45.59 38.0875C44.8556 38.4383 44.1516 38.838 43.2276 39.3248C43.1565 38.77 43.0719 38.4029 43.0719 38.0358C43.0618 33.674 43.0449 29.3123 43.0855 24.9478C43.0922 24.1456 42.8384 23.6507 41.8366 23.3652C40.8618 23.0878 39.9548 22.6581 38.8311 22.2231C38.7973 22.7832 38.7566 23.1639 38.7566 23.5446C38.7533 29.1192 38.7228 34.6938 38.7803 40.2656C38.7905 41.1929 38.4317 41.7341 37.4028 42.0957C36.7225 42.3323 36.0964 42.6749 35.2096 43.0774L35.2062 43.0747ZM27.2424 13.1922H27.239C27.239 10.7693 27.2187 8.34373 27.2526 5.92083C27.2627 5.2682 26.9852 4.86574 26.2778 4.53126C23.3671 3.15258 23.3772 3.13626 20.4767 4.49863C20.4124 4.52855 20.3481 4.56662 20.2804 4.58565C19.4986 4.82495 19.2718 5.27363 19.2786 5.93715C19.309 10.6932 19.3124 15.452 19.2752 20.2081C19.2684 20.9504 19.6102 21.361 20.3718 21.7281C23.3299 23.1558 23.3062 23.1558 26.2406 21.7472C26.9784 21.3937 27.2762 20.9749 27.2661 20.2842C27.2221 17.9211 27.2492 15.558 27.2492 13.195L27.2424 13.1922Z" fill="black"/>
<path d="M0.0205269 41.0162C2.06141 41.9462 3.7943 42.7267 5.51703 43.5262C11.2302 46.1748 16.9331 48.8424 22.6699 51.4584C23.0388 51.627 23.7699 51.5427 24.1794 51.3577C29.8181 48.7853 35.4263 46.1748 41.048 43.5778C42.7369 42.7974 44.436 42.0387 46.4193 41.1413C46.4193 42.3433 46.487 43.3222 46.3719 44.2848C46.3415 44.5377 45.7695 44.7906 45.3904 44.9674C39.5555 47.6894 33.7103 50.3978 27.8686 53.109C26.596 53.6991 25.3539 54.3435 24.0407 54.8684C23.6176 55.037 22.8933 55.0506 22.4939 54.8684C15.3187 51.5889 8.18068 48.2577 1.0122 44.9674C0.243907 44.6139 -0.0505486 44.2087 0.00698871 43.5207C0.0712951 42.7756 0.0205269 42.0251 0.0205269 41.0162Z" fill="black"/>
</svg>
