<svg width="104" height="174" viewBox="0 0 104 174" fill="none" xmlns="http://www.w3.org/2000/svg">
<path d="M58.0602 120.306C58.0602 120.306 73.8855 158.682 20.7577 171.885C-4.63727 130.016 28.4905 110.828 28.4905 110.828" fill="#F4D048"/>
<path d="M20.7578 173.17C20.3211 173.17 19.8972 172.938 19.666 172.553C10.9055 158.104 8.01535 144.696 11.0725 132.713C15.016 117.301 27.3346 110.031 27.8484 109.723C28.4649 109.363 29.2485 109.582 29.6082 110.185C29.9678 110.802 29.7495 111.585 29.1457 111.945C29.0301 112.009 17.2125 119.035 13.5516 133.394C10.7385 144.452 13.3718 156.897 21.3744 170.408C38.7026 165.939 50.2119 158.284 55.594 147.663C62.3121 134.408 56.9299 120.935 56.8786 120.807C56.6088 120.152 56.9171 119.407 57.5722 119.137C58.2273 118.868 58.9723 119.176 59.2421 119.831C59.4861 120.422 65.1252 134.472 57.8933 148.793C52.0616 160.326 39.6788 168.52 21.0661 173.144C20.9633 173.17 20.8606 173.183 20.7578 173.183V173.17Z" fill="#2A243A"/>
<path d="M50.9308 118.02C50.9308 118.02 59.7684 139.456 30.0959 146.828C15.9019 123.44 34.4119 112.729 34.4119 112.729" fill="#E85372"/>
<path d="M30.0963 148.125C29.6596 148.125 29.2357 147.894 28.9916 147.509C24.0077 139.302 22.3763 131.66 24.1233 124.814C26.384 115.978 33.4618 111.791 33.7572 111.624C34.3738 111.264 35.1573 111.483 35.517 112.086C35.8767 112.703 35.6583 113.486 35.0546 113.846C34.9903 113.884 28.5806 117.699 26.6024 125.495C25.0995 131.416 26.474 138.094 30.7 145.364C39.9743 142.898 46.14 138.762 49.0302 133.073C52.6653 125.906 49.7623 118.598 49.7366 118.521C49.4669 117.866 49.788 117.121 50.4431 116.851C51.0982 116.582 51.8433 116.89 52.113 117.545C52.2543 117.879 55.5041 125.97 51.3423 134.203C48.0025 140.791 40.9634 145.466 30.4046 148.099C30.3018 148.125 30.1991 148.138 30.0963 148.138V148.125Z" fill="#2A243A"/>
<path d="M101.785 105.485C100.783 106.949 95.1316 107.18 88.8888 106.936C80.1669 106.615 70.3018 105.382 70.3018 105.382L79.8329 52.3644C79.8329 52.3644 88.6319 70.2681 95.1316 85.3335C99.4476 95.3385 102.749 104.085 101.785 105.485Z" fill="#B05500"/>
<g style="mix-blend-mode:multiply" opacity="0.2">
<path d="M95.1316 85.3335C93.7057 92.6671 91.5477 99.9108 88.8888 106.936C80.1669 106.615 70.3018 105.382 70.3018 105.382L79.8329 52.3644C79.8329 52.3644 88.6319 70.2681 95.1316 85.3335Z" fill="#2D2B39"/>
</g>
<path d="M92.0616 108.323C84.6628 108.323 75.35 107.309 70.1348 106.666C69.4283 106.577 68.9274 105.934 69.0173 105.228C69.1072 104.522 69.7495 104.008 70.4559 104.111C87.3217 106.204 99.1522 106.101 100.681 104.804C101.195 101.388 89.9678 75.8807 78.6769 52.9295C78.3686 52.2873 78.6255 51.5167 79.2678 51.2085C79.8972 50.9003 80.6679 51.1571 80.989 51.7993C81.0532 51.9277 87.1547 64.373 92.8965 77.088C104.778 103.43 103.571 105.189 102.852 106.23C101.76 107.797 97.4052 108.336 92.0616 108.336V108.323Z" fill="#2A243A"/>
<path d="M50.0448 42.8087L26.9748 91.511C26.9748 91.511 16.66 85.9241 9.10706 80.7482C4.714 77.73 1.25863 74.8531 1.28432 73.2862C1.31001 71.5909 9.01714 66.4406 18.2914 60.8281C32.3569 52.3385 50.0448 42.8087 50.0448 42.8087Z" fill="#B05500"/>
<g style="mix-blend-mode:multiply" opacity="0.2">
<path d="M18.2917 60.8281C32.3573 52.3385 50.0451 42.8087 50.0451 42.8087L26.9751 91.511C26.9751 91.511 16.6604 85.9241 9.10742 80.7482C11.5737 73.8513 14.6566 67.1856 18.2917 60.8281Z" fill="#2D2B39"/>
</g>
<path d="M26.9752 92.7954C26.7697 92.7954 26.5642 92.7441 26.3586 92.6413C18.4074 88.3388 -0.076831 77.8329 0.000240275 73.2734C0.0259307 72.0019 0.0516197 69.8828 25.0356 55.344C37.0972 48.3315 49.3002 41.7556 49.4286 41.6914C50.058 41.3575 50.8288 41.5887 51.1627 42.218C51.4967 42.8473 51.2655 43.6179 50.6361 43.9518C28.0927 56.0889 4.12356 70.3194 2.56928 73.389C3.03171 75.3027 12.6014 82.2767 27.5661 90.3809C28.1955 90.7148 28.4267 91.4983 28.0799 92.1276C27.8487 92.5514 27.4119 92.7954 26.9495 92.7954H26.9752Z" fill="#2A243A"/>
<path d="M68.2478 101.696L64.4327 123.684C64.4327 123.684 55.7365 127.087 42.4546 123.003C27.6954 118.469 22.583 110.648 22.583 110.648L34.2722 90.8047" fill="#B05500"/>
<path d="M55.2608 126.304C51.677 126.304 47.2069 125.803 42.0688 124.223C27.0399 119.6 21.7219 111.675 21.5036 111.341C21.2338 110.93 21.221 110.404 21.4779 109.993L33.167 90.1497C33.5267 89.5332 34.3103 89.3406 34.9268 89.7002C35.5434 90.0599 35.7361 90.8433 35.3764 91.4598L24.124 110.558C25.6654 112.433 31.1246 118.174 42.8266 121.77C53.4368 125.033 61.0668 123.337 63.3019 122.695L66.9885 101.478C67.1041 100.784 67.772 100.309 68.4785 100.437C69.1722 100.553 69.6474 101.221 69.519 101.927L65.704 123.915C65.6269 124.352 65.3315 124.724 64.9076 124.891C64.6763 124.981 61.1568 126.317 55.2737 126.317L55.2608 126.304Z" fill="#2A243A"/>
<path d="M17.3799 94.8376C17.3799 94.8376 43.0318 121.899 79.6278 114.783C79.6278 114.783 87.6304 67.8663 86.4615 34.3706C85.8834 17.7769 83.0703 4.47113 75.9027 1.77401C68.7351 -0.923111 59.859 8.43974 51.227 22.1308C33.8346 49.6929 17.3799 94.8376 17.3799 94.8376Z" fill="#FF9EEA"/>
<path d="M67.4634 117.237C37.2386 117.237 16.6734 95.955 16.4422 95.711C16.1082 95.3642 16.0055 94.8505 16.1725 94.3881C16.3395 93.9386 32.8841 48.8067 50.1481 21.4374C60.694 4.7152 69.2617 -2.11749 76.3651 0.566789C83.3273 3.18685 87.0524 14.2322 87.746 34.3193C88.9149 67.5581 80.9766 114.527 80.8995 115.002C80.8096 115.528 80.3986 115.939 79.8847 116.042C75.5944 116.877 71.4583 117.249 67.4763 117.249L67.4634 117.237ZM18.87 94.5037C22.7492 98.254 46.4101 119.458 78.5103 113.679C79.5893 107.077 86.2431 64.8739 85.177 34.4092C84.5347 16.0046 81.1821 5.1262 75.4531 2.96851C69.8398 0.849338 61.8372 7.70773 52.3061 22.8116C36.4294 47.9847 21.1179 88.4287 18.8571 94.5037H18.87Z" fill="#2A243A"/>
<path d="M45.8057 56.7953C43.3394 64.4757 47.5783 72.6955 55.2597 75.1614C62.9412 77.6274 71.1621 73.389 73.6284 65.7087C76.0947 58.0283 71.8558 49.8085 64.1743 47.3426C56.4929 44.8766 48.2719 49.1149 45.8057 56.7953Z" fill="#63A1F1"/>
<path d="M59.7047 77.1393C58.099 77.1393 56.4677 76.8952 54.862 76.3815C50.8158 75.0843 47.5274 72.2973 45.5878 68.5213C43.6481 64.7454 43.2885 60.4428 44.5859 56.3971C45.8832 52.3514 48.6706 49.0635 52.4471 47.1113C56.2236 45.172 60.5268 44.8124 64.573 46.1095C68.6192 47.4067 71.9076 50.1938 73.8473 53.9697C75.7869 57.7457 76.1465 62.0483 74.8492 66.0939C72.6912 72.8239 66.4356 77.1393 59.7047 77.1393ZM59.7047 47.9205C57.6109 47.9205 55.5428 48.4214 53.6289 49.3975C50.469 51.0286 48.1183 53.7899 47.0393 57.1806C45.9474 60.5713 46.2557 64.1803 47.8742 67.3397C49.5056 70.4992 52.2673 72.8367 55.6584 73.9284C62.6591 76.1632 70.1735 72.2973 72.4086 65.3105C73.5004 61.9198 73.1922 58.3108 71.5737 55.1513C69.9423 51.9918 67.1806 49.6543 63.7894 48.5626C62.4535 48.1388 61.0791 47.9205 59.7047 47.9205Z" fill="#2A243A"/>
<path d="M52.6137 58.9787C51.3549 62.896 53.5129 67.1086 57.4436 68.3544C61.3613 69.6131 65.5617 67.4554 66.8206 63.5253C68.0794 59.5952 65.9214 55.4082 61.9908 54.1496C58.0601 52.8909 53.8597 55.0486 52.6137 58.9787Z" fill="#A3C8F6"/>
<path d="M59.7045 69.9983C58.8182 69.9983 57.9318 69.8699 57.0455 69.5745C54.8233 68.8681 53.0121 67.3269 51.9331 65.2463C50.867 63.1656 50.6743 60.8025 51.3808 58.5805C52.0873 56.3586 53.6287 54.5477 55.7096 53.4688C57.7905 52.4028 60.1541 52.1973 62.3763 52.9166C64.5985 53.623 66.4097 55.1642 67.4887 57.2448C68.5548 59.3254 68.7475 61.6886 68.041 63.9106C66.8593 67.6223 63.4039 69.9855 59.7045 69.9855V69.9983ZM59.7045 55.0743C58.7411 55.0743 57.7777 55.3055 56.8914 55.7678C55.427 56.5256 54.3352 57.7971 53.8342 59.3768C53.3333 60.9437 53.4746 62.6262 54.2196 64.0904C54.9774 65.5545 56.2491 66.6462 57.8291 67.1471C61.0789 68.1874 64.56 66.3893 65.6004 63.1528C66.1014 61.5859 65.9601 59.9034 65.2151 58.4392C64.4572 56.9751 63.1855 55.8834 61.6056 55.3825C60.989 55.177 60.3467 55.0871 59.7173 55.0871L59.7045 55.0743Z" fill="#2A243A"/>
<path d="M43.0444 88.8268C41.7856 92.7441 43.9436 96.9439 47.8742 98.2026C51.8048 99.4612 55.9924 97.3035 57.2512 93.3734C58.5101 89.4562 56.3521 85.2435 52.4214 83.9977C48.5036 82.7391 44.3032 84.8967 43.0444 88.8268Z" fill="#F4D048"/>
<path d="M50.148 99.8465C49.2617 99.8465 48.3754 99.7181 47.4891 99.4227C42.9033 97.9457 40.36 93.0138 41.8243 88.4287C43.3015 83.8307 48.2341 81.3006 52.8198 82.7647C57.4184 84.2417 59.9489 89.1736 58.4846 93.7587C57.3028 97.4705 53.8474 99.8337 50.148 99.8337V99.8465ZM44.2778 89.2122C43.2373 92.4616 45.0356 95.9421 48.2726 96.9824C51.5225 98.0227 55.0035 96.2247 56.044 92.9881C57.0844 89.7516 55.2861 86.2582 52.0491 85.2178C48.8121 84.1775 45.3182 85.9756 44.2778 89.2122Z" fill="#2A243A"/>
<path d="M51.2266 22.131C61.9395 32.38 76.005 34.512 86.461 34.3708C85.883 17.777 83.0699 4.47126 75.9022 1.77413C68.7346 -0.922989 59.8585 8.43987 51.2266 22.131Z" fill="#B05500"/>
<path d="M85.5234 35.6551C75.26 35.6551 61.1432 33.3946 50.3403 23.0557C49.9036 22.6318 49.8137 21.964 50.1476 21.4374C60.6936 4.71523 69.2742 -2.10462 76.3647 0.566819C83.3268 3.18688 87.0519 14.2322 87.7456 34.3194C87.7456 34.6661 87.63 35.0001 87.3859 35.2441C87.1419 35.5009 86.8207 35.6422 86.4739 35.6422C86.1656 35.6422 85.8445 35.6422 85.5234 35.6422V35.6551ZM52.8837 21.9126C62.8387 30.9287 75.6197 33.0222 85.1252 33.0864C84.3801 15.478 81.0404 5.07486 75.4527 2.96854C69.9421 0.900742 62.1579 7.43807 52.8837 21.9126Z" fill="#2A243A"/>
</svg>
