<svg width="144" height="252" viewBox="0 0 144 252" fill="none" xmlns="http://www.w3.org/2000/svg">
<path d="M79.4993 0C81.769 0 84.1016 0 86.4343 0C86.4343 0.823116 86.4343 1.64623 86.4343 2.53266C86.8756 2.53266 87.2538 2.53266 87.6952 2.53266C87.6952 3.799 87.6952 5.06533 87.6952 6.33166C88.1365 6.33166 88.5147 6.33166 88.956 6.33166C88.956 8.86432 88.956 11.3337 88.956 13.9296C91.0365 13.9296 93.117 13.9296 95.2605 13.9296C95.2605 13.4864 95.2605 13.1065 95.2605 12.6633C98.9801 12.6633 102.763 12.6633 106.609 12.6633C106.609 12.2201 106.609 11.8402 106.609 11.397C110.77 11.397 114.93 11.397 119.217 11.397C119.217 10.9538 119.217 10.5739 119.217 10.1307C124.198 10.1307 129.179 10.1307 134.348 10.1307C134.348 13.6764 134.348 17.2221 134.348 20.8945C134.79 20.8945 135.168 20.8945 135.609 20.8945C135.609 23.997 135.609 27.1628 135.609 30.392C136.429 30.5819 137.248 30.8352 138.131 31.0251C138.131 35.6472 138.131 40.206 138.131 44.9548C138.572 44.9548 138.95 44.9548 139.392 44.9548C139.392 47.6774 139.392 50.4 139.392 53.1859C139.833 53.1859 140.211 53.1859 140.653 53.1859C140.653 55.7186 140.653 58.1879 140.653 60.7839C141.094 60.7839 141.472 60.7839 141.914 60.7839C141.914 63.8864 141.914 67.0523 141.914 70.2814C141.094 70.2814 140.274 70.2814 139.392 70.2814C139.392 70.7246 139.392 71.1045 139.392 71.5477C137.311 71.5477 135.231 71.5477 133.087 71.5477C133.087 71.991 133.087 72.3709 133.087 72.8141C123.694 72.8141 114.363 72.8141 104.717 72.8141C104.717 73.2573 104.717 73.6372 104.717 74.0804C100.115 74.0804 95.5757 74.0804 90.8474 74.0804C90.8474 74.5236 90.8474 74.9035 90.8474 75.3467C89.3974 75.3467 87.9473 75.3467 86.4343 75.3467C86.4343 77.6261 86.4343 79.9688 86.4343 82.3116C103.519 82.3116 120.541 82.3116 138.131 82.3116C138.131 86.6804 138.131 91.1126 138.131 95.608C138.95 95.608 139.77 95.608 140.653 95.608C140.653 102.32 140.653 108.968 140.653 115.869C141.094 115.869 141.472 115.869 141.914 115.869C141.914 116.313 141.914 116.692 141.914 117.136C142.355 117.136 142.733 117.136 143.174 117.136C143.174 123.847 143.174 130.495 143.174 137.397C142.733 137.397 142.355 137.397 141.914 137.397C141.914 138.663 141.914 139.93 141.914 141.196C141.472 141.196 141.094 141.196 140.653 141.196C140.653 141.639 140.653 142.019 140.653 142.462C135.483 142.462 130.25 142.462 124.892 142.462C124.892 142.906 124.892 143.285 124.892 143.729C117.831 143.729 110.77 143.729 103.456 143.729C103.456 144.172 103.456 144.552 103.456 144.995C97.8453 144.995 92.2344 144.995 86.4343 144.995C86.4343 163.8 86.4343 182.605 86.4343 201.98C86.8756 201.98 87.2538 201.98 87.6952 201.98C87.6952 214.327 87.6952 226.61 87.6952 239.337C87.2538 239.337 86.8756 239.337 86.4343 239.337C86.4343 240.603 86.4343 241.869 86.4343 243.136C85.9929 243.136 85.6147 243.136 85.1734 243.136C85.1734 243.579 85.1734 243.959 85.1734 244.402C84.7321 244.402 84.3538 244.402 83.9125 244.402C83.9125 244.845 83.9125 245.225 83.9125 245.668C83.4712 245.668 83.0929 245.668 82.6516 245.668C82.6516 246.491 82.6516 247.315 82.6516 248.201C82.2103 248.201 81.832 248.201 81.3907 248.201C81.3907 248.644 81.3907 249.024 81.3907 249.467C80.9494 249.467 80.5711 249.467 80.1298 249.467C80.1298 249.911 80.1298 250.29 80.1298 250.734C79.3102 250.734 78.4906 250.734 77.608 250.734C77.608 251.177 77.608 251.557 77.608 252C75.7167 252 73.8884 252 71.934 252C71.934 251.557 71.934 251.177 71.934 250.734C71.4927 250.734 71.1144 250.734 70.6731 250.734C70.6731 250.29 70.6731 249.911 70.6731 249.467C70.2318 249.467 69.8535 249.467 69.4122 249.467C69.4122 249.024 69.4122 248.644 69.4122 248.201C68.5926 248.201 67.773 248.201 66.8904 248.201C66.8904 247.758 66.8904 247.378 66.8904 246.935C66.4491 246.935 66.0708 246.935 65.6295 246.935C65.6295 246.491 65.6295 246.112 65.6295 245.668C65.1882 245.668 64.8099 245.668 64.3686 245.668C64.3686 245.225 64.3686 244.845 64.3686 244.402C63.9273 244.402 63.549 244.402 63.1077 244.402C63.1077 243.959 63.1077 243.579 63.1077 243.136C62.6664 243.136 62.2881 243.136 61.8468 243.136C61.8468 242.692 61.8468 242.313 61.8468 241.869C61.4055 241.869 61.0272 241.869 60.5859 241.869C60.5859 241.046 60.5859 240.223 60.5859 239.337C60.1446 239.337 59.7664 239.337 59.325 239.337C59.325 238.514 59.325 237.69 59.325 236.804C58.8837 236.804 58.5055 236.804 58.0641 236.804C56.9924 233.955 56.6772 231.612 56.6772 228.573C56.6772 228.13 56.6772 227.75 56.6772 227.307C56.6772 225.914 56.6772 224.521 56.6772 223.128C56.6772 222.178 56.6772 221.165 56.6772 220.215C56.6772 217.682 56.6772 215.086 56.6772 212.554C56.6772 209.958 56.6772 207.362 56.6772 204.703C56.6772 199.574 56.7402 194.445 56.7402 189.38C57.1815 189.38 57.5598 189.38 58.0011 189.38C58.0011 174.754 58.0011 160.128 58.0011 145.058C42.1769 145.058 26.3527 145.058 10.0871 145.058C10.0871 144.615 10.0871 144.235 10.0871 143.792C9.26757 143.792 8.44799 143.792 7.56536 143.792C7.56536 143.349 7.56536 142.969 7.56536 142.526C6.74578 142.526 5.9262 142.526 5.04357 142.526C5.04357 142.082 5.04357 141.703 5.04357 141.259C4.60226 141.259 4.22399 141.259 3.78268 141.259C3.78268 135.814 3.78268 130.369 3.78268 124.797C4.22399 124.797 4.60226 124.797 5.04357 124.797C5.04357 115.616 5.04357 106.435 5.04357 96.9377C5.48489 96.9377 5.86316 96.9377 6.30447 96.9377C6.30447 94.6583 6.30447 92.3156 6.30447 89.9729C6.74578 89.9729 7.12405 89.9729 7.56536 89.9729C7.56536 88.7065 7.56536 87.4402 7.56536 86.1739C9.20452 86.1739 10.9067 86.1739 12.6089 86.1739C12.6089 85.7307 12.6089 85.3508 12.6089 84.9075C17.7786 84.9075 23.0113 84.9075 28.3701 84.9075C28.3701 84.4643 28.3701 84.0844 28.3701 83.6412C36.692 83.6412 45.0139 83.6412 53.588 83.6412C53.588 83.198 53.588 82.8181 53.588 82.3749C55.4793 82.3749 57.3076 82.3749 59.262 82.3749C59.262 80.9186 59.262 79.4623 59.262 77.9427C58.2533 77.9427 57.1815 77.9427 56.1098 77.9427C56.1098 78.3859 56.1098 78.7658 56.1098 79.2091C52.5793 79.2091 49.0488 79.2091 45.3922 79.2091C45.3922 79.6523 45.3922 80.0322 45.3922 80.4754C42.4921 80.4754 39.5921 80.4754 36.5659 80.4754C36.5659 80.9186 36.5659 81.2985 36.5659 81.7417C33.6659 81.7417 30.7658 81.7417 27.7397 81.7417C27.7397 82.1849 27.7397 82.5648 27.7397 83.008C24.8396 83.008 21.9395 83.008 18.9134 83.008C18.9134 83.4513 18.9134 83.8312 18.9134 84.2744C14.7525 84.2744 10.5915 84.2744 6.30447 84.2744C6.30447 83.8312 6.30447 83.4513 6.30447 83.008C5.86316 83.008 5.48489 83.008 5.04357 83.008C5.04357 80.9186 5.04357 78.8291 5.04357 76.6764C4.60226 76.6764 4.22399 76.6764 3.78268 76.6764C3.78268 74.1437 3.78268 71.6744 3.78268 69.0784C3.34137 69.0784 2.9631 69.0784 2.52179 69.0784C2.52179 66.989 2.52179 64.8995 2.52179 62.7467C2.08047 62.7467 1.70221 62.7467 1.26089 62.7467C1.26089 61.4804 1.26089 60.2141 1.26089 58.9477C0.819581 58.9477 0.441313 58.9477 0 58.9477C0 57.0482 0 55.2121 0 53.2493C0.441313 53.2493 0.819581 53.2493 1.26089 53.2493C1.26089 52.6161 1.26089 51.9829 1.26089 51.3497C1.70221 51.3497 2.08047 51.3497 2.52179 51.3497C2.52179 48.6271 2.52179 45.9045 2.52179 43.1186C2.08047 43.1186 1.70221 43.1186 1.26089 43.1186C1.26089 37.9266 1.26089 32.6714 1.26089 27.2894C2.08047 27.2894 2.90006 27.2894 3.78268 27.2894C3.78268 26.8462 3.78268 26.4663 3.78268 26.0231C6.30447 26.0231 8.76321 26.0231 11.348 26.0231C11.348 25.5799 11.348 25.2 11.348 24.7568C13.4285 24.7568 15.509 24.7568 17.6525 24.7568C17.6525 24.3136 17.6525 23.9337 17.6525 23.4905C19.9221 23.4905 22.2548 23.4905 24.5874 23.4905C24.5874 23.0472 24.5874 22.6673 24.5874 22.2241C27.1092 22.2241 29.568 22.2241 32.1528 22.2241C32.1528 21.7809 32.1528 21.401 32.1528 20.9578C34.6746 20.9578 37.1333 20.9578 39.7181 20.9578C39.7181 20.5146 39.7181 20.1347 39.7181 19.6915C42.6182 19.6915 45.5183 19.6915 48.5444 19.6915C48.5444 19.2482 48.5444 18.8683 48.5444 18.4251C49.1118 18.3618 49.7422 18.3618 50.3097 18.2985C51.4445 18.2352 51.4445 18.2352 52.5793 18.1085C53.7141 18.0452 53.7141 18.0452 54.8489 17.9819C56.6141 17.9819 56.6141 17.9819 57.3076 17.1588C58.7576 17.1588 60.2707 17.1588 61.7207 17.1588C61.7207 15.7025 61.7207 14.2462 61.7207 12.7266C62.1621 12.7266 62.5403 12.7266 62.9816 12.7266C62.9816 11.4603 62.9816 10.194 62.9816 8.92764C63.8012 8.92764 64.6208 8.92764 65.5034 8.92764C65.5034 8.48442 65.5034 8.10452 65.5034 7.66131C66.323 7.66131 67.1426 7.66131 68.0252 7.66131C68.0252 7.21809 68.0252 6.83819 68.0252 6.39497C68.4665 6.39497 68.8448 6.39497 69.2861 6.39497C69.2861 5.95176 69.2861 5.57186 69.2861 5.12864C70.1057 5.12864 70.9253 5.12864 71.8079 5.12864C71.8079 4.68543 71.8079 4.30553 71.8079 3.86231C72.6275 3.86231 73.4471 3.86231 74.3297 3.86231C74.3297 3.41909 74.3297 3.0392 74.3297 2.59598C75.1493 2.59598 75.9688 2.59598 76.8515 2.59598C76.8515 2.15276 76.8515 1.77286 76.8515 1.32965C77.671 1.32965 78.4906 1.32965 79.3733 1.32965C79.4993 0.823115 79.4993 0.443216 79.4993 0Z" fill="#1C0A07"/>
<path d="M71.9343 86.1106C92.5499 86.1106 113.103 86.1106 134.349 86.1106C134.349 87.7568 134.349 89.4664 134.349 91.1759C133.907 91.1759 133.529 91.1759 133.088 91.1759C133.088 91.6191 133.088 91.999 133.088 92.4423C132.268 92.4423 131.449 92.4423 130.566 92.4423C130.566 91.999 130.566 91.6191 130.566 91.1759C128.927 91.1759 127.225 91.1759 125.522 91.1759C125.522 91.999 125.522 92.8222 125.522 93.7086C125.964 93.7086 126.342 93.7086 126.783 93.7086C126.783 94.1518 126.783 94.5317 126.783 94.9749C129.305 94.9749 131.764 94.9749 134.349 94.9749C134.349 95.4181 127.035 100.04 136.87 100.04C136.87 102.953 136.87 105.865 136.87 108.905C136.429 108.905 136.051 108.905 135.609 108.905C135.609 111.184 135.609 113.527 135.609 115.869C135.168 115.869 134.79 115.869 134.349 115.869C134.349 115.426 134.349 115.046 134.349 114.603C131.007 114.603 127.666 114.603 124.261 114.603C124.261 115.046 124.261 115.426 124.261 115.869C118.84 115.869 113.418 115.869 107.87 115.869C107.87 116.313 107.87 116.693 107.87 117.136C108.879 117.136 109.95 117.136 111.022 117.136C111.022 117.579 111.022 117.959 111.022 118.402C119.974 118.402 128.927 118.402 138.131 118.402C138.131 123.024 138.131 127.583 138.131 132.332C137.69 132.332 137.312 132.332 136.87 132.332C136.87 133.598 136.87 134.864 136.87 136.131C131.89 136.131 126.909 136.131 121.74 136.131C121.74 136.574 121.74 136.954 121.74 137.397C87.002 137.397 52.2644 137.397 16.455 137.397C16.455 137.84 16.455 138.22 16.455 138.663C13.9332 138.663 11.4745 138.663 8.88965 138.663C8.88965 134.928 8.88965 131.129 8.88965 127.266C10.1505 127.266 11.4114 127.266 12.6723 127.266C12.6723 126.823 12.6723 126.443 12.6723 126C15.1941 126 17.6529 126 20.2377 126C20.2377 125.177 20.2377 124.354 20.2377 123.467C19.7964 123.467 19.4181 123.467 18.9768 123.467C18.9768 123.024 18.9768 122.644 18.9768 122.201C15.6354 122.201 12.2941 122.201 8.88965 122.201C8.88965 121.378 8.88965 120.555 8.88965 119.668C15.9507 119.668 11.9158 117.136 8.88965 117.136C8.88965 116.693 8.88965 116.313 8.88965 115.869C10.5288 115.869 12.231 115.869 13.9332 115.869C13.9332 115.046 13.9332 114.223 13.9332 113.337C13.1136 113.337 12.2941 113.337 11.4114 113.337C11.4114 112.894 11.4114 112.514 11.4114 112.07C10.5919 112.07 9.77227 112.07 8.88965 112.07C8.88965 110.424 8.88965 108.715 8.88965 107.005C11.7897 107.005 14.6898 107.005 17.7159 107.005C17.7159 106.562 17.7159 106.182 17.7159 105.739C18.5355 105.739 19.3551 105.739 20.2377 105.739C20.2377 105.106 20.2377 104.472 20.2377 103.839C19.7964 103.839 19.4181 103.839 18.9768 103.839C18.9768 103.396 18.9768 103.016 18.9768 102.573C16.0767 102.573 13.1767 102.573 10.1505 102.573C10.1505 97.9508 10.1505 93.392 10.1505 88.6433C19.1029 88.6433 28.0552 88.6433 37.2598 88.6433C37.2598 88.2 37.2598 87.8201 37.2598 87.3769C48.7339 87.3769 60.145 87.3769 71.9343 87.3769C71.9343 86.9337 71.9343 86.5538 71.9343 86.1106Z" fill="#F0B263"/>
<path d="M136.87 57.6182V63.9498H115.435V65.2161H100.935V66.4825H88.326V67.7488H76.3475V69.0151C69.2234 69.4584 62.0994 69.7116 54.9123 69.6483V71.5478H46.0861V72.8141C40.412 73.3207 34.738 73.5106 29.064 73.4473V74.7136H20.2377V75.98H13.9333V77.2463H8.88969V75.98H7.6288V69.0151H16.4551V67.7488H25.2813V66.4825H32.8467V65.2161H40.412V63.9498H46.0861V62.6835H53.6514V60.1508H39.7816V61.4172H30.3249V62.6835H22.7595V63.9498H16.4551V65.2161H10.1506V66.4825H6.3679V62.6835H5.10701V55.0855H6.3679V53.8192H6.99835V48.7538H6.3679V41.1558H5.10701C4.91788 37.6101 4.6657 34.0644 4.47656 30.392H10.1506V29.1257H18.9768V27.8594H26.5422V26.593H34.1076V25.3267H42.3034V24.0604H51.1296V22.794H59.9559V21.5277H68.7821V20.2614H78.2388V18.995H90.8478V17.7287H104.718V16.4624H119.218V15.196H130.566V17.7287H131.827V26.593H130.566V27.8594H129.305V29.1257H125.522V30.392C124.892 30.392 124.892 30.392 124.261 30.4553C122.307 30.5187 120.353 30.582 118.398 30.7086C117.39 30.7719 117.39 30.7719 116.381 30.7719C113.103 30.8986 109.761 31.0885 106.483 31.2785C105.915 31.3418 105.348 31.3418 104.781 31.4051C104.339 31.4684 103.898 31.595 103.457 31.6584C103.268 32.1016 103.015 32.4815 102.826 32.9247C98.0979 33.6845 93.1174 33.6845 88.326 33.5579V36.0905H100.935V34.8242H125.522V33.5579H131.827V34.8242H134.349V42.4222H124.261V44.9548H134.349V46.2212H135.609V57.6182H136.87Z" fill="#F0B263"/>
<path d="M62.4777 144.362C64.5582 144.362 66.6386 144.362 68.7822 144.362C68.7822 152.276 68.7822 160.254 68.7822 168.422C69.4126 168.422 70.0431 168.422 70.6735 168.422C70.6735 162.154 70.6735 155.885 70.6735 149.427C71.1148 149.427 71.4931 149.427 71.9344 149.427C71.9344 147.781 71.9344 146.071 71.9344 144.362C73.5736 144.362 75.2758 144.362 76.978 144.362C76.978 149.364 76.978 154.366 76.978 159.558C77.4193 159.558 77.7975 159.558 78.2389 159.558C78.2389 187.164 78.2389 214.707 78.2389 243.136C77.7975 243.136 77.4193 243.136 76.978 243.136C76.978 241.046 76.978 238.957 76.978 236.804C76.5367 236.804 76.1584 236.804 75.7171 236.804C75.7171 232.815 75.7171 228.889 75.7171 224.774C75.2758 224.774 74.8975 224.774 74.4562 224.774C74.4562 222.684 74.4562 220.595 74.4562 218.442C73.8257 218.442 73.1953 218.442 72.5648 218.442C72.5648 226.167 72.5648 233.891 72.5648 241.869C73.0062 241.869 73.3844 241.869 73.8257 241.869C73.8257 243.136 73.8257 244.402 73.8257 245.668C72.817 245.668 71.7453 245.668 70.6735 245.668C70.4844 244.845 70.2322 244.022 70.0431 243.136C69.6017 243.136 69.2235 243.136 68.7822 243.136C68.7822 229.523 68.7822 215.973 68.7822 201.98C67.9626 201.98 67.143 201.98 66.2604 201.98C66.2604 206.159 66.2604 210.338 66.2604 214.643C65.8191 214.643 65.4408 214.643 64.9995 214.643C64.9995 221.925 64.9995 229.269 64.9995 236.804C64.5582 236.804 64.1799 236.804 63.7386 236.804C63.7386 235.538 63.7386 234.271 63.7386 233.005C63.2973 233.005 62.919 233.005 62.4777 233.005C62.4777 230.916 62.4777 228.826 62.4777 226.673C62.0364 226.673 61.6581 226.673 61.2168 226.673C61.2168 223.951 61.2168 221.228 61.2168 218.442C61.6581 218.442 62.0364 218.442 62.4777 218.442C62.4777 194.002 62.4777 169.562 62.4777 144.362Z" fill="#C97547"/>
<path d="M111.022 118.402C119.974 118.402 128.927 118.402 138.131 118.402C138.131 123.024 138.131 127.583 138.131 132.332C137.69 132.332 137.312 132.332 136.87 132.332C136.87 133.598 136.87 134.864 136.87 136.131C131.89 136.131 126.909 136.131 121.74 136.131C121.74 136.574 121.74 136.954 121.74 137.397C87.002 137.397 52.2644 137.397 16.455 137.397C16.455 137.84 16.455 138.22 16.455 138.663C13.9332 138.663 11.4745 138.663 8.88965 138.663C8.88965 134.928 8.88965 131.129 8.88965 127.266C10.1505 127.266 11.4114 127.266 12.6723 127.266C12.6723 126.823 12.6723 126.443 12.6723 126C15.1941 126 17.6529 126 20.2377 126C20.2377 126.823 20.2377 127.646 20.2377 128.533C20.679 128.533 21.0573 128.533 21.4986 128.533C21.4986 129.356 21.4986 130.179 21.4986 131.065C22.3182 131.065 23.1377 131.065 24.0204 131.065C24.0204 131.509 24.0204 131.888 24.0204 132.332C24.84 132.332 25.6595 132.332 26.5422 132.332C26.5422 132.775 26.5422 133.155 26.5422 133.598C29.6313 133.598 32.7836 133.598 35.9989 133.598C35.9989 134.041 35.9989 134.421 35.9989 134.864C38.8989 134.864 41.799 134.864 44.8251 134.864C44.8251 134.421 44.8251 134.041 44.8251 133.598C63.7385 133.598 82.715 133.598 102.196 133.598C102.196 133.155 102.196 132.775 102.196 132.332C110.329 132.332 118.398 132.332 126.783 132.332C126.783 131.888 126.783 131.509 126.783 131.065C128.864 131.065 130.944 131.065 133.088 131.065C133.088 130.622 133.088 130.242 133.088 129.799C133.907 129.799 134.727 129.799 135.609 129.799C135.609 128.976 135.609 128.153 135.609 127.266C136.051 127.266 136.429 127.266 136.87 127.266C137.059 124.544 137.312 121.821 137.501 119.035C128.738 119.035 120.037 119.035 111.022 119.035C111.022 118.845 111.022 118.592 111.022 118.402Z" fill="#C67446"/>
<path d="M124.262 61.4171C128.423 61.4171 132.583 61.4171 136.87 61.4171C136.87 62.2402 136.87 63.0633 136.87 63.9498C129.809 63.9498 122.748 63.9498 115.435 63.9498C115.435 64.393 115.435 64.7729 115.435 65.2161C110.644 65.2161 105.853 65.2161 100.935 65.2161C100.935 65.6593 100.935 66.0392 100.935 66.4824C96.7741 66.4824 92.6131 66.4824 88.3261 66.4824C88.3261 66.9257 88.3261 67.3056 88.3261 67.7488C84.3543 67.7488 80.4455 67.7488 76.3476 67.7488C76.3476 68.192 76.3476 68.5719 76.3476 69.0151C69.1605 69.4583 62.0995 69.7116 54.9124 69.6483C54.9124 70.2814 54.9124 70.9146 54.9124 71.5478C52.0124 71.5478 49.1123 71.5478 46.0862 71.5478C46.0862 71.991 46.0862 72.3709 46.0862 72.8141C40.4121 73.3206 34.8012 73.5106 29.0641 73.4473C29.0641 73.8905 29.0641 74.2704 29.0641 74.7136C26.164 74.7136 23.264 74.7136 20.2378 74.7136C20.2378 75.1568 20.2378 75.5367 20.2378 75.9799C18.1574 75.9799 16.0769 75.9799 13.9334 75.9799C13.9334 76.4231 13.9334 76.803 13.9334 77.2463C12.2942 77.2463 10.592 77.2463 8.8898 77.2463C8.8898 76.803 8.8898 76.4231 8.8898 75.9799C8.44849 75.9799 8.07022 75.9799 7.62891 75.9799C7.62891 73.7005 7.62891 71.3578 7.62891 69.0151C10.529 69.0151 13.429 69.0151 16.4552 69.0151C16.4552 68.5719 16.4552 68.192 16.4552 67.7488C19.3552 67.7488 22.2553 67.7488 25.2814 67.7488C25.2814 67.3056 25.2814 66.9257 25.2814 66.4824C27.8032 66.4824 30.2619 66.4824 32.8468 66.4824C32.8468 66.0392 32.8468 65.6593 32.8468 65.2161C35.3686 65.2161 37.8273 65.2161 40.4121 65.2161C40.4121 64.7729 40.4121 64.393 40.4121 63.9498C42.3035 63.9498 44.1318 63.9498 46.0862 63.9498C46.0862 64.393 46.0862 64.7729 46.0862 65.2161C44.8253 65.2161 43.5644 65.2161 42.3035 65.2161C42.3035 65.6593 42.3035 66.0392 42.3035 66.4824C41.0426 66.6724 39.7817 66.9257 38.5208 67.1156C38.5208 67.7488 38.5208 68.3819 38.5208 69.0151C43.9426 69.0151 49.3645 69.0151 54.9124 69.0151C54.9124 68.5719 54.9124 68.192 54.9124 67.7488C59.0734 67.7488 63.2343 67.7488 67.5214 67.7488C67.5214 67.3056 67.5214 66.9257 67.5214 66.4824C72.3127 66.4824 77.1041 66.4824 82.0216 66.4824C82.0216 66.0392 82.0216 65.6593 82.0216 65.2161C86.1826 65.2161 90.3435 65.2161 94.6306 65.2161C94.6306 64.7729 94.6306 64.393 94.6306 63.9498C99.6111 63.9498 104.592 63.9498 109.761 63.9498C109.761 63.5066 109.761 63.1267 109.761 62.6834C114.553 62.6834 119.344 62.6834 124.262 62.6834C124.262 62.2402 124.262 61.8603 124.262 61.4171Z" fill="#C67346"/>
<path d="M20.2372 52.5527C23.1372 52.5527 26.0373 52.5527 29.0634 52.5527C29.0634 52.996 29.0634 53.3758 29.0634 53.8191C28.6221 53.8191 28.2438 53.8191 27.8025 53.8191C27.8025 54.2623 27.8025 54.6422 27.8025 55.0854C26.9829 55.0854 26.1634 55.0854 25.2807 55.0854C25.2807 55.5286 25.2807 55.9085 25.2807 56.3517C24.4612 56.3517 23.6416 56.3517 22.759 56.3517C22.759 56.7949 22.759 57.1748 22.759 57.6181C22.3176 57.6181 21.9394 57.6181 21.4981 57.6181C21.4981 58.0613 21.4981 58.4412 21.4981 58.8844C21.0567 58.8844 20.6785 58.8844 20.2372 58.8844C20.2372 59.3276 20.2372 59.7075 20.2372 60.1507C20.6785 60.1507 21.0567 60.1507 21.4981 60.1507C21.4981 60.5939 21.4981 60.9738 21.4981 61.4171C24.3981 61.4171 27.2982 61.4171 30.3243 61.4171C30.3243 61.8603 30.3243 62.2402 30.3243 62.6834C27.8025 62.6834 25.3438 62.6834 22.759 62.6834C22.759 63.1266 22.759 63.5065 22.759 63.9497C20.6785 63.9497 18.598 63.9497 16.4545 63.9497C16.4545 64.3929 16.4545 64.7728 16.4545 65.2161C14.374 65.2161 12.2935 65.2161 10.15 65.2161C10.15 65.6593 10.15 66.0392 10.15 66.4824C8.88913 66.4824 7.62823 66.4824 6.36734 66.4824C6.36734 65.2161 6.36734 63.9497 6.36734 62.6834C5.92603 62.6834 5.54776 62.6834 5.10645 62.6834C5.10645 60.1507 5.10645 57.6814 5.10645 55.0854C5.54776 55.0854 5.92603 55.0854 6.36734 55.0854C6.36734 54.6422 6.36734 54.2623 6.36734 53.8191C10.9696 53.8191 15.5088 53.8191 20.2372 53.8191C20.2372 53.3758 20.2372 52.996 20.2372 52.5527Z" fill="#C87547"/>
<path d="M10.1504 88.6432C13.87 88.6432 17.6527 88.6432 21.4984 88.6432C21.4984 89.0864 21.4984 89.4663 21.4984 89.9095C21.0571 89.9095 20.6789 89.9095 20.2375 89.9095C20.2375 90.3527 20.2375 90.7326 20.2375 91.1759C20.6789 91.1759 21.0571 91.1759 21.4984 91.1759C21.4984 92.4422 21.4984 93.7085 21.4984 94.9748C23.1376 94.9748 24.8398 94.9748 26.542 94.9748C26.542 95.798 26.542 96.6211 26.542 97.5075C24.4615 97.5075 22.3811 97.5075 20.2375 97.5075C20.2375 97.9507 20.2375 98.3306 20.2375 98.7738C19.7962 98.7738 19.418 98.7738 18.9766 98.7738C18.9766 100.04 18.9766 101.307 18.9766 102.573C16.0766 102.573 13.1765 102.573 10.1504 102.573C10.1504 97.9507 10.1504 93.3919 10.1504 88.6432Z" fill="#CA7547"/>
<path d="M133.087 38.6232C133.528 38.6232 133.907 38.6232 134.348 38.6232C134.348 39.8895 134.348 41.1558 134.348 42.4222C131.007 42.4222 127.665 42.4222 124.261 42.4222C124.261 42.8654 124.261 43.2453 124.261 43.6885C123 43.6885 121.739 43.6885 120.478 43.6885C120.478 44.1317 120.478 44.5116 120.478 44.9548C117.137 44.9548 113.795 44.9548 110.391 44.9548C110.391 45.398 110.391 45.7779 110.391 46.2212C106.861 46.2212 103.33 46.2212 99.6735 46.2212C99.6735 46.6644 99.6735 47.0443 99.6735 47.4875C92.6125 47.4875 85.5515 47.4875 78.2383 47.4875C78.2383 47.0443 78.2383 46.6644 78.2383 46.2212C81.5796 46.2212 84.921 46.2212 88.3254 46.2212C88.3254 45.7779 88.3254 45.398 88.3254 44.9548C91.2255 44.9548 94.1255 44.9548 97.1517 44.9548C97.1517 44.5116 97.1517 44.1317 97.1517 43.6885C100.052 43.6885 102.952 43.6885 105.978 43.6885C105.978 43.2453 105.978 42.8654 105.978 42.4222C109.508 42.4222 113.039 42.4222 116.696 42.4222C116.696 41.9789 116.696 41.599 116.696 41.1558C120.037 41.1558 123.378 41.1558 126.783 41.1558C126.783 40.7126 126.783 40.3327 126.783 39.8895C128.863 39.8895 130.944 39.8895 133.087 39.8895C133.087 39.4463 133.087 39.0664 133.087 38.6232Z" fill="#C47245"/>
<path d="M10.1506 29.1256C10.5919 29.1256 10.9702 29.1256 11.4115 29.1256C11.4115 32.6713 11.4115 36.2171 11.4115 39.8894C11.8528 39.8894 12.2311 39.8894 12.6724 39.8894C12.6724 41.1558 12.6724 42.4221 12.6724 43.6884C13.1137 43.6884 13.492 43.6884 13.9333 43.6884C13.9333 44.9548 13.9333 46.2211 13.9333 47.4874C14.3746 47.4874 14.7528 47.4874 15.1942 47.4874C15.1942 47.9306 15.1942 48.3105 15.1942 48.7538C15.6355 48.7538 16.0137 48.7538 16.4551 48.7538C16.4551 49.197 16.4551 49.5769 16.4551 50.0201C13.555 50.0201 10.6549 50.0201 7.6288 50.0201C7.6288 49.5769 7.6288 49.197 7.6288 48.7538C7.18748 48.7538 6.80922 48.7538 6.3679 48.7538C6.3679 46.2211 6.3679 43.7517 6.3679 41.1558C5.92659 41.1558 5.54832 41.1558 5.10701 41.1558C4.91788 37.61 4.6657 34.0643 4.47656 30.3919C6.3679 30.3919 8.1962 30.3919 10.1506 30.3919C10.1506 29.9487 10.1506 29.5688 10.1506 29.1256Z" fill="#CB7647"/>
<path d="M124.262 61.4171C128.423 61.4171 132.584 61.4171 136.871 61.4171C136.871 62.2402 136.871 63.0633 136.871 63.9498C129.81 63.9498 122.749 63.9498 115.435 63.9498C115.435 64.393 115.435 64.7729 115.435 65.2161C110.644 65.2161 105.853 65.2161 100.935 65.2161C100.935 65.6593 100.935 66.0392 100.935 66.4824C96.7742 66.4824 92.6132 66.4824 88.3262 66.4824C88.3262 66.2925 88.3262 66.0392 88.3262 65.8493C88.9566 65.786 88.9566 65.786 89.524 65.786C90.0284 65.7226 90.5958 65.7226 91.1001 65.6593C91.6045 65.596 92.1088 65.596 92.6763 65.5327C93.1176 65.4694 93.5589 65.3427 94.0002 65.2794C94.1893 64.8362 94.4415 64.4563 94.6306 64.0131C99.6112 64.0131 104.592 64.0131 109.761 64.0131C109.761 63.5699 109.761 63.19 109.761 62.7468C114.553 62.7468 119.344 62.7468 124.262 62.7468C124.262 62.2402 124.262 61.8603 124.262 61.4171Z" fill="#B4683F"/>
<path d="M67.5208 75.9799C71.0513 75.9799 74.5818 75.9799 78.2384 75.9799C78.2384 78.0693 78.2384 80.1588 78.2384 82.3115C73.8883 82.3115 69.4752 82.3115 64.999 82.3115C64.999 80.6653 64.999 78.9557 64.999 77.2462C65.8186 77.2462 66.6382 77.2462 67.5208 77.2462C67.5208 76.803 67.5208 76.4231 67.5208 75.9799Z" fill="#B4553B"/>
<path d="M17.7159 105.739C18.5355 105.929 19.3551 106.182 20.2377 106.372C19.7964 106.372 19.4181 106.372 18.9768 106.372C18.9768 107.828 18.9768 109.284 18.9768 110.804C18.5355 110.804 18.1572 110.804 17.7159 110.804C17.7159 111.247 17.7159 111.627 17.7159 112.07C17.2746 112.07 16.8963 112.07 16.455 112.07C16.455 113.337 16.455 114.603 16.455 115.869C16.8963 115.869 17.2746 115.869 17.7159 115.869C17.7159 116.313 17.7159 116.692 17.7159 117.136C14.8158 117.136 11.9158 117.136 8.88965 117.136C8.88965 116.692 8.88965 116.313 8.88965 115.869C10.5288 115.869 12.231 115.869 13.9332 115.869C13.9332 115.046 13.9332 114.223 13.9332 113.337C13.1136 113.337 12.2941 113.337 11.4114 113.337C11.4114 112.893 11.4114 112.514 11.4114 112.07C10.5919 112.07 9.77227 112.07 8.88965 112.07C8.88965 110.424 8.88965 108.715 8.88965 107.005C11.7897 107.005 14.6898 107.005 17.7159 107.005C17.7159 106.562 17.7159 106.182 17.7159 105.739Z" fill="#C07044"/>
<path d="M62.4775 144.362C64.558 144.362 66.6385 144.362 68.782 144.362C68.782 152.276 68.782 160.254 68.782 168.422C68.5929 168.422 68.3407 168.422 68.1516 168.422C67.9624 163.42 67.7102 158.418 67.5211 153.226C66.7015 153.226 65.882 153.226 64.9993 153.226C64.9993 153.669 64.9993 154.049 64.9993 154.492C64.1797 154.492 63.3602 154.492 62.4775 154.492C62.4775 151.137 62.4775 147.781 62.4775 144.362Z" fill="#A95238"/>
<path d="M71.9337 144.362C73.5729 144.362 75.2751 144.362 76.9773 144.362C76.9773 146.008 76.9773 147.718 76.9773 149.427C76.536 149.427 76.1577 149.427 75.7164 149.427C75.7164 149.87 75.7164 150.25 75.7164 150.693C74.4555 150.693 73.1946 150.693 71.9337 150.693C71.7446 156.519 71.4924 162.407 71.3033 168.422C71.1142 168.422 70.862 168.422 70.6729 168.422C70.6729 162.154 70.6729 155.885 70.6729 149.427C71.1142 149.427 71.4924 149.427 71.9337 149.427C71.9337 147.781 71.9337 146.071 71.9337 144.362Z" fill="#994A33"/>
<path d="M8.88965 119.668C14.3115 119.668 19.7333 119.668 25.2813 119.668C25.2813 120.112 25.2813 120.491 25.2813 120.935C24.4617 120.935 23.6421 120.935 22.7595 120.935C22.7595 121.378 22.7595 121.758 22.7595 122.201C22.3182 122.201 21.9399 122.201 21.4986 122.201C21.4986 123.024 21.4986 123.847 21.4986 124.734C21.0573 124.734 20.679 124.734 20.2377 124.734C20.2377 124.29 20.2377 123.911 20.2377 123.467C19.7964 123.467 19.4181 123.467 18.9768 123.467C18.9768 123.024 18.9768 122.644 18.9768 122.201C15.6354 122.201 12.2941 122.201 8.88965 122.201C8.88965 121.378 8.88965 120.555 8.88965 119.668Z" fill="#C77446"/>
<path d="M102.826 31.6583C103.016 31.6583 103.268 31.6583 103.457 31.6583C103.457 32.7347 103.457 33.7478 103.457 34.8242C102.637 34.8242 101.818 34.8242 100.935 34.8242C100.935 35.2674 100.935 35.6473 100.935 36.0905C96.7742 36.0905 92.6132 36.0905 88.3262 36.0905C88.3262 35.2674 88.3262 34.4443 88.3262 33.5578C93.1806 32.9247 97.972 32.8613 102.826 32.9247C102.826 32.4814 102.826 32.1015 102.826 31.6583Z" fill="#B26B40"/>
<path d="M79.4991 6.96484C79.4991 9.68746 79.4991 12.4101 79.4991 15.196C78.6795 15.196 77.8599 15.196 76.9773 15.196C76.9773 15.6392 76.9773 16.0191 76.9773 16.4623C76.3468 16.4623 75.7164 16.4623 75.0859 16.4623C75.0859 13.5498 75.0859 10.6372 75.0859 7.59801C77.6077 6.96484 77.6077 6.96484 79.4991 6.96484Z" fill="#B8573D"/>
<path d="M94.6306 63.9497C109.761 63.8231 109.761 63.8231 115.435 64.5829C115.435 64.7729 115.435 65.0261 115.435 65.2161C110.644 65.2161 105.853 65.2161 100.935 65.2161C100.935 65.6593 100.935 66.0392 100.935 66.4824C96.7742 66.4824 92.6132 66.4824 88.3262 66.4824C88.3262 66.2925 88.3262 66.0392 88.3262 65.8492C88.7044 65.8492 89.1457 65.7859 89.524 65.7859C90.0284 65.7226 90.5958 65.7226 91.1001 65.6593C91.6045 65.596 92.1088 65.596 92.6763 65.5327C93.1176 65.4693 93.5589 65.3427 94.0002 65.2794C94.1893 64.7729 94.4415 64.393 94.6306 63.9497Z" fill="#AB623B"/>
<path d="M125.523 33.5577C127.603 33.5577 129.684 33.5577 131.827 33.5577C131.827 34.001 131.827 34.3809 131.827 34.8241C132.647 34.8241 133.466 34.8241 134.349 34.8241C134.349 35.2673 134.349 35.6472 134.349 36.0904C119.029 35.7738 119.029 35.7738 103.457 35.4572C103.457 35.2673 103.457 35.014 103.457 34.8241C110.77 34.8241 118.02 34.8241 125.523 34.8241C125.523 34.3809 125.523 34.001 125.523 33.5577Z" fill="#BC8A4C"/>
<path d="M70.6729 10.1306C71.3033 10.1306 71.9338 10.1306 72.5642 10.1306C72.5642 11.7768 72.5642 13.4864 72.5642 15.1959C72.1229 15.1959 71.7447 15.1959 71.3033 15.1959C71.3033 15.6392 71.3033 16.0191 71.3033 16.4623C70.0424 16.4623 68.7816 16.4623 67.5207 16.4623C67.5207 16.9055 67.5207 17.2854 67.5207 17.7286C67.0793 17.7286 66.7011 17.7286 66.2598 17.7286C66.2598 16.0824 66.2598 14.3728 66.2598 12.6633C67.0793 12.6633 67.8989 12.6633 68.7816 12.6633C68.7816 12.2201 68.7816 11.8402 68.7816 11.3969C69.412 11.3969 70.0424 11.3969 70.6729 11.3969C70.6729 10.9537 70.6729 10.5738 70.6729 10.1306Z" fill="#A84F37"/>
<path d="M107.87 110.804C110.14 110.804 112.472 110.804 114.805 110.804C114.805 111.627 114.805 112.45 114.805 113.337C111.464 113.337 108.122 113.337 104.718 113.337C104.718 112.893 104.718 112.514 104.718 112.07C105.726 112.07 106.798 112.07 107.87 112.07C107.87 111.627 107.87 111.247 107.87 110.804Z" fill="#3E2516"/>
<path d="M133.088 38.6232C133.529 38.6232 133.907 38.6232 134.349 38.6232C134.349 39.8895 134.349 41.1558 134.349 42.4222C131.827 42.4222 129.368 42.4222 126.783 42.4222C126.783 41.599 126.783 40.7759 126.783 39.8895C128.864 39.8895 130.944 39.8895 133.088 39.8895C133.088 39.4463 133.088 39.0664 133.088 38.6232Z" fill="#E1A75C"/>
<path d="M18.9766 94.9749C21.4983 94.9749 23.9571 94.9749 26.5419 94.9749C26.5419 95.798 26.5419 96.6211 26.5419 97.5075C24.0201 97.5075 21.5614 97.5075 18.9766 97.5075C18.9766 96.6844 18.9766 95.8613 18.9766 94.9749Z" fill="#2A150D"/>
<path d="M12.6719 132.332C15.5719 132.332 18.472 132.332 21.4981 132.332C21.4981 132.775 21.4981 133.155 21.4981 133.598C20.2372 133.598 18.9763 133.598 17.7154 133.598C17.7154 134.041 17.7154 134.421 17.7154 134.864C16.0763 134.864 14.3741 134.864 12.6719 134.864C12.6719 134.041 12.6719 133.218 12.6719 132.332Z" fill="#2A120C"/>
<path d="M109.761 62.6835C114.111 62.6835 118.524 62.6835 123 62.6835C123 62.8734 123 63.1267 123 63.3166C120.478 63.3166 118.02 63.3166 115.435 63.3166C115.435 63.7599 115.435 64.1398 115.435 64.583C113.165 64.583 110.833 64.583 108.5 64.583C108.941 64.393 109.32 64.1398 109.761 63.9498C109.761 63.5066 109.761 63.1267 109.761 62.6835Z" fill="#CE7849"/>
<path d="M103.457 96.2412C104.907 96.2412 106.357 96.2412 107.87 96.2412C108.059 97.0643 108.311 97.8874 108.501 98.7739C106.861 98.7739 105.159 98.7739 103.457 98.7739C103.457 97.9508 103.457 97.1276 103.457 96.2412Z" fill="#26120B"/>
<path d="M40.4117 63.9497C42.303 63.9497 44.1313 63.9497 46.0857 63.9497C46.0857 64.3929 46.0857 64.7728 46.0857 65.216C44.8248 65.216 43.5639 65.216 42.303 65.216C42.303 65.6593 42.303 66.0392 42.303 66.4824C41.4835 66.4824 40.6639 66.4824 39.7812 66.4824C39.9704 65.6593 40.2226 64.8361 40.4117 63.9497Z" fill="#D3804C"/>
<path d="M68.7824 176.02C69.2237 176.02 69.602 176.02 70.0433 176.02C70.2324 177.033 70.4846 178.109 70.6737 179.186C70.0433 179.629 69.4128 180.009 68.7824 180.452C68.3411 180.262 67.9628 180.009 67.5215 179.819C67.5215 178.996 67.5215 178.173 67.5215 177.286C67.9628 177.286 68.3411 177.286 68.7824 177.286C68.7824 176.843 68.7824 176.463 68.7824 176.02Z" fill="#230E09"/>
<path d="M133.781 35.5206H129.62V40.5226H133.781V35.5206Z" fill="#F0B263"/>
<path d="M125.774 27.2894H83.0928V38.6231H125.774V27.2894Z" fill="#F0B263"/>
<g filter="url(#filter0_d_254_469)">
<path d="M36.2405 52.608C36.3501 53.3939 36.2606 54.0969 35.972 54.7167C35.6978 55.3175 35.1836 55.9092 34.4295 56.4917C33.9243 56.9031 33.3154 57.2437 32.603 57.5136C31.8905 57.7834 31.158 57.9708 30.4055 58.0757C29.6362 58.183 28.6481 58.0651 27.441 57.7219C26.5656 57.4349 25.8469 57.0492 25.285 56.565C24.7398 56.0784 24.4218 55.5091 24.3308 54.8569C24.2679 54.4054 24.3227 54.0653 24.4954 53.8366C24.6658 53.5913 24.9767 53.4371 25.4282 53.3741C25.6623 53.3415 25.9188 53.408 26.1976 53.5737C26.4741 53.7227 26.6503 53.8856 26.7261 54.0626C27.0558 54.7156 27.539 55.1852 28.1756 55.4715C28.8098 55.741 29.5618 55.8152 30.4313 55.6939C31.4347 55.554 32.2452 55.2535 32.8628 54.7923C33.4971 54.3288 33.7711 53.7877 33.6848 53.1689C33.6009 52.5669 33.1584 52.0831 32.3573 51.7175C31.5562 51.3518 30.7582 51.1307 29.9633 51.054C28.8176 50.9069 27.7892 50.6838 26.8781 50.3846C25.9312 50.0735 25.196 49.6304 24.6726 49.0556C24.1492 48.4808 23.8385 47.8422 23.7406 47.1398C23.6496 46.4877 23.7833 45.7956 24.1415 45.0638C24.4974 44.3152 24.9637 43.7472 25.5405 43.36C25.8516 43.1461 26.3957 42.8912 27.1728 42.5953C27.9642 42.2804 28.5438 42.0973 28.9117 42.046C29.3967 41.9784 29.94 41.9623 30.5416 41.9977C31.1432 42.0331 31.6431 42.1339 32.0413 42.3C32.8354 42.6155 33.4314 42.9159 33.8292 43.2014C34.227 43.4869 34.4609 43.8805 34.5309 44.3822C34.5728 44.6832 34.4931 44.967 34.2916 45.2338C34.1069 45.4982 33.7386 45.6689 33.1867 45.7459C33.0529 45.7645 32.911 45.7247 32.7609 45.6263C32.6108 45.5279 32.4191 45.3756 32.1858 45.1695C31.8692 44.8556 31.5774 44.6576 31.3102 44.5755C31.0477 44.5269 30.667 44.4862 30.168 44.4535C29.6858 44.4185 29.2608 44.4266 28.8929 44.4779C28.4915 44.5339 28.0851 44.6758 27.6736 44.9037C27.2622 45.1315 26.9281 45.4253 26.6714 45.785C26.4291 46.1256 26.3359 46.4966 26.3919 46.898C26.4385 47.2324 26.6298 47.5041 26.9658 47.713C27.3162 47.9028 27.7193 48.0426 28.175 48.1325C28.7047 48.2632 29.2727 48.363 29.879 48.4319C30.6808 48.5587 31.3383 48.6887 31.8512 48.8217C32.3785 48.9357 32.8961 49.1022 33.404 49.3212C34.291 49.6919 34.9546 50.1108 35.3948 50.5779C35.8327 51.0283 36.1146 51.705 36.2405 52.608ZM38.5792 48.0114C38.4287 48.0324 38.2889 48.0689 38.1598 48.121C38.0283 48.1564 37.8957 48.1834 37.7619 48.2021C37.578 48.2277 37.3907 48.1686 37.2002 48.0247C37.0264 47.8784 36.9301 47.7384 36.9115 47.6046C36.8509 47.1699 37.0216 46.8051 37.4238 46.5103C37.8236 46.1989 38.2492 46.0117 38.7007 45.9487C39.0854 45.8951 39.497 45.974 39.9356 46.1856C40.3887 46.3782 40.7435 46.6611 41.0002 47.0345C41.3627 46.4555 41.8453 46.0046 42.4481 45.6819C43.0509 45.3591 43.6952 45.15 44.3808 45.0543C45.15 44.9471 45.8946 45.0904 46.6144 45.4845C47.3509 45.8761 47.9639 46.4214 48.4535 47.1203C48.9407 47.8025 49.2356 48.5114 49.3382 49.2472C49.4385 49.9663 49.453 50.6206 49.3818 51.2102C49.3083 51.783 49.1188 52.3805 48.8135 53.0027C48.4627 53.6654 47.9462 54.2403 47.264 54.7275C46.5986 55.2124 45.7642 55.5248 44.7608 55.6648C44.4932 55.7021 44.1578 55.6806 43.7545 55.6005C43.3489 55.5036 43.0091 55.3891 42.7349 55.2568C42.7764 56.4103 42.8555 57.4051 42.9721 58.2412C43.042 58.7429 43.1336 59.216 43.2467 59.6605C43.3548 60.191 43.4251 60.5732 43.4578 60.8074C43.5091 61.1753 43.421 61.4603 43.1934 61.6625C42.9682 61.8814 42.7051 62.0119 42.4041 62.0539C41.8021 62.1378 41.3775 62.0266 41.1302 61.7201C40.9019 61.428 40.7458 60.981 40.6618 60.379C40.5282 58.9315 40.4264 57.5904 40.3565 56.3556C40.247 54.8366 39.973 52.5052 39.5346 49.3613C39.4926 49.0603 39.3898 48.7507 39.2261 48.4326C39.0624 48.1145 38.8468 47.9741 38.5792 48.0114ZM42.4889 52.7595C42.6169 53.0656 42.8883 53.3005 43.3032 53.4643C43.7325 53.609 44.1061 53.6592 44.4238 53.6149C45.377 53.4819 46.0516 53.1236 46.4475 52.5399C46.7474 52.1231 46.923 51.7321 46.9744 51.3669C47.0424 50.9994 47.0229 50.431 46.9156 49.6618C46.8316 49.0598 46.6446 48.5744 46.3545 48.2057C46.0621 47.8203 45.7359 47.5589 45.3758 47.4216C45.0133 47.2676 44.6816 47.2116 44.3806 47.2535C43.695 47.3491 43.1639 47.6363 42.7874 48.115C42.4253 48.5746 42.2347 49.1638 42.2156 49.8825C42.2089 50.446 42.3001 51.405 42.4889 52.7595ZM61.3068 45.5325C61.4732 45.748 61.6297 46.0756 61.7763 46.5155C61.9206 46.9386 62.0172 47.3258 62.0661 47.6769C62.1571 48.3291 62.1444 49.2771 62.028 50.5207C61.1679 52.7887 59.6091 54.0801 57.3516 54.3949C56.5155 54.5115 55.6241 54.3545 54.6776 53.9239C53.7311 53.4933 53.0404 52.9418 52.6057 52.2693C51.9537 50.8942 51.6008 50.0143 51.5472 49.6296C51.4539 48.9607 51.4969 48.2302 51.6763 47.438C51.8724 46.6436 52.1577 45.9389 52.5322 45.3241C52.7629 44.8998 53.2274 44.5026 53.9259 44.1325C54.6221 43.7456 55.2712 43.5101 55.8732 43.4262C57.0438 43.263 58.0702 43.35 58.9526 43.6872C59.8326 44.0077 60.6174 44.6228 61.3068 45.5325ZM59.6877 49.8753C59.741 49.6463 59.7047 49.0803 59.5787 48.1772C59.5111 47.6923 59.3527 47.2285 59.1034 46.7859C58.8709 46.341 58.5641 45.9746 58.183 45.6868C58.1449 45.6581 58.0459 45.6207 57.8861 45.5748C57.7239 45.5122 57.5044 45.4661 57.2275 45.4365C56.965 45.3879 56.6665 45.3869 56.3321 45.4335C55.3956 45.5641 54.7625 46.036 54.4326 46.8491C54.1028 47.6623 54.0043 48.5454 54.1372 49.4986C54.1605 49.6658 54.2466 49.9777 54.3956 50.4343C54.5612 50.8886 54.6856 51.1695 54.7688 51.2773C54.8353 51.3873 54.9841 51.5371 55.215 51.7265C55.4604 51.8968 55.7453 52.0446 56.0696 52.1699C56.4083 52.2761 56.7449 52.3059 57.0793 52.2592C57.8319 52.1543 58.4094 51.8948 58.8119 51.4806C59.2121 51.0498 59.5041 50.5147 59.6877 49.8753ZM63.9004 44.3781C63.7526 44.2964 63.6299 44.2113 63.5323 44.1226C63.4324 44.0172 63.3626 43.8224 63.323 43.5381C63.2786 43.2203 63.3535 42.9627 63.5476 42.7652C63.7561 42.5486 64.0108 42.4193 64.3118 42.3773C64.8971 42.2957 65.4198 42.3762 65.8798 42.6189C66.3566 42.8593 66.7326 43.2331 67.0079 43.7402C67.2802 43.0033 67.6831 42.4698 68.2167 42.1396C68.748 41.7928 69.5153 41.5494 70.5186 41.4095C70.92 41.3535 71.3472 41.4218 71.8002 41.6144C72.2676 41.7878 72.7014 42.0257 73.1016 42.3279C73.4372 42.6562 73.7438 43.0822 74.0214 43.6061C74.2967 44.1132 74.4647 44.5842 74.5253 45.019C74.5603 45.2698 74.6007 45.6818 74.6465 46.2551C74.697 46.8618 74.7468 47.3407 74.7957 47.6919C74.959 48.8624 75.285 49.55 75.7738 49.7546C75.8454 49.7787 75.9766 49.8031 76.1676 49.8276C76.3585 49.8521 76.4993 49.8836 76.5899 49.9221C76.6972 49.9583 76.7579 50.0266 76.7719 50.1269C76.8446 50.5259 76.7407 50.8813 76.4603 51.1932C76.1942 51.486 75.8438 51.6627 75.4091 51.7234C74.7569 51.8143 74.2223 51.7099 73.8055 51.41C73.3886 51.1101 73.0548 50.6111 72.804 49.913C72.6831 49.6571 72.5865 49.27 72.5142 48.7516C72.4745 48.4673 72.4271 48.0051 72.372 47.365C72.3522 46.8563 72.3026 46.3177 72.2234 45.7491C72.1417 45.1638 71.9034 44.6771 71.5083 44.289C71.1109 43.8841 70.6195 43.7225 70.0343 43.8041C69.6831 43.853 69.3303 44.013 68.976 44.2841C68.6194 44.5384 68.3868 44.8265 68.2783 45.1485C68.0997 45.7019 68.006 46.252 67.997 46.7988C67.9409 47.8635 67.9793 48.8725 68.1122 49.8257C68.1449 50.0598 68.2245 50.509 68.3513 51.1733C68.3583 51.2234 68.3758 51.3488 68.4037 51.5495C68.4294 51.7335 68.4288 51.9126 68.4019 52.0868C68.3918 52.2587 68.3459 52.4185 68.2642 52.5663C68.2067 52.6425 68.0906 52.7269 67.916 52.8194C67.7413 52.9119 67.5871 52.9675 67.4534 52.9862C67.2192 53.0188 66.9126 52.9593 66.5334 52.8076C66.1543 52.6559 65.9138 52.4593 65.8119 52.2178L65.7378 51.8701C65.7192 51.7363 65.7079 51.5333 65.7041 51.2611C65.7415 50.0625 65.6996 49.0285 65.5783 48.1589C65.5247 47.7743 65.4755 47.4828 65.4308 47.2845L65.2448 46.1341C65.1959 45.7829 65.0489 45.4625 64.8039 45.1727C64.5566 44.8662 64.2554 44.6014 63.9004 44.3781ZM85.03 44.577C85.7525 44.8683 86.2744 45.1877 86.5956 45.535C86.9144 45.8656 87.1158 46.3319 87.1998 46.9339C87.2837 47.5359 87.1828 48.0955 86.8969 48.6127C86.6087 49.1132 86.2061 49.5273 85.6893 49.8551C85.3136 50.095 84.8317 50.3071 84.2437 50.4914C83.6724 50.6734 83.2195 50.7877 82.8851 50.8343C82.2998 50.9159 81.6491 50.8958 80.9332 50.774C80.2173 50.6523 79.5888 50.4245 79.0479 50.0908C78.5237 49.7547 78.2243 49.3192 78.1497 48.784C78.103 48.4496 78.1756 48.1752 78.3673 47.961C78.5567 47.73 78.827 47.59 79.1782 47.541C79.4625 47.5014 79.7915 47.6601 80.1652 48.0171C80.5319 48.324 80.9371 48.5402 81.3808 48.6659C81.8412 48.7892 82.2805 48.8217 82.6986 48.7634C84.2872 48.5419 85.0314 48.0716 84.9311 47.3525C84.9101 47.202 84.8402 47.0669 84.7212 46.9471C84.5998 46.8106 84.4939 46.7231 84.4033 46.6845C84.2364 46.5885 84.0134 46.5173 83.7342 46.471C83.455 46.4247 83.1781 46.3951 82.9035 46.3822C82.6266 46.3527 82.419 46.3305 82.2805 46.3157C82.1421 46.3009 81.8496 46.282 81.4032 46.259C80.9735 46.2337 80.5523 46.1475 80.1397 46.0005C79.4623 45.7881 78.8926 45.4925 78.4306 45.1137C77.9853 44.7325 77.7149 44.1991 77.6193 43.5135C77.5657 43.1289 77.604 42.7314 77.7343 42.3212C77.879 41.8918 78.1046 41.5535 78.4111 41.3062C78.8684 40.9185 79.3865 40.5991 79.9652 40.3479C80.5439 40.0967 81.0924 39.935 81.6108 39.8627C82.0289 39.8044 82.5029 39.7809 83.033 39.7923C83.5798 39.8013 83.9807 39.8647 84.2358 39.9825C84.7033 40.156 85.0548 40.3542 85.2905 40.5771C85.5261 40.7999 85.6708 41.1036 85.7244 41.4883C85.75 41.6722 85.7339 41.862 85.6759 42.0576C85.6156 42.2365 85.5316 42.3675 85.4239 42.4508C85.1703 42.5884 84.9432 42.6712 84.7425 42.6992C84.592 42.7202 84.4631 42.7126 84.3558 42.6764C84.2461 42.6235 84.1448 42.5694 84.0519 42.5142C83.9757 42.4567 83.928 42.4207 83.909 42.4063C83.6589 42.2025 83.3908 42.0523 83.1046 41.9559C82.8184 41.8594 82.416 41.8473 81.8976 41.9196C81.5632 41.9662 81.2441 42.0619 80.9404 42.2065C80.651 42.3321 80.4321 42.4735 80.2835 42.6306C80.1637 42.7496 80.0845 42.8544 80.046 42.945C80.0052 43.0188 79.9929 43.1143 80.0093 43.2314C80.0746 43.6996 80.5906 43.9771 81.5574 44.0639C82.5409 44.1484 83.0589 44.1955 83.1114 44.2052C83.2164 44.2247 83.504 44.2698 83.9741 44.3406C84.461 44.4091 84.813 44.4879 85.03 44.577ZM88.9479 44.0306C88.8057 43.0106 88.9137 42.1346 89.2719 41.4027C89.6278 40.6541 90.1651 39.9229 90.8839 39.2089C91.0947 39.009 91.4678 38.8121 92.0034 38.6181C92.5366 38.4074 93.0122 38.2728 93.4302 38.2145C93.9319 38.1446 94.4738 38.1798 95.056 38.3203C95.6526 38.4417 96.1451 38.6116 96.5336 38.8302C97.2153 39.1955 97.7151 39.6628 98.0332 40.2321C98.3489 40.7848 98.5639 41.4708 98.6782 42.2902C98.7272 42.6414 98.5743 43.0122 98.2196 43.4026C97.8793 43.774 97.4834 43.9911 97.0319 44.0541L96.0752 44.1619C95.5902 44.2295 94.8986 44.343 94.0002 44.5024L93.4769 44.601C93.1137 44.6857 92.8401 44.7409 92.6562 44.7666C92.3886 44.8039 92.016 44.8217 91.5385 44.8201C91.715 45.5968 92.0939 46.1747 92.6753 46.5539C93.2543 46.9164 93.8448 47.0557 94.4468 46.9717C95.5004 46.8248 96.207 46.5132 96.5668 46.0368C96.883 45.737 97.0949 45.5455 97.2027 45.4623C97.3104 45.3791 97.4897 45.32 97.7405 45.285C98.0081 45.2477 98.2597 45.3405 98.4953 45.5633C98.731 45.7862 98.8663 46.023 98.9013 46.2739C98.9409 46.5581 98.8061 46.8753 98.4969 47.2252C98.2021 47.5562 97.7842 47.9213 97.2433 48.3207C96.9442 48.4987 96.5257 48.6764 95.9879 48.8537C95.45 49.031 94.9971 49.1453 94.6292 49.1966C94.0439 49.2782 93.3684 49.2019 92.6027 48.9678C91.8347 48.7169 91.2459 48.4069 90.8365 48.0378C90.427 47.6687 90.0348 47.1182 89.66 46.3862C89.3019 45.652 89.0645 44.8668 88.9479 44.0306ZM93.8452 42.6573C95.0325 42.4917 95.8963 42.3287 96.4364 42.1681C96.3354 41.6878 96.1301 41.3158 95.8205 41.0521C95.5087 40.7717 95.1035 40.5554 94.6049 40.4033C94.4451 40.3574 94.3043 40.3259 94.1826 40.3088C94.0609 40.2917 93.9247 40.2936 93.7742 40.3146C93.005 40.4219 92.382 40.7218 91.9051 41.2145C91.445 41.7049 91.2103 42.2831 91.2009 42.9493C92.044 42.8829 92.9255 42.7856 93.8452 42.6573ZM105.477 46.5587C105.517 46.843 105.443 47.109 105.256 47.3567C105.069 47.6044 104.817 47.7504 104.499 47.7947C103.997 47.8647 103.617 47.824 103.357 47.6727C103.095 47.5047 102.928 47.1615 102.855 46.6431C102.769 46.0243 102.639 45.2156 102.466 44.2169C102.316 43.3855 102.201 42.6854 102.122 42.1169C102.084 41.8493 102.052 41.4958 102.025 41.0563C102.003 40.6503 101.977 40.347 101.949 40.1463C101.855 39.8356 101.693 39.5939 101.465 39.4212C101.234 39.2318 100.959 39.1592 100.642 39.2035C100.491 39.2245 100.356 39.1751 100.237 39.0553C100.116 38.9188 100.045 38.7753 100.024 38.6248C99.9702 38.2402 100.08 37.9266 100.353 37.6839C100.643 37.4389 101.005 37.2861 101.44 37.2255C102.343 37.0996 103.044 37.5473 103.545 38.5685C103.91 38.0062 104.347 37.5361 104.857 37.1581C105.381 36.7611 105.903 36.5265 106.421 36.4542C107.04 36.3679 107.623 36.457 108.172 36.7215C108.737 36.9837 109.059 37.399 109.138 37.9676C109.182 38.2853 109.086 38.6312 108.848 39.0053C108.627 39.3771 108.374 39.5828 108.09 39.6224C107.94 39.6434 107.801 39.6286 107.675 39.5781C107.563 39.5084 107.421 39.4089 107.25 39.2794C107.059 39.1355 106.901 39.0382 106.774 38.9876C106.645 38.9204 106.506 38.8972 106.355 38.9182C106.088 38.9555 105.843 39.0323 105.62 39.1486C105.398 39.2648 105.253 39.3873 105.186 39.516C104.976 39.9714 104.828 40.3756 104.741 40.7287C104.671 41.0795 104.662 41.4472 104.716 41.8318C104.756 42.1161 104.779 42.343 104.785 42.5126L104.96 43.9459C104.99 44.1633 105.032 44.4046 105.086 44.6698C105.14 44.9351 105.185 45.1334 105.22 45.2648C105.333 45.7094 105.419 46.1406 105.477 46.5587ZM118.143 40.2919C118.288 40.3569 118.569 40.4796 118.987 40.6601C119.418 40.8215 119.722 41.0434 119.898 41.3258C120.074 41.6081 120.199 42.0169 120.273 42.552C120.357 43.154 120.256 43.7136 119.971 44.2308C119.682 44.7313 119.28 45.1454 118.763 45.4732C118.402 45.6941 117.998 45.8527 117.551 45.9491C117.121 46.0432 116.596 46.1334 115.977 46.2197C115.643 46.2663 115.201 46.2768 114.652 46.251C114.12 46.223 113.747 46.1812 113.535 46.1255C112.958 45.8991 112.457 45.6109 112.034 45.2609C111.61 44.9109 111.369 44.5268 111.31 44.1087C111.264 43.7743 111.335 43.4916 111.524 43.2606C111.714 43.0296 111.984 42.8896 112.335 42.8406C112.519 42.815 112.702 42.8407 112.883 42.9177C113.079 42.9757 113.218 43.0585 113.301 43.1662C113.546 43.5754 113.901 43.8583 114.366 44.0151C114.831 44.1718 115.289 44.2187 115.741 44.1558C117.329 43.9343 118.084 43.5392 118.005 42.9706C117.984 42.8201 117.926 42.7089 117.83 42.6369C117.75 42.5459 117.635 42.4596 117.487 42.3779C117.249 42.2577 116.918 42.142 116.493 42.0307C116.085 41.9172 115.725 41.8395 115.412 41.7979C114.705 41.743 114.005 41.6105 113.311 41.4005C112.667 41.1834 112.119 40.8592 111.666 40.4279C111.212 39.9798 110.934 39.3963 110.834 38.6772C110.774 38.2424 110.873 37.7938 111.132 37.3315C111.406 36.85 111.745 36.4703 112.15 36.1923C112.435 36.0333 112.91 35.8391 113.577 35.6097C114.244 35.3803 114.703 35.2481 114.954 35.2131C115.339 35.1595 115.763 35.143 116.226 35.1636C116.687 35.1676 117.046 35.2368 117.303 35.3714C117.792 35.576 118.199 35.809 118.526 36.0703C118.85 36.315 119.037 36.6213 119.089 36.9892C119.114 37.1731 119.1 37.3796 119.047 37.6087C118.991 37.821 118.909 37.9604 118.799 38.0269C118.564 38.1789 118.28 38.2783 117.945 38.3249C117.795 38.3459 117.663 38.3216 117.551 38.252C117.456 38.18 117.32 38.0625 117.144 37.8996C116.921 37.641 116.722 37.4982 116.548 37.4714C116.34 37.4492 116.039 37.4315 115.645 37.4182C115.249 37.3882 114.984 37.3826 114.85 37.4012C114.432 37.4595 114.042 37.5991 113.681 37.82C113.336 38.0385 113.184 38.2899 113.224 38.5742C113.27 38.9086 113.586 39.1544 114.17 39.3116C114.545 39.4299 114.949 39.5184 115.384 39.5771C115.835 39.6335 116.113 39.6715 116.218 39.6909C116.459 39.7085 116.776 39.7835 117.17 39.9162C117.58 40.0465 117.904 40.1718 118.143 40.2919Z" fill="black"/>
</g>
<g filter="url(#filter1_d_254_469)">
<path d="M52.6435 119.1C52.5887 119.352 52.4332 119.569 52.1769 119.751C51.9378 119.916 51.5988 119.995 51.1599 119.987C50.7885 119.981 50.4947 119.875 50.2785 119.669C50.0792 119.463 49.9729 119.25 49.9596 119.031C50.0725 118.323 50.1405 117.261 50.1636 115.842C50.1773 114.998 50.1479 113.698 50.0752 111.94C49.984 110.284 49.9488 108.814 49.9698 107.531C49.981 106.839 50.0264 106.13 50.1057 105.406C50.1096 105.169 50.2488 104.918 50.5233 104.652C50.8147 104.387 51.2057 104.225 51.6964 104.165C53.303 104.022 55.2711 103.97 57.6009 104.008L58.4112 104.021C59.019 104.031 59.608 104.15 60.1785 104.379C60.7658 104.608 61.055 104.993 61.0462 105.533C61.0404 105.888 60.9515 106.165 60.7794 106.365C60.6072 106.565 60.2933 106.661 59.8374 106.653C59.618 106.65 59.365 106.629 59.0786 106.59C58.7921 106.552 58.5899 106.523 58.472 106.504C57.8322 106.393 57.335 106.334 56.9804 106.328C55.0221 106.296 53.5427 106.407 52.5423 106.661C52.5332 107.218 52.5354 108.122 52.5488 109.372L52.5477 110.993C53.4255 111.007 54.2111 110.986 54.9044 110.93C55.5979 110.857 55.9955 110.812 56.097 110.797C56.9766 110.71 57.5598 110.669 57.8468 110.674C58.252 110.68 58.5881 110.779 58.8552 110.969C59.1395 111.142 59.2786 111.415 59.2725 111.786C59.2587 112.63 58.661 113.043 57.4792 113.023C57.1922 113.019 56.9389 113.023 56.7191 113.036C56.4994 113.05 56.3134 113.063 56.1612 113.078C55.5523 113.136 55.0706 113.161 54.7161 113.156C53.9395 113.143 53.2807 113.158 52.7397 113.199C52.7295 113.824 52.7441 114.483 52.7834 115.176C52.7799 115.395 52.7828 115.733 52.7922 116.189C52.8186 116.646 52.8287 117.06 52.8227 117.431C52.8174 117.752 52.8042 118.047 52.7829 118.317C52.7616 118.587 52.7151 118.848 52.6435 119.1ZM73.4877 119.971C73.273 119.681 73.0923 119.366 72.9459 119.025C72.7997 118.668 72.6462 118.244 72.4854 117.751C72.453 117.666 72.3558 117.412 72.1939 116.987C72.0488 116.562 71.8775 116.196 71.6799 115.889C70.6138 116.024 69.7431 116.086 69.0678 116.075C68.6964 116.069 68.283 116.053 67.8274 116.029C67.389 115.988 67.0601 115.966 66.8406 115.962C65.9976 115.881 65.3229 115.836 64.8164 115.828C64.6094 116.095 64.4275 116.379 64.2706 116.68C64.1306 116.982 63.9459 117.435 63.7165 118.039C63.3983 118.912 63.1265 119.532 62.901 119.9C62.7449 120.151 62.4474 120.273 62.0085 120.266C61.637 120.26 61.2922 120.178 60.9739 120.021C60.6728 119.847 60.5246 119.617 60.5292 119.33C60.6748 118.69 60.8968 118.018 61.1953 117.314C61.5111 116.593 61.9572 115.638 62.5339 114.448L63.5873 111.983C64.1675 110.574 64.6938 109.367 65.1661 108.361C65.6553 107.356 66.2911 106.168 67.0733 104.796C67.1779 104.595 67.3495 104.429 67.588 104.297C67.8269 104.149 68.0898 104.078 68.3768 104.082C68.6975 104.087 68.925 104.116 69.0593 104.169C69.2106 104.206 69.3277 104.275 69.4105 104.378C69.4935 104.463 69.6171 104.651 69.7813 104.941C70.3407 105.845 70.8152 106.773 71.205 107.725C71.6117 108.677 72.1221 109.995 72.7364 111.676L73.2463 113.027C73.6992 114.25 74.0877 115.278 74.4119 116.111C74.7532 116.927 75.1294 117.676 75.5404 118.358C75.8034 118.802 75.9335 119.108 75.9307 119.277C75.9241 119.682 75.7924 119.992 75.5356 120.207C75.296 120.406 74.982 120.502 74.5937 120.496C74.1041 120.488 73.7355 120.313 73.4877 119.971ZM70.9793 113.801C70.7186 113.222 70.3465 112.22 69.8632 110.794C69.3646 109.266 68.8609 108.05 68.3521 107.147C68.0182 107.952 67.5284 108.991 66.8829 110.264C66.4479 111.05 65.948 112.19 65.3833 113.684C66.4616 113.837 67.6253 113.923 68.8746 113.944C69.7694 113.958 70.4709 113.911 70.9793 113.801ZM89.8075 122.087C89.3251 121.64 88.7358 121.014 88.0397 120.209C87.2413 120.5 86.5213 120.64 85.8798 120.629C84.7656 120.611 83.738 120.459 82.797 120.174C81.8731 119.872 81.1202 119.446 80.5381 118.896C79.4733 117.916 78.7308 116.848 78.3106 115.693C77.8904 114.538 77.6947 113.074 77.7236 111.302C77.7297 110.93 77.7944 110.585 77.9178 110.266C78.0412 109.947 78.2161 109.579 78.4424 109.16C78.4776 109.076 78.5649 108.901 78.7043 108.633C78.8441 108.348 78.9327 108.088 78.9704 107.852C79.3176 107.266 79.8671 106.71 80.6187 106.182C81.3875 105.637 82.2134 105.211 83.0965 104.905C83.9799 104.581 84.7592 104.425 85.4345 104.436C88.7097 104.49 91.0211 105.65 92.3688 107.918C93.1583 109.214 93.542 110.538 93.52 111.888C93.493 113.543 93.1822 114.998 92.5876 116.255C91.9932 117.495 91.1753 118.461 90.134 119.154C90.7645 119.839 91.2464 120.32 91.5796 120.596C91.6961 120.699 91.8212 120.794 91.9549 120.88C92.1055 120.967 92.2058 121.028 92.2559 121.063C92.4563 121.201 92.598 121.313 92.681 121.399C92.781 121.485 92.8384 121.587 92.8533 121.706C92.8647 122.044 92.7838 122.346 92.6106 122.614C92.4374 122.881 92.0891 123.01 91.5657 123.002C91.1268 122.995 90.7902 122.922 90.5561 122.783C90.3386 122.661 90.1719 122.523 90.0562 122.369C89.9403 122.232 89.8574 122.138 89.8075 122.087ZM82.8391 117.591C83.4934 117.855 83.9549 118.031 84.2236 118.12C84.5095 118.192 84.8128 118.231 85.1336 118.236C85.5388 118.243 85.919 118.224 86.2744 118.179C85.9433 117.768 85.5204 117.297 85.0056 116.765C84.6568 116.405 84.4855 116.039 84.4915 115.667C84.4951 115.448 84.5914 115.238 84.7804 115.039C84.9694 114.839 85.2076 114.733 85.4948 114.721C85.799 114.709 86.0597 114.773 86.277 114.911C86.4945 115.033 86.7443 115.248 87.0264 115.557L88.543 117.304C89.2598 116.843 89.8268 116.244 90.2441 115.508C90.6616 114.755 90.8775 113.939 90.8919 113.061C90.9128 111.778 90.7773 110.763 90.4856 110.015C90.1938 109.267 89.673 108.583 88.9232 107.963C88.5402 107.636 88.046 107.392 87.4407 107.23C86.8523 107.068 86.212 106.982 85.5199 106.971C84.5069 106.954 83.608 107.193 82.8232 107.687C82.0386 108.164 81.428 108.846 80.9914 109.734C80.5716 110.622 80.3524 111.64 80.3337 112.788C80.3009 113.767 80.5062 114.64 80.9496 115.407C81.393 116.174 82.0229 116.902 82.8391 117.591Z" fill="black"/>
</g>
<defs>
<filter id="filter0_d_254_469" x="15.2525" y="21.6038" width="121.193" height="57.2332" filterUnits="userSpaceOnUse" color-interpolation-filters="sRGB">
<feFlood flood-opacity="0" result="BackgroundImageFix"/>
<feColorMatrix in="SourceAlpha" type="matrix" values="0 0 0 0 0 0 0 0 0 0 0 0 0 0 0 0 0 0 127 0" result="hardAlpha"/>
<feOffset dx="3.78792" dy="3.24679"/>
<feGaussianBlur stdDeviation="5.60071"/>
<feComposite in2="hardAlpha" operator="out"/>
<feColorMatrix type="matrix" values="0 0 0 0 1 0 0 0 0 1 0 0 0 0 1 0 0 0 1 0"/>
<feBlend mode="normal" in2="BackgroundImageFix" result="effect1_dropShadow_254_469"/>
<feBlend mode="normal" in="SourceGraphic" in2="effect1_dropShadow_254_469" result="shape"/>
</filter>
<filter id="filter1_d_254_469" x="40.7261" y="94.1236" width="71.1166" height="46.4519" filterUnits="userSpaceOnUse" color-interpolation-filters="sRGB">
<feFlood flood-opacity="0" result="BackgroundImageFix"/>
<feColorMatrix in="SourceAlpha" type="matrix" values="0 0 0 0 0 0 0 0 0 0 0 0 0 0 0 0 0 0 127 0" result="hardAlpha"/>
<feOffset dx="4.59979" dy="3.94267"/>
<feGaussianBlur stdDeviation="6.80111"/>
<feComposite in2="hardAlpha" operator="out"/>
<feColorMatrix type="matrix" values="0 0 0 0 1 0 0 0 0 1 0 0 0 0 1 0 0 0 1 0"/>
<feBlend mode="normal" in2="BackgroundImageFix" result="effect1_dropShadow_254_469"/>
<feBlend mode="normal" in="SourceGraphic" in2="effect1_dropShadow_254_469" result="shape"/>
</filter>
</defs>
</svg>
