<svg width="84" height="61" viewBox="0 0 84 61" fill="none" xmlns="http://www.w3.org/2000/svg">
<g opacity="0.32">
<path fill-rule="evenodd" clip-rule="evenodd" d="M69.7581 35.6998C67.352 37.192 65.6359 39.3929 62.7822 40.4374C49.875 41.7058 44.8204 35.1589 38.2363 30.1042C37.0985 31.1115 35.8675 32.0254 35.4385 33.7413C36.8374 35.6811 37.9564 37.9194 39.0569 40.1576C43.6453 44.9698 48.1218 49.8753 58.5855 48.8122C65.2069 47.5252 69.1985 43.6082 73.6563 40.1576C72.8356 38.1805 71.7165 36.5019 69.7581 35.6998ZM59.1637 46.033C46.1633 47.5811 40.9967 39.8219 37.3969 32.9207C37.658 32.7155 37.8259 32.4171 37.9564 32.0814C44.0556 37.9754 49.8378 44.1864 63.062 42.9554C65.7852 42.3212 68.0421 39.7473 69.7581 39.0572C67.669 42.8249 63.3604 44.373 59.1637 46.033Z" fill="#F4D8BA"/>
<path fill-rule="evenodd" clip-rule="evenodd" d="M82.8892 26.5045C77.8159 14.6418 69.0308 6.50955 55.2657 3.33872H48.2899C45.2869 4.1594 42.713 5.40907 39.9152 6.41628C36.2407 8.69182 33.0139 11.4337 29.8617 14.2315C14.0635 16.5816 6.69604 7.68461 0.279768 0C0.279768 0.391691 0.149216 0.615537 0 0.839361C1.58542 17.4769 13.448 26.2807 25.9448 32.9207C26.4484 44.9886 31.3166 52.6545 39.0571 57.4667C45.175 59.6489 52.3187 61.2904 59.9846 60.5443C70.5043 59.5184 77.5735 52.3561 81.4717 45.1937C83.1318 40.195 83.4675 32.8648 82.8706 26.5045H82.8892ZM69.2174 54.4078C62.2229 58.8096 47.7676 58.0449 40.1949 54.6875C33.3497 51.0318 30.1416 43.7202 28.2017 35.1589V30.9809C16.4697 25.6838 6.58412 18.5587 2.25687 5.87541C2.96564 6.00598 4.14072 8.07633 5.05466 8.95297C10.7435 14.2315 18.7452 18.6893 29.6193 17.8872C32.044 17.6074 32.3052 15.1827 33.7973 13.989C38.3857 10.6689 43.0674 7.44214 49.4277 5.89402C58.8469 5.40907 63.9389 8.61725 69.236 12.8699C73.7498 16.4884 77.6667 20.4053 79.8303 26.262C82.2924 39.6168 77.1445 49.6515 69.236 54.4451L69.2174 54.4078Z" fill="#F4D8BA"/>
<path fill-rule="evenodd" clip-rule="evenodd" d="M63.9011 31.5218C67.7994 30.2908 68.2284 22.9792 64.7405 20.9275C59.462 20.2001 59.5739 24.8631 59.4434 29.3023C60.4319 30.5333 61.4577 31.7456 63.9011 31.5405V31.5218ZM63.9011 22.3078C64.7778 23.4829 65.4306 24.8817 65.3 27.0453C64.4047 28.0152 63.6587 29.1344 61.6629 29.0038C60.6557 27.0454 60.7676 21.9347 63.9011 22.3078Z" fill="#F4D8BA"/>
<path fill-rule="evenodd" clip-rule="evenodd" d="M49.3904 25.1056C50.7147 23.3337 51.9457 19.3608 50.2297 17.0107C45.1751 12.5715 40.5307 21.7109 44.373 25.3854C45.8092 25.9263 48.2713 25.7398 49.3904 25.1056ZM48.8308 18.1297C49.6515 21.0021 48.5324 24.0797 45.1937 23.7067C43.086 20.9649 45.5668 15.3133 48.8308 18.1297Z" fill="#F4D8BA"/>
</g>
</svg>
