<svg width="18" height="19" viewBox="0 0 18 19" fill="none" xmlns="http://www.w3.org/2000/svg">
<path d="M12.179 18.2062C12.0188 18.2062 11.8655 18.1504 11.7401 18.0529L7.43487 14.5562L2.11252 16.1235C1.85476 16.2001 1.58307 16.1235 1.40194 15.9284C1.22081 15.7334 1.17205 15.4548 1.26262 15.204L3.25501 10.0287L0.120121 5.45238C-0.0261738 5.23645 -0.0401088 4.95087 0.085287 4.72101C0.217649 4.49115 0.461474 4.35184 0.733165 4.36577L6.27148 4.66528L9.65717 0.270075C9.81739 0.0611109 10.0821 -0.0364022 10.3468 0.0123561C10.6046 0.0680798 10.8136 0.263114 10.8833 0.51387L12.3114 5.8703L17.5362 7.73009C17.787 7.82064 17.9612 8.04353 17.996 8.30822C18.0238 8.5729 17.9054 8.83063 17.6825 8.97691L13.0289 11.993L12.8757 17.5375C12.8687 17.8021 12.7085 18.039 12.4716 18.1504C12.381 18.1922 12.2765 18.2131 12.179 18.2131V18.2062ZM7.58814 13.0865C7.74836 13.0865 7.90162 13.1423 8.02702 13.2398L11.5242 16.0747L11.6496 11.575C11.6496 11.3452 11.775 11.1362 11.97 11.0108L15.7458 8.56595L11.5033 7.05444C11.2873 6.97782 11.1201 6.79671 11.0644 6.58078L9.90796 2.23434L7.16318 5.80066C7.02385 5.98176 6.8079 6.08624 6.57104 6.07231L2.07769 5.82851L4.62043 9.54111C4.7528 9.72917 4.78066 9.97296 4.69707 10.1819L3.08085 14.3821L7.40004 13.1144C7.46274 13.0935 7.5324 13.0865 7.5951 13.0865H7.58814Z" fill="#2A243A"/>
</svg>
