<?xml version="1.0" encoding="utf-8"?>
<!-- Generator: Adobe Illustrator 27.3.1, SVG Export Plug-In . SVG Version: 6.00 Build 0)  -->
<svg version="1.1" id="Layer_1" xmlns="http://www.w3.org/2000/svg" xmlns:xlink="http://www.w3.org/1999/xlink" x="0px" y="0px"
	 viewBox="0 0 1440 1045" style="enable-background:new 0 0 1440 1045;" xml:space="preserve">
<style type="text/css">
	.st0{fill:#FFFFFF;filter:url(#Adobe_OpacityMaskFilter);}
	
		.st1{mask:url(#path-1-inside-1_254_506_00000180330447669694414710000006815345283569752728_);fill:#4B4EFF;stroke:#000000;stroke-width:8;}
</style>
<defs>
	<filter id="Adobe_OpacityMaskFilter" filterUnits="userSpaceOnUse" x="-44" y="175.4" width="1531" height="736.8">
		<feColorMatrix  type="matrix" values="1 0 0 0 0  0 1 0 0 0  0 0 1 0 0  0 0 0 1 0"/>
	</filter>
</defs>
<mask maskUnits="userSpaceOnUse" x="-44" y="175.4" width="1531" height="736.8" id="path-1-inside-1_254_506_00000180330447669694414710000006815345283569752728_">
	<path class="st0" d="M1464.2,330c-6,5.6-13.1,11.6-13.1,19c0,7.4,7,13.5,13.1,18.8l4,3.7c6.7,5.8,14.1,12.7,14.1,21.1
		c0,8.5-7.4,15.1-14.1,20.9l-4,3.7c-6,5.6-13.1,11.6-13.1,19c0,7.1,7,13.5,13.1,18.8l4,3.7c6.7,5.8,14.1,12.7,14.1,21.1
		c0,8.5-7.4,15.1-14.1,20.9l-4,3.7c-6,5.6-13.1,11.6-13.1,19s7,13.5,13.1,18.8l4,3.7c6.7,5.8,14.1,12.7,14.1,21.1
		c0,8.5-7.4,15.1-14.1,20.9l-4,3.7c-6,5.6-13.1,11.6-13.1,19s7,13.5,13.1,18.8l4,3.7c6.7,5.8,14.1,12.7,14.1,21.1
		c0,8.5-7.4,15.1-14.1,20.9l-4,3.7c-6,5.6-13.1,11.6-13.1,19c0,7.1,7,13.5,13.1,18.8l4,3.7c6.7,5.8,14.1,12.7,14.1,21.1
		c0,8.5-7.4,15.1-14.1,20.9l-4,3.7c-6,5.6-13.1,11.6-13.1,19c0,7.4,7,13.5,13.1,18.8l4,3.7c6.7,5.8,14.1,12.7,14.1,21.1
		c0,8.5-7.4,15.1-14.1,20.9l-4,3.7c-6,5.6-13.1,11.6-13.1,19c0,7.1,7,13.5,13.1,18.8l3.3,3.2l-3.7,2.6c-7.7,5.3-16.4,11.1-27.5,11.1
		h-0.3c-11.1,0-19.8-5.8-27.5-11.1l-4.7-3.2c-7.4-4.8-15.4-10.3-24.8-10.3h-0.3c-9.4,0-17.4,5.3-24.8,10.3l-4.7,2.9
		c-7.7,5.3-16.4,11.1-27.8,11.1c-11.1,0-19.8-5.8-27.5-11.1l-4.7-3.2c-7-4.8-15.4-10.3-24.8-10.3h-0.3c-9.4,0-17.4,5.3-24.8,10.3
		l-4.7,2.9c-7.7,5.3-16.4,11.1-27.8,11.1c-11.1,0-19.8-5.8-27.5-11.1l-4.7-3.2c-7.4-4.8-15.8-10.3-25.1-10.3
		c-9.4,0-17.4,5.3-24.8,10.3l-4.7,2.9c-7.7,5.3-16.8,11.1-27.8,11.1c-11.1,0-19.8-5.8-27.5-11.1l-4.7-3.2
		c-7.4-4.8-15.4-10.3-24.8-10.3h-0.3c-9.4,0-17.4,5.3-24.8,10.3l-4.7,2.9c-7.7,5.3-16.8,11.1-27.8,11.1c-11.1,0-19.8-5.8-27.5-11.1
		l-4.7-3.2c-7.4-4.8-15.4-10.3-25.1-10.3c-9.4,0-17.4,5.3-24.8,10.3l-4.7,2.9c-7.7,5.3-16.8,11.1-27.8,11.1
		c-11.1,0-19.8-5.8-27.5-11.1l-4.7-3.2c-7-4.8-15.4-10.3-24.8-10.3h-0.3c-9.4,0-17.4,5.3-24.8,10.3l-4.7,2.9
		c-7.7,5.3-16.4,11.1-27.8,11.1c-11.1,0-19.8-5.8-27.5-11.1l-4.7-3.2c-7.4-4.8-15.4-10.3-24.8-10.3h2c-9.4,0-17.4,5.3-24.8,10.3
		l-4.7,2.9c-7.7,5.3-16.4,11.1-27.8,11.1c-11.1,0-19.8-5.8-27.5-11.1l-4.7-3.2c-7.4-4.8-15.4-10.3-25.1-10.3
		c-9.4,0-17.4,5.3-24.8,10.3l-4.7,2.9c-7.7,5.3-16.8,11.1-27.8,11.1c-11.1,0-19.8-5.8-27.5-11.1l-4.7-3.2
		c-7.4-4.8-15.4-10.3-24.8-10.3h-0.3c-9.4,0-17.4,5.3-24.8,10.3l-4.4,2.9c-7.7,5.3-16.8,11.1-27.8,11.1s-19.8-5.8-27.5-11.1
		l-4.7-3.2c-7-4.8-15.4-10.3-24.8-10.3h-0.3c-9.4,0-17.4,5.3-24.8,10.3l-4.7,2.9c-7.7,5.3-16.8,11.1-27.8,11.1
		c-11.1,0-19.8-5.8-27.5-11.1l-4.7-3.2c-7.4-4.8-15.8-10.3-25.1-10.3c-9.4,0-17.4,5.3-24.8,10.3l-4.7,2.9
		c-7.7,5.3-16.8,11.1-27.8,11.1c-11.1,0-19.8-5.8-27.5-11.1l-4.7-3.2c-7.4-4.8-15.4-10.3-24.8-10.3h-0.3c-9.4,0-17.4,5.3-24.8,10.3
		l-4.4,2.9C83.7,899.2,75,905,63.6,905c-11.1,0-19.8-5.8-27.5-11.1l-4.7-3.2C24,886,16,880.4,6.6,880.4H6.3
		c-9.4,0-17.1,5.3-24.8,10.3l-4,2.6l-3.4-2.9c-6.7-5.8-14.1-12.7-14.1-21.1c0-8.5,7.4-15.1,14.1-20.9l4-3.7c6-5.6,13.1-11.6,12.7-19
		c0-7.1-7-13.5-13.1-18.8l-4-3.7c-6.7-5.8-14.1-12.7-13.7-21.1c0-8.5,7.4-15.1,14.1-20.9l4-3.7c6-5.6,13.1-11.6,12.7-19
		c0-7.4-7-13.5-13.1-18.8l-4-3.7c-6.7-5.8-14.1-12.7-13.7-21.1c0-8.5,7.4-15.1,14.1-20.9l4-3.7c6-5.6,13.1-11.6,12.7-19
		c0-7.1-7-13.5-13.1-18.8l-4-3.7C-33,623-40.3,616.1-40,607.6c0-8.5,7.4-15.1,14.1-20.9l4-3.7c6-5.6,13.1-11.6,12.7-19
		c0-7.1-7-13.5-13.1-18.8l-4-3.7c-6.7-5.8-14.1-12.7-13.7-21.1c0-8.5,7.4-15.1,14.1-20.9l4-3.7c6-5.6,13.1-11.6,12.7-19
		c0-7.4-7-13.5-13.1-18.8l-4-3.7c-6.7-5.8-14.1-12.7-13.7-21.1c0-8.5,7.4-15.1,14.1-20.9l4-3.7c6-5.6,13.1-11.6,12.7-19
		c0-7.1-7-13.5-13.1-18.8l-4-3.7c-6.7-5.8-14.1-12.7-13.7-21.1c0-8.5,7.4-15.1,14.1-20.9l4-3.7c6-5.6,13.1-11.6,12.7-19
		c0-7.4-7-13.5-13.1-18.8l-4-3.7C-33,274-40.3,267.1-40,258.7c0-8.5,7.4-15.1,14.1-20.9l4-3.7c6-5.6,13.1-11.6,12.7-19
		c0-7.1-7-13.5-13.1-18.8l-3.4-3.2l3.7-2.6c7.7-5.3,16.8-11.1,27.8-11.1c11.1,0,19.8,5.8,27.5,11.1l4.7,3.2
		c7.4,4.8,15.4,10.3,25.1,10.3c9.4,0,17.4-5.3,24.8-10.3l4.7-2.9c7.7-5.3,16.4-11.1,27.5-11.1h0.3c11.1,0,19.8,5.8,27.5,11.1
		l4.7,3.2c7.4,4.8,15.4,10.3,25.1,10.3c9.4,0,17.4-5.3,24.8-10.3l4.7-2.9c7.7-5.3,16.4-11.1,27.5-11.1h0.3
		c11.1,0,19.8,5.8,27.5,11.1l4.4,3.2c7.4,4.8,15.8,10.3,25.1,10.3c9.4,0,17.4-5.3,24.8-10.3l4.7-2.9c7.7-5.3,16.4-11.1,27.5-11.1
		h0.3c11.1,0,19.8,5.8,27.5,11.1l4.7,3.2c7.4,4.8,15.4,10.3,25.1,10.3c9.4,0,17.4-5.3,24.8-10.3l4.7-2.9
		c7.7-5.3,16.4-11.1,27.5-11.1h0.3c11.1,0,19.8,5.8,27.5,11.1l4.7,3.2c7.4,4.8,15.4,10.3,25.1,10.3c9.4,0,17.4-5.3,24.8-10.3
		l4.7-2.9c7.7-5.3,16.4-11.1,27.5-11.1h0.3c11.1,0,19.8,5.8,27.5,11.1l4.7,3.2c7.4,4.8,15.8,10.3,25.1,10.3
		c9.4,0,17.4-5.3,24.8-10.3l4.7-2.9c7.7-5.3,16.4-11.1,27.5-11.1h0.3c11.1,0,19.8,5.8,27.5,11.1l4.4,3.2
		c7.4,4.8,15.4,10.3,25.1,10.3c9.4,0,17.4-5.3,24.8-10.3l4.4-2.9c7.7-5.3,16.4-11.1,27.5-11.1h0.3c11.1,0,19.8,5.8,27.5,11.1
		l4.7,3.2c7.4,4.8,15.4,10.3,25.1,10.3c9.4,0,17.4-5.3,24.8-10.3l4.7-2.9c7.7-5.3,16.8-11.1,27.8-11.1c11.1,0,19.8,5.8,27.5,11.1
		l4.7,3.2c7.4,4.8,15.4,10.3,25.1,10.3c9.4,0,17.4-5.3,24.8-10.3l4.7-2.9c7.7-5.3,16.4-11.1,27.5-11.1h0.3
		c11.1,0,19.8,5.8,27.5,11.1l4.7,3.2c7.4,4.8,15.4,10.3,25.1,10.3c9.4,0,17.4-5.3,24.8-10.3l4.7-2.9c7.7-5.3,16.4-11.1,27.5-11.1
		h0.3c11.1,0,19.8,5.8,27.5,11.1l4.7,3.2c7.4,4.8,15.4,10.3,24.8,10.3h0.3c9.4,0,17.4-5.3,24.8-10.3l4.4-2.9
		c7.7-5.3,16.4-11.1,27.5-11.1h0.3c11.1,0,19.8,5.8,27.5,11.1l4.7,3.2c7.4,4.8,15.4,10.3,25.1,10.3c9.4,0,17.4-5.3,24.8-10.3
		l4.7-2.9c7.7-5.3,16.4-11.1,27.5-11.1h0.3c11.1,0,19.8,5.8,27.5,11.1l4.4,3.2c7.4,4.8,15.4,10.3,25.1,10.3
		c9.4,0,17.4-5.3,24.8-10.3l3.7-2.6l3.4,2.9c6.7,5.8,14.1,12.7,14.1,21.1s-7.4,15.1-14.1,20.9l-4,3.7c-6,5.6-13.1,11.6-13.1,19
		s7,13.5,13.1,18.8l4,3.7c6.7,5.8,14.1,12.7,14.1,21.1c0,8.5-7.4,15.1-14.1,20.9L1464.2,330z"/>
</mask>
<path class="st1" d="M1464.2,330c-6,5.6-13.1,11.6-13.1,19c0,7.4,7,13.5,13.1,18.8l4,3.7c6.7,5.8,14.1,12.7,14.1,21.1
	c0,8.5-7.4,15.1-14.1,20.9l-4,3.7c-6,5.6-13.1,11.6-13.1,19c0,7.1,7,13.5,13.1,18.8l4,3.7c6.7,5.8,14.1,12.7,14.1,21.1
	c0,8.5-7.4,15.1-14.1,20.9l-4,3.7c-6,5.6-13.1,11.6-13.1,19s7,13.5,13.1,18.8l4,3.7c6.7,5.8,14.1,12.7,14.1,21.1
	c0,8.5-7.4,15.1-14.1,20.9l-4,3.7c-6,5.6-13.1,11.6-13.1,19s7,13.5,13.1,18.8l4,3.7c6.7,5.8,14.1,12.7,14.1,21.1
	c0,8.5-7.4,15.1-14.1,20.9l-4,3.7c-6,5.6-13.1,11.6-13.1,19c0,7.1,7,13.5,13.1,18.8l4,3.7c6.7,5.8,14.1,12.7,14.1,21.1
	c0,8.5-7.4,15.1-14.1,20.9l-4,3.7c-6,5.6-13.1,11.6-13.1,19c0,7.4,7,13.5,13.1,18.8l4,3.7c6.7,5.8,14.1,12.7,14.1,21.1
	c0,8.5-7.4,15.1-14.1,20.9l-4,3.7c-6,5.6-13.1,11.6-13.1,19c0,7.1,7,13.5,13.1,18.8l3.3,3.2l-3.7,2.6c-7.7,5.3-16.4,11.1-27.5,11.1
	h-0.3c-11.1,0-19.8-5.8-27.5-11.1l-4.7-3.2c-7.4-4.8-15.4-10.3-24.8-10.3h-0.3c-9.4,0-17.4,5.3-24.8,10.3l-4.7,2.9
	c-7.7,5.3-16.4,11.1-27.8,11.1c-11.1,0-19.8-5.8-27.5-11.1l-4.7-3.2c-7-4.8-15.4-10.3-24.8-10.3h-0.3c-9.4,0-17.4,5.3-24.8,10.3
	l-4.7,2.9c-7.7,5.3-16.4,11.1-27.8,11.1c-11.1,0-19.8-5.8-27.5-11.1l-4.7-3.2c-7.4-4.8-15.8-10.3-25.1-10.3
	c-9.4,0-17.4,5.3-24.8,10.3l-4.7,2.9c-7.7,5.3-16.8,11.1-27.8,11.1c-11.1,0-19.8-5.8-27.5-11.1l-4.7-3.2
	c-7.4-4.8-15.4-10.3-24.8-10.3h-0.3c-9.4,0-17.4,5.3-24.8,10.3l-4.7,2.9c-7.7,5.3-16.8,11.1-27.8,11.1c-11.1,0-19.8-5.8-27.5-11.1
	l-4.7-3.2c-7.4-4.8-15.4-10.3-25.1-10.3c-9.4,0-17.4,5.3-24.8,10.3l-4.7,2.9c-7.7,5.3-16.8,11.1-27.8,11.1
	c-11.1,0-19.8-5.8-27.5-11.1l-4.7-3.2c-7-4.8-15.4-10.3-24.8-10.3h-0.3c-9.4,0-17.4,5.3-24.8,10.3l-4.7,2.9
	c-7.7,5.3-16.4,11.1-27.8,11.1c-11.1,0-19.8-5.8-27.5-11.1l-4.7-3.2c-7.4-4.8-15.4-10.3-24.8-10.3h2c-9.4,0-17.4,5.3-24.8,10.3
	l-4.7,2.9c-7.7,5.3-16.4,11.1-27.8,11.1c-11.1,0-19.8-5.8-27.5-11.1l-4.7-3.2c-7.4-4.8-15.4-10.3-25.1-10.3
	c-9.4,0-17.4,5.3-24.8,10.3l-4.7,2.9c-7.7,5.3-16.8,11.1-27.8,11.1c-11.1,0-19.8-5.8-27.5-11.1l-4.7-3.2
	c-7.4-4.8-15.4-10.3-24.8-10.3h-0.3c-9.4,0-17.4,5.3-24.8,10.3l-4.4,2.9c-7.7,5.3-16.8,11.1-27.8,11.1s-19.8-5.8-27.5-11.1l-4.7-3.2
	c-7-4.8-15.4-10.3-24.8-10.3h-0.3c-9.4,0-17.4,5.3-24.8,10.3l-4.7,2.9c-7.7,5.3-16.8,11.1-27.8,11.1c-11.1,0-19.8-5.8-27.5-11.1
	l-4.7-3.2c-7.4-4.8-15.8-10.3-25.1-10.3c-9.4,0-17.4,5.3-24.8,10.3l-4.7,2.9c-7.7,5.3-16.8,11.1-27.8,11.1
	c-11.1,0-19.8-5.8-27.5-11.1l-4.7-3.2c-7.4-4.8-15.4-10.3-24.8-10.3h-0.3c-9.4,0-17.4,5.3-24.8,10.3l-4.4,2.9
	C83.7,899.2,75,905,63.6,905c-11.1,0-19.8-5.8-27.5-11.1l-4.7-3.2C24,886,16,880.4,6.6,880.4H6.3c-9.4,0-17.1,5.3-24.8,10.3l-4,2.6
	l-3.4-2.9c-6.7-5.8-14.1-12.7-14.1-21.1c0-8.5,7.4-15.1,14.1-20.9l4-3.7c6-5.6,13.1-11.6,12.7-19c0-7.1-7-13.5-13.1-18.8l-4-3.7
	c-6.7-5.8-14.1-12.7-13.7-21.1c0-8.5,7.4-15.1,14.1-20.9l4-3.7c6-5.6,13.1-11.6,12.7-19c0-7.4-7-13.5-13.1-18.8l-4-3.7
	c-6.7-5.8-14.1-12.7-13.7-21.1c0-8.5,7.4-15.1,14.1-20.9l4-3.7c6-5.6,13.1-11.6,12.7-19c0-7.1-7-13.5-13.1-18.8l-4-3.7
	C-33,623-40.3,616.1-40,607.6c0-8.5,7.4-15.1,14.1-20.9l4-3.7c6-5.6,13.1-11.6,12.7-19c0-7.1-7-13.5-13.1-18.8l-4-3.7
	c-6.7-5.8-14.1-12.7-13.7-21.1c0-8.5,7.4-15.1,14.1-20.9l4-3.7c6-5.6,13.1-11.6,12.7-19c0-7.4-7-13.5-13.1-18.8l-4-3.7
	c-6.7-5.8-14.1-12.7-13.7-21.1c0-8.5,7.4-15.1,14.1-20.9l4-3.7c6-5.6,13.1-11.6,12.7-19c0-7.1-7-13.5-13.1-18.8l-4-3.7
	c-6.7-5.8-14.1-12.7-13.7-21.1c0-8.5,7.4-15.1,14.1-20.9l4-3.7c6-5.6,13.1-11.6,12.7-19c0-7.4-7-13.5-13.1-18.8l-4-3.7
	C-33,274-40.3,267.1-40,258.7c0-8.5,7.4-15.1,14.1-20.9l4-3.7c6-5.6,13.1-11.6,12.7-19c0-7.1-7-13.5-13.1-18.8l-3.4-3.2l3.7-2.6
	c7.7-5.3,16.8-11.1,27.8-11.1c11.1,0,19.8,5.8,27.5,11.1l4.7,3.2c7.4,4.8,15.4,10.3,25.1,10.3c9.4,0,17.4-5.3,24.8-10.3l4.7-2.9
	c7.7-5.3,16.4-11.1,27.5-11.1h0.3c11.1,0,19.8,5.8,27.5,11.1l4.7,3.2c7.4,4.8,15.4,10.3,25.1,10.3c9.4,0,17.4-5.3,24.8-10.3l4.7-2.9
	c7.7-5.3,16.4-11.1,27.5-11.1h0.3c11.1,0,19.8,5.8,27.5,11.1l4.4,3.2c7.4,4.8,15.8,10.3,25.1,10.3c9.4,0,17.4-5.3,24.8-10.3l4.7-2.9
	c7.7-5.3,16.4-11.1,27.5-11.1h0.3c11.1,0,19.8,5.8,27.5,11.1l4.7,3.2c7.4,4.8,15.4,10.3,25.1,10.3c9.4,0,17.4-5.3,24.8-10.3l4.7-2.9
	c7.7-5.3,16.4-11.1,27.5-11.1h0.3c11.1,0,19.8,5.8,27.5,11.1l4.7,3.2c7.4,4.8,15.4,10.3,25.1,10.3c9.4,0,17.4-5.3,24.8-10.3l4.7-2.9
	c7.7-5.3,16.4-11.1,27.5-11.1h0.3c11.1,0,19.8,5.8,27.5,11.1l4.7,3.2c7.4,4.8,15.8,10.3,25.1,10.3c9.4,0,17.4-5.3,24.8-10.3l4.7-2.9
	c7.7-5.3,16.4-11.1,27.5-11.1h0.3c11.1,0,19.8,5.8,27.5,11.1l4.4,3.2c7.4,4.8,15.4,10.3,25.1,10.3c9.4,0,17.4-5.3,24.8-10.3l4.4-2.9
	c7.7-5.3,16.4-11.1,27.5-11.1h0.3c11.1,0,19.8,5.8,27.5,11.1l4.7,3.2c7.4,4.8,15.4,10.3,25.1,10.3c9.4,0,17.4-5.3,24.8-10.3l4.7-2.9
	c7.7-5.3,16.8-11.1,27.8-11.1c11.1,0,19.8,5.8,27.5,11.1l4.7,3.2c7.4,4.8,15.4,10.3,25.1,10.3c9.4,0,17.4-5.3,24.8-10.3l4.7-2.9
	c7.7-5.3,16.4-11.1,27.5-11.1h0.3c11.1,0,19.8,5.8,27.5,11.1l4.7,3.2c7.4,4.8,15.4,10.3,25.1,10.3c9.4,0,17.4-5.3,24.8-10.3l4.7-2.9
	c7.7-5.3,16.4-11.1,27.5-11.1h0.3c11.1,0,19.8,5.8,27.5,11.1l4.7,3.2c7.4,4.8,15.4,10.3,24.8,10.3h0.3c9.4,0,17.4-5.3,24.8-10.3
	l4.4-2.9c7.7-5.3,16.4-11.1,27.5-11.1h0.3c11.1,0,19.8,5.8,27.5,11.1l4.7,3.2c7.4,4.8,15.4,10.3,25.1,10.3c9.4,0,17.4-5.3,24.8-10.3
	l4.7-2.9c7.7-5.3,16.4-11.1,27.5-11.1h0.3c11.1,0,19.8,5.8,27.5,11.1l4.4,3.2c7.4,4.8,15.4,10.3,25.1,10.3c9.4,0,17.4-5.3,24.8-10.3
	l3.7-2.6l3.4,2.9c6.7,5.8,14.1,12.7,14.1,21.1s-7.4,15.1-14.1,20.9l-4,3.7c-6,5.6-13.1,11.6-13.1,19s7,13.5,13.1,18.8l4,3.7
	c6.7,5.8,14.1,12.7,14.1,21.1c0,8.5-7.4,15.1-14.1,20.9L1464.2,330z"/>
</svg>
