<?xml version="1.0" encoding="utf-8"?>
<!-- Generator: Adobe Illustrator 27.3.1, SVG Export Plug-In . SVG Version: 6.00 Build 0)  -->
<svg version="1.1" id="Layer_1" xmlns="http://www.w3.org/2000/svg" xmlns:xlink="http://www.w3.org/1999/xlink" x="0px" y="0px"
	 viewBox="0 0 1440 1045" style="enable-background:new 0 0 1440 1045;" xml:space="preserve">
<style type="text/css">
	.st0{fill:#FFFFFF;filter:url(#Adobe_OpacityMaskFilter);}
	
		.st1{mask:url(#path-1-inside-1_254_506_00000180330447669694414710000006815345283569752728_);fill:#4B4EFF;stroke:#000000;stroke-width:8;}
</style>
<defs>
	<filter id="Adobe_OpacityMaskFilter" filterUnits="userSpaceOnUse" x="-44" y="178.4" width="1531" height="688.1">
		<feColorMatrix  type="matrix" values="1 0 0 0 0  0 1 0 0 0  0 0 1 0 0  0 0 0 1 0"/>
	</filter>
</defs>
<mask maskUnits="userSpaceOnUse" x="-44" y="178.4" width="1531" height="688.1" id="path-1-inside-1_254_506_00000180330447669694414710000006815345283569752728_">
	<path class="st0" d="M1464.2,323c-6,5.2-13.1,10.9-13.1,17.8c0,6.9,7,12.6,13.1,17.5l4,3.5c6.7,5.4,14.1,11.8,14.1,19.7
		s-7.4,14.1-14.1,19.5l-4,3.5c-6,5.2-13.1,10.9-13.1,17.8c0,6.7,7,12.6,13.1,17.5l4,3.5c6.7,5.4,14.1,11.8,14.1,19.7
		c0,7.9-7.4,14.1-14.1,19.5l-4,3.5c-6,5.2-13.1,10.9-13.1,17.8s7,12.6,13.1,17.5l4,3.5c6.7,5.4,14.1,11.8,14.1,19.7
		c0,7.9-7.4,14.1-14.1,19.5l-4,3.5c-6,5.2-13.1,10.9-13.1,17.8s7,12.6,13.1,17.5l4,3.5c6.7,5.4,14.1,11.8,14.1,19.7
		c0,7.9-7.4,14.1-14.1,19.5l-4,3.5c-6,5.2-13.1,10.9-13.1,17.8c0,6.7,7,12.6,13.1,17.5l4,3.5c6.7,5.4,14.1,11.8,14.1,19.7
		s-7.4,14.1-14.1,19.5l-4,3.5c-6,5.2-13.1,10.9-13.1,17.8c0,6.9,7,12.6,13.1,17.5l4,3.5c6.7,5.4,14.1,11.8,14.1,19.7
		c0,7.9-7.4,14.1-14.1,19.5l-4,3.5c-6,5.2-13.1,10.9-13.1,17.8c0,6.7,7,12.6,13.1,17.5l3.3,3l-3.7,2.5c-7.7,4.9-16.4,10.4-27.5,10.4
		h-0.3c-11.1,0-19.8-5.4-27.5-10.4l-4.7-3c-7.4-4.4-15.4-9.6-24.8-9.6h-0.3c-9.4,0-17.4,4.9-24.8,9.6l-4.7,2.7
		c-7.7,4.9-16.4,10.4-27.8,10.4c-11.1,0-19.8-5.4-27.5-10.4l-4.7-3c-7-4.4-15.4-9.6-24.8-9.6h-0.3c-9.4,0-17.4,4.9-24.8,9.6
		l-4.7,2.7c-7.7,4.9-16.4,10.4-27.8,10.4c-11.1,0-19.8-5.4-27.5-10.4l-4.7-3c-7.4-4.4-15.8-9.6-25.1-9.6c-9.4,0-17.4,4.9-24.8,9.6
		l-4.7,2.7c-7.7,4.9-16.8,10.4-27.8,10.4c-11.1,0-19.8-5.4-27.5-10.4l-4.7-3c-7.4-4.4-15.4-9.6-24.8-9.6h-0.3
		c-9.4,0-17.4,4.9-24.8,9.6l-4.7,2.7c-7.7,4.9-16.8,10.4-27.8,10.4c-11.1,0-19.8-5.4-27.5-10.4l-4.7-3c-7.4-4.4-15.4-9.6-25.1-9.6
		c-9.4,0-17.4,4.9-24.8,9.6l-4.7,2.7c-7.7,4.9-16.8,10.4-27.8,10.4c-11.1,0-19.8-5.4-27.5-10.4l-4.7-3c-7-4.4-15.4-9.6-24.8-9.6
		h-0.3c-9.4,0-17.4,4.9-24.8,9.6l-4.7,2.7c-7.7,4.9-16.4,10.4-27.8,10.4c-11.1,0-19.8-5.4-27.5-10.4l-4.7-3
		c-7.4-4.4-15.4-9.6-24.8-9.6h2c-9.4,0-17.4,4.9-24.8,9.6l-4.7,2.7c-7.7,4.9-16.4,10.4-27.8,10.4c-11.1,0-19.8-5.4-27.5-10.4l-4.7-3
		c-7.4-4.4-15.4-9.6-25.1-9.6c-9.4,0-17.4,4.9-24.8,9.6l-4.7,2.7c-7.7,4.9-16.8,10.4-27.8,10.4c-11.1,0-19.8-5.4-27.5-10.4l-4.7-3
		c-7.4-4.4-15.4-9.6-24.8-9.6h-0.3c-9.4,0-17.4,4.9-24.8,9.6l-4.4,2.7c-7.7,4.9-16.8,10.4-27.8,10.4s-19.8-5.4-27.5-10.4l-4.7-3
		c-7-4.4-15.4-9.6-24.8-9.6h-0.3c-9.4,0-17.4,4.9-24.8,9.6l-4.7,2.7c-7.7,4.9-16.8,10.4-27.8,10.4c-11.1,0-19.8-5.4-27.5-10.4
		l-4.7-3c-7.4-4.4-15.8-9.6-25.1-9.6c-9.4,0-17.4,4.9-24.8,9.6l-4.7,2.7c-7.7,4.9-16.8,10.4-27.8,10.4c-11.1,0-19.8-5.4-27.5-10.4
		l-4.7-3c-7.4-4.4-15.4-9.6-24.8-9.6h-0.3c-9.4,0-17.4,4.9-24.8,9.6l-4.4,2.7c-7.7,4.9-16.4,10.4-27.8,10.4
		c-11.1,0-19.8-5.4-27.5-10.4l-4.7-3c-7.4-4.4-15.4-9.6-24.8-9.6H6.3c-9.4,0-17.1,4.9-24.8,9.6l-4,2.5l-3.4-2.7
		c-6.7-5.4-14.1-11.8-14.1-19.7c0-7.9,7.4-14.1,14.1-19.5l4-3.5c6-5.2,13.1-10.9,12.7-17.8c0-6.7-7-12.6-13.1-17.5l-4-3.5
		c-6.7-5.4-14.1-11.8-13.7-19.7c0-7.9,7.4-14.1,14.1-19.5l4-3.5c6-5.2,13.1-10.9,12.7-17.8c0-6.9-7-12.6-13.1-17.5l-4-3.5
		c-6.7-5.4-14.1-11.8-13.7-19.7c0-7.9,7.4-14.1,14.1-19.5l4-3.5c6-5.2,13.1-10.9,12.7-17.8c0-6.7-7-12.6-13.1-17.5l-4-3.5
		C-33,596.4-40.3,590-40,582.1c0-7.9,7.4-14.1,14.1-19.5l4-3.5c6-5.2,13.1-10.9,12.7-17.8c0-6.7-7-12.6-13.1-17.5l-4-3.5
		C-33,515-40.3,508.6-40,500.7c0-7.9,7.4-14.1,14.1-19.5l4-3.5c6-5.2,13.1-10.9,12.7-17.8c0-6.9-7-12.6-13.1-17.5l-4-3.5
		c-6.7-5.4-14.1-11.8-13.7-19.7c0-7.9,7.4-14.1,14.1-19.5l4-3.5c6-5.2,13.1-10.9,12.7-17.8c0-6.7-7-12.6-13.1-17.5l-4-3.5
		c-6.7-5.4-14.1-11.8-13.7-19.7c0-7.9,7.4-14.1,14.1-19.5l4-3.5c6-5.2,13.1-10.9,12.7-17.8c0-6.9-7-12.6-13.1-17.5l-4-3.5
		c-6.7-5.4-14.1-11.8-13.7-19.7c0-7.9,7.4-14.1,14.1-19.5l4-3.5c6-5.2,13.1-10.9,12.7-17.8c0-6.7-7-12.6-13.1-17.5l-3.4-3l3.7-2.5
		c7.7-4.9,16.8-10.4,27.8-10.4c11.1,0,19.8,5.4,27.5,10.4l4.7,3c7.4,4.4,15.4,9.6,25.1,9.6c9.4,0,17.4-4.9,24.8-9.6l4.7-2.7
		c7.7-4.9,16.4-10.4,27.5-10.4h0.3c11.1,0,19.8,5.4,27.5,10.4l4.7,3c7.4,4.4,15.4,9.6,25.1,9.6c9.4,0,17.4-4.9,24.8-9.6l4.7-2.7
		c7.7-4.9,16.4-10.4,27.5-10.4h0.3c11.1,0,19.8,5.4,27.5,10.4l4.4,3c7.4,4.4,15.8,9.6,25.1,9.6c9.4,0,17.4-4.9,24.8-9.6l4.7-2.7
		c7.7-4.9,16.4-10.4,27.5-10.4h0.3c11.1,0,19.8,5.4,27.5,10.4l4.7,3c7.4,4.4,15.4,9.6,25.1,9.6c9.4,0,17.4-4.9,24.8-9.6l4.7-2.7
		c7.7-4.9,16.4-10.4,27.5-10.4h0.3c11.1,0,19.8,5.4,27.5,10.4l4.7,3c7.4,4.4,15.4,9.6,25.1,9.6c9.4,0,17.4-4.9,24.8-9.6l4.7-2.7
		c7.7-4.9,16.4-10.4,27.5-10.4h0.3c11.1,0,19.8,5.4,27.5,10.4l4.7,3c7.4,4.4,15.8,9.6,25.1,9.6c9.4,0,17.4-4.9,24.8-9.6l4.7-2.7
		c7.7-4.9,16.4-10.4,27.5-10.4h0.3c11.1,0,19.8,5.4,27.5,10.4l4.4,3c7.4,4.4,15.4,9.6,25.1,9.6c9.4,0,17.4-4.9,24.8-9.6l4.4-2.7
		c7.7-4.9,16.4-10.4,27.5-10.4h0.3c11.1,0,19.8,5.4,27.5,10.4l4.7,3c7.4,4.4,15.4,9.6,25.1,9.6c9.4,0,17.4-4.9,24.8-9.6l4.7-2.7
		c7.7-4.9,16.8-10.4,27.8-10.4c11.1,0,19.8,5.4,27.5,10.4l4.7,3c7.4,4.4,15.4,9.6,25.1,9.6c9.4,0,17.4-4.9,24.8-9.6l4.7-2.7
		c7.7-4.9,16.4-10.4,27.5-10.4h0.3c11.1,0,19.8,5.4,27.5,10.4l4.7,3c7.4,4.4,15.4,9.6,25.1,9.6c9.4,0,17.4-4.9,24.8-9.6l4.7-2.7
		c7.7-4.9,16.4-10.4,27.5-10.4h0.3c11.1,0,19.8,5.4,27.5,10.4l4.7,3c7.4,4.4,15.4,9.6,24.8,9.6h0.3c9.4,0,17.4-4.9,24.8-9.6l4.4-2.7
		c7.7-4.9,16.4-10.4,27.5-10.4h0.3c11.1,0,19.8,5.4,27.5,10.4l4.7,3c7.4,4.4,15.4,9.6,25.1,9.6c9.4,0,17.4-4.9,24.8-9.6l4.7-2.7
		c7.7-4.9,16.4-10.4,27.5-10.4h0.3c11.1,0,19.8,5.4,27.5,10.4l4.4,3c7.4,4.4,15.4,9.6,25.1,9.6c9.4,0,17.4-4.9,24.8-9.6l3.7-2.5
		l3.4,2.7c6.7,5.4,14.1,11.8,14.1,19.7s-7.4,14.1-14.1,19.5l-4,3.5c-6,5.2-13.1,10.9-13.1,17.8c0,6.9,7,12.6,13.1,17.5l4,3.5
		c6.7,5.4,14.1,11.8,14.1,19.7c0,7.9-7.4,14.1-14.1,19.5L1464.2,323z"/>
</mask>
<path class="st1" d="M1464.2,323c-6,5.2-13.1,10.9-13.1,17.8c0,6.9,7,12.6,13.1,17.5l4,3.5c6.7,5.4,14.1,11.8,14.1,19.7
	s-7.4,14.1-14.1,19.5l-4,3.5c-6,5.2-13.1,10.9-13.1,17.8c0,6.7,7,12.6,13.1,17.5l4,3.5c6.7,5.4,14.1,11.8,14.1,19.7
	c0,7.9-7.4,14.1-14.1,19.5l-4,3.5c-6,5.2-13.1,10.9-13.1,17.8s7,12.6,13.1,17.5l4,3.5c6.7,5.4,14.1,11.8,14.1,19.7
	c0,7.9-7.4,14.1-14.1,19.5l-4,3.5c-6,5.2-13.1,10.9-13.1,17.8s7,12.6,13.1,17.5l4,3.5c6.7,5.4,14.1,11.8,14.1,19.7
	c0,7.9-7.4,14.1-14.1,19.5l-4,3.5c-6,5.2-13.1,10.9-13.1,17.8c0,6.7,7,12.6,13.1,17.5l4,3.5c6.7,5.4,14.1,11.8,14.1,19.7
	s-7.4,14.1-14.1,19.5l-4,3.5c-6,5.2-13.1,10.9-13.1,17.8c0,6.9,7,12.6,13.1,17.5l4,3.5c6.7,5.4,14.1,11.8,14.1,19.7
	c0,7.9-7.4,14.1-14.1,19.5l-4,3.5c-6,5.2-13.1,10.9-13.1,17.8c0,6.7,7,12.6,13.1,17.5l3.3,3l-3.7,2.5c-7.7,4.9-16.4,10.4-27.5,10.4
	h-0.3c-11.1,0-19.8-5.4-27.5-10.4l-4.7-3c-7.4-4.4-15.4-9.6-24.8-9.6h-0.3c-9.4,0-17.4,4.9-24.8,9.6l-4.7,2.7
	c-7.7,4.9-16.4,10.4-27.8,10.4c-11.1,0-19.8-5.4-27.5-10.4l-4.7-3c-7-4.4-15.4-9.6-24.8-9.6h-0.3c-9.4,0-17.4,4.9-24.8,9.6l-4.7,2.7
	c-7.7,4.9-16.4,10.4-27.8,10.4c-11.1,0-19.8-5.4-27.5-10.4l-4.7-3c-7.4-4.4-15.8-9.6-25.1-9.6c-9.4,0-17.4,4.9-24.8,9.6l-4.7,2.7
	c-7.7,4.9-16.8,10.4-27.8,10.4c-11.1,0-19.8-5.4-27.5-10.4l-4.7-3c-7.4-4.4-15.4-9.6-24.8-9.6h-0.3c-9.4,0-17.4,4.9-24.8,9.6
	l-4.7,2.7c-7.7,4.9-16.8,10.4-27.8,10.4c-11.1,0-19.8-5.4-27.5-10.4l-4.7-3c-7.4-4.4-15.4-9.6-25.1-9.6c-9.4,0-17.4,4.9-24.8,9.6
	l-4.7,2.7c-7.7,4.9-16.8,10.4-27.8,10.4c-11.1,0-19.8-5.4-27.5-10.4l-4.7-3c-7-4.4-15.4-9.6-24.8-9.6h-0.3c-9.4,0-17.4,4.9-24.8,9.6
	l-4.7,2.7c-7.7,4.9-16.4,10.4-27.8,10.4c-11.1,0-19.8-5.4-27.5-10.4l-4.7-3c-7.4-4.4-15.4-9.6-24.8-9.6h2c-9.4,0-17.4,4.9-24.8,9.6
	l-4.7,2.7c-7.7,4.9-16.4,10.4-27.8,10.4c-11.1,0-19.8-5.4-27.5-10.4l-4.7-3c-7.4-4.4-15.4-9.6-25.1-9.6c-9.4,0-17.4,4.9-24.8,9.6
	l-4.7,2.7c-7.7,4.9-16.8,10.4-27.8,10.4c-11.1,0-19.8-5.4-27.5-10.4l-4.7-3c-7.4-4.4-15.4-9.6-24.8-9.6h-0.3
	c-9.4,0-17.4,4.9-24.8,9.6l-4.4,2.7c-7.7,4.9-16.8,10.4-27.8,10.4s-19.8-5.4-27.5-10.4l-4.7-3c-7-4.4-15.4-9.6-24.8-9.6h-0.3
	c-9.4,0-17.4,4.9-24.8,9.6l-4.7,2.7c-7.7,4.9-16.8,10.4-27.8,10.4c-11.1,0-19.8-5.4-27.5-10.4l-4.7-3c-7.4-4.4-15.8-9.6-25.1-9.6
	c-9.4,0-17.4,4.9-24.8,9.6l-4.7,2.7c-7.7,4.9-16.8,10.4-27.8,10.4c-11.1,0-19.8-5.4-27.5-10.4l-4.7-3c-7.4-4.4-15.4-9.6-24.8-9.6
	h-0.3c-9.4,0-17.4,4.9-24.8,9.6l-4.4,2.7c-7.7,4.9-16.4,10.4-27.8,10.4c-11.1,0-19.8-5.4-27.5-10.4l-4.7-3
	c-7.4-4.4-15.4-9.6-24.8-9.6H6.3c-9.4,0-17.1,4.9-24.8,9.6l-4,2.5l-3.4-2.7c-6.7-5.4-14.1-11.8-14.1-19.7c0-7.9,7.4-14.1,14.1-19.5
	l4-3.5c6-5.2,13.1-10.9,12.7-17.8c0-6.7-7-12.6-13.1-17.5l-4-3.5c-6.7-5.4-14.1-11.8-13.7-19.7c0-7.9,7.4-14.1,14.1-19.5l4-3.5
	c6-5.2,13.1-10.9,12.7-17.8c0-6.9-7-12.6-13.1-17.5l-4-3.5c-6.7-5.4-14.1-11.8-13.7-19.7c0-7.9,7.4-14.1,14.1-19.5l4-3.5
	c6-5.2,13.1-10.9,12.7-17.8c0-6.7-7-12.6-13.1-17.5l-4-3.5C-33,596.4-40.3,590-40,582.1c0-7.9,7.4-14.1,14.1-19.5l4-3.5
	c6-5.2,13.1-10.9,12.7-17.8c0-6.7-7-12.6-13.1-17.5l-4-3.5C-33,515-40.3,508.6-40,500.7c0-7.9,7.4-14.1,14.1-19.5l4-3.5
	c6-5.2,13.1-10.9,12.7-17.8c0-6.9-7-12.6-13.1-17.5l-4-3.5c-6.7-5.4-14.1-11.8-13.7-19.7c0-7.9,7.4-14.1,14.1-19.5l4-3.5
	c6-5.2,13.1-10.9,12.7-17.8c0-6.7-7-12.6-13.1-17.5l-4-3.5c-6.7-5.4-14.1-11.8-13.7-19.7c0-7.9,7.4-14.1,14.1-19.5l4-3.5
	c6-5.2,13.1-10.9,12.7-17.8c0-6.9-7-12.6-13.1-17.5l-4-3.5c-6.7-5.4-14.1-11.8-13.7-19.7c0-7.9,7.4-14.1,14.1-19.5l4-3.5
	c6-5.2,13.1-10.9,12.7-17.8c0-6.7-7-12.6-13.1-17.5l-3.4-3l3.7-2.5c7.7-4.9,16.8-10.4,27.8-10.4c11.1,0,19.8,5.4,27.5,10.4l4.7,3
	c7.4,4.4,15.4,9.6,25.1,9.6c9.4,0,17.4-4.9,24.8-9.6l4.7-2.7c7.7-4.9,16.4-10.4,27.5-10.4h0.3c11.1,0,19.8,5.4,27.5,10.4l4.7,3
	c7.4,4.4,15.4,9.6,25.1,9.6c9.4,0,17.4-4.9,24.8-9.6l4.7-2.7c7.7-4.9,16.4-10.4,27.5-10.4h0.3c11.1,0,19.8,5.4,27.5,10.4l4.4,3
	c7.4,4.4,15.8,9.6,25.1,9.6c9.4,0,17.4-4.9,24.8-9.6l4.7-2.7c7.7-4.9,16.4-10.4,27.5-10.4h0.3c11.1,0,19.8,5.4,27.5,10.4l4.7,3
	c7.4,4.4,15.4,9.6,25.1,9.6c9.4,0,17.4-4.9,24.8-9.6l4.7-2.7c7.7-4.9,16.4-10.4,27.5-10.4h0.3c11.1,0,19.8,5.4,27.5,10.4l4.7,3
	c7.4,4.4,15.4,9.6,25.1,9.6c9.4,0,17.4-4.9,24.8-9.6l4.7-2.7c7.7-4.9,16.4-10.4,27.5-10.4h0.3c11.1,0,19.8,5.4,27.5,10.4l4.7,3
	c7.4,4.4,15.8,9.6,25.1,9.6c9.4,0,17.4-4.9,24.8-9.6l4.7-2.7c7.7-4.9,16.4-10.4,27.5-10.4h0.3c11.1,0,19.8,5.4,27.5,10.4l4.4,3
	c7.4,4.4,15.4,9.6,25.1,9.6c9.4,0,17.4-4.9,24.8-9.6l4.4-2.7c7.7-4.9,16.4-10.4,27.5-10.4h0.3c11.1,0,19.8,5.4,27.5,10.4l4.7,3
	c7.4,4.4,15.4,9.6,25.1,9.6c9.4,0,17.4-4.9,24.8-9.6l4.7-2.7c7.7-4.9,16.8-10.4,27.8-10.4c11.1,0,19.8,5.4,27.5,10.4l4.7,3
	c7.4,4.4,15.4,9.6,25.1,9.6c9.4,0,17.4-4.9,24.8-9.6l4.7-2.7c7.7-4.9,16.4-10.4,27.5-10.4h0.3c11.1,0,19.8,5.4,27.5,10.4l4.7,3
	c7.4,4.4,15.4,9.6,25.1,9.6c9.4,0,17.4-4.9,24.8-9.6l4.7-2.7c7.7-4.9,16.4-10.4,27.5-10.4h0.3c11.1,0,19.8,5.4,27.5,10.4l4.7,3
	c7.4,4.4,15.4,9.6,24.8,9.6h0.3c9.4,0,17.4-4.9,24.8-9.6l4.4-2.7c7.7-4.9,16.4-10.4,27.5-10.4h0.3c11.1,0,19.8,5.4,27.5,10.4l4.7,3
	c7.4,4.4,15.4,9.6,25.1,9.6c9.4,0,17.4-4.9,24.8-9.6l4.7-2.7c7.7-4.9,16.4-10.4,27.5-10.4h0.3c11.1,0,19.8,5.4,27.5,10.4l4.4,3
	c7.4,4.4,15.4,9.6,25.1,9.6c9.4,0,17.4-4.9,24.8-9.6l3.7-2.5l3.4,2.7c6.7,5.4,14.1,11.8,14.1,19.7s-7.4,14.1-14.1,19.5l-4,3.5
	c-6,5.2-13.1,10.9-13.1,17.8c0,6.9,7,12.6,13.1,17.5l4,3.5c6.7,5.4,14.1,11.8,14.1,19.7c0,7.9-7.4,14.1-14.1,19.5L1464.2,323z"/>
</svg>
