<svg width="1440" height="1045" viewBox="0 0 1440 1045" fill="none" xmlns="http://www.w3.org/2000/svg">
<mask id="path-1-inside-1_254_506" fill="white">
<path d="M1460.23 216.05C1454.2 224.01 1447.16 232.728 1447.16 243.34C1447.16 253.953 1454.2 262.671 1460.23 270.252L1464.25 275.559C1470.96 283.897 1478.33 293.752 1478.33 305.881C1478.33 318.01 1470.96 327.486 1464.25 335.825L1460.23 341.132C1454.2 349.091 1447.16 357.809 1447.16 368.422C1447.16 378.656 1454.2 387.753 1460.23 395.334L1464.25 400.64C1470.96 408.979 1478.33 418.834 1478.33 430.963C1478.33 443.092 1470.96 452.568 1464.25 460.907L1460.23 466.213C1454.2 474.173 1447.16 482.891 1447.16 493.504C1447.16 504.117 1454.2 512.835 1460.23 520.415L1464.25 525.722C1470.96 534.06 1478.33 543.915 1478.33 556.044C1478.33 568.174 1470.96 577.649 1464.25 585.988L1460.23 591.295C1454.2 599.255 1447.16 607.972 1447.16 618.585C1447.16 629.198 1454.2 637.916 1460.23 645.497L1464.25 650.803C1470.96 659.142 1478.33 668.997 1478.33 681.126C1478.33 693.255 1470.96 702.731 1464.25 711.07L1460.23 716.376C1454.2 724.336 1447.16 733.054 1447.16 743.667C1447.16 753.901 1454.2 762.998 1460.23 770.578L1464.25 775.885C1470.96 784.224 1478.33 794.079 1478.33 806.208C1478.33 818.337 1470.96 827.813 1464.25 836.151L1460.23 841.458C1454.2 849.418 1447.16 858.136 1447.16 868.749C1447.16 879.362 1454.2 888.079 1460.23 895.66L1464.25 900.967C1470.96 909.305 1478.33 919.16 1478.33 931.289C1478.33 943.419 1470.96 952.894 1464.25 961.233L1460.23 966.54C1454.2 974.499 1447.16 983.217 1447.16 993.83C1447.16 1004.06 1454.2 1013.16 1460.23 1020.74L1463.58 1025.29L1459.9 1029.08C1452.19 1036.66 1443.47 1045 1432.41 1045H1432.08C1421.02 1045 1412.3 1036.66 1404.59 1029.08L1399.9 1024.53C1392.53 1017.71 1384.48 1009.75 1375.1 1009.75H1374.76C1365.38 1009.75 1357.34 1017.33 1349.96 1024.53L1345.27 1028.7C1337.56 1036.28 1328.85 1044.62 1317.45 1044.62C1306.39 1044.62 1297.68 1036.28 1289.97 1028.7L1285.27 1024.15C1278.24 1017.33 1269.86 1009.37 1260.47 1009.37H1260.14C1250.75 1009.37 1242.71 1016.95 1235.34 1024.15L1230.64 1028.32C1222.93 1035.9 1214.22 1044.24 1202.82 1044.24C1191.76 1044.24 1183.05 1035.9 1175.34 1028.32L1170.65 1023.77C1163.27 1016.95 1154.9 1008.99 1145.51 1008.99C1136.13 1008.99 1128.08 1016.57 1120.71 1023.77L1116.02 1027.94C1108.31 1035.52 1099.26 1043.86 1088.2 1043.86C1077.14 1043.86 1068.42 1035.52 1060.71 1027.94L1056.02 1023.39C1048.65 1016.57 1040.6 1008.61 1031.22 1008.61H1030.88C1021.5 1008.61 1013.46 1016.19 1006.08 1023.39L1001.39 1027.56C993.681 1035.14 984.632 1043.48 973.571 1043.48C962.511 1043.48 953.797 1035.14 946.088 1027.56L941.396 1023.02C934.022 1016.19 925.978 1008.23 916.258 1008.23C906.874 1008.23 898.83 1015.81 891.456 1023.02L886.764 1027.19C879.055 1034.77 870.006 1043.1 858.945 1043.1C847.885 1043.1 839.17 1034.77 831.462 1027.19L826.769 1022.64C819.731 1015.81 811.352 1007.85 801.967 1007.85H801.632C792.247 1007.85 784.203 1015.44 776.83 1022.64L772.137 1026.81C764.429 1034.39 755.714 1042.73 744.319 1042.73C733.258 1042.73 724.544 1034.39 716.835 1026.81L712.143 1022.26C704.769 1015.44 696.725 1007.48 687.341 1007.48H689.352C679.967 1007.48 671.923 1015.06 664.55 1022.26L659.857 1026.43C652.148 1034.01 643.434 1042.35 632.039 1042.35C620.978 1042.35 612.264 1034.01 604.555 1026.43L599.863 1021.88C592.489 1015.06 584.445 1007.1 574.725 1007.1C565.341 1007.1 557.297 1014.68 549.923 1021.88L545.231 1026.05C537.522 1033.63 528.473 1041.97 517.412 1041.97C506.352 1041.97 497.637 1033.63 489.929 1026.05L485.236 1021.5C477.863 1014.68 469.819 1006.72 460.434 1006.72H460.099C450.714 1006.72 442.67 1014.3 435.297 1021.5L430.94 1025.67C423.231 1033.25 414.181 1041.59 403.121 1041.59C392.061 1041.59 383.346 1033.25 375.637 1025.67L370.945 1021.12C363.907 1014.3 355.528 1006.34 346.143 1006.34H345.808C336.423 1006.34 328.379 1013.92 321.006 1021.12L316.313 1025.29C308.604 1032.87 299.555 1041.21 288.495 1041.21C277.434 1041.21 268.72 1032.87 261.011 1025.29L256.319 1020.74C248.945 1013.92 240.566 1005.96 231.181 1005.96C221.797 1005.96 213.753 1013.54 206.379 1020.74L201.687 1024.91C193.978 1032.49 184.929 1040.83 173.868 1040.83C162.808 1040.83 154.093 1032.49 146.385 1024.91L141.692 1020.36C134.319 1013.54 126.275 1005.58 116.89 1005.58H116.555C107.17 1005.58 99.1264 1013.16 91.7528 1020.36L87.3957 1024.53C79.6869 1032.11 70.9726 1040.45 59.577 1040.45C48.5165 1040.45 39.8022 1032.11 32.0935 1024.53L27.4011 1019.98C20.0275 1013.16 11.9836 1005.2 2.59894 1005.2H2.26378C-7.12084 1005.2 -14.8296 1012.78 -22.5384 1019.98L-26.5604 1023.77L-29.912 1019.6C-36.6153 1011.27 -43.989 1001.41 -43.989 989.282C-43.989 977.153 -36.6153 967.677 -29.912 959.338L-25.8901 954.032C-19.8571 946.072 -12.8186 937.354 -13.1538 926.741C-13.1538 916.507 -20.1923 907.41 -26.2252 899.829L-30.2472 894.523C-36.9505 886.184 -44.3241 876.329 -43.989 864.2C-43.989 852.071 -36.6153 842.595 -29.912 834.256L-25.8901 828.95C-19.8571 820.99 -12.8186 812.272 -13.1538 801.659C-13.1538 791.046 -20.1923 782.329 -26.2252 774.748L-30.2472 769.441C-36.9505 761.103 -44.3241 751.248 -43.989 739.119C-43.989 726.989 -36.6153 717.513 -29.912 709.175L-25.8901 703.868C-19.8571 695.909 -12.8186 687.191 -13.1538 676.578C-13.1538 666.344 -20.1923 657.247 -26.2252 649.666L-30.2472 644.36C-36.9505 636.021 -44.3241 626.166 -43.989 614.037C-43.989 601.908 -36.6153 592.432 -29.912 584.093L-25.8901 578.787C-19.8571 570.827 -12.8186 562.109 -13.1538 551.496C-13.1538 541.262 -20.1923 532.165 -26.2252 524.585L-30.2472 519.278C-36.9505 510.939 -44.3241 501.084 -43.989 488.955C-43.989 476.826 -36.6153 467.35 -29.912 459.011L-25.8901 453.705C-19.8571 445.745 -12.8186 437.028 -13.1538 426.415C-13.1538 415.802 -20.1923 407.084 -26.2252 399.503L-30.2472 394.197C-36.9505 385.858 -44.3241 376.003 -43.989 363.874C-43.989 351.745 -36.6153 342.269 -29.912 333.93L-25.8901 328.623C-19.8571 320.664 -12.8186 311.946 -13.1538 301.333C-13.1538 291.099 -20.1923 282.002 -26.2252 274.421L-30.2472 269.115C-36.9505 260.776 -44.3241 250.921 -43.989 238.792C-43.989 226.663 -36.6153 217.187 -29.912 208.848L-25.8901 203.542C-19.8571 195.582 -12.8186 186.864 -13.1538 176.251C-13.1538 165.638 -20.1923 156.921 -26.2252 149.34L-30.2472 144.033C-36.9505 135.695 -44.3241 125.84 -43.989 113.711C-43.989 101.581 -36.6153 92.1055 -29.912 83.7667L-25.8901 78.4602C-19.8571 70.5005 -12.8186 61.7827 -13.1538 51.1697C-13.1538 40.9358 -20.1923 31.8389 -26.2252 24.2582L-29.5769 19.7098L-25.8901 15.9194C-18.1813 8.3387 -9.13182 0 1.92862 0C12.9891 0 21.7033 8.3387 29.4121 15.9194L34.1044 20.4679C41.4781 27.2905 49.522 35.2502 59.2418 35.2502C68.6264 35.2502 76.6704 27.6695 84.044 20.4679L88.7363 16.2985C96.4451 8.71776 105.159 0.378943 116.22 0.378943H116.555C127.615 0.378943 136.33 8.71776 144.039 16.2985L148.731 20.8469C156.104 27.6696 164.148 35.6293 173.868 35.6293C183.253 35.6293 191.297 28.0486 198.67 20.8469L203.363 16.6775C211.071 9.09682 219.786 0.758001 230.846 0.758001H231.181C242.242 0.758001 250.956 9.09682 258.665 16.6775L263.022 21.2259C270.396 28.0485 278.775 36.0083 288.159 36.0083C297.544 36.0083 305.588 28.4275 312.962 21.2259L317.654 17.0566C325.363 9.47588 334.077 1.13706 345.137 1.13706H345.473C356.533 1.13706 365.247 9.47588 372.956 17.0566L377.648 21.6049C385.022 28.4276 393.066 36.3873 402.786 36.3873C412.17 36.3873 420.214 28.8066 427.588 21.6049L432.28 17.4355C439.989 9.85482 448.703 1.51612 459.764 1.51612H460.099C471.159 1.51612 479.874 9.85482 487.582 17.4355L492.275 21.984C499.648 28.8066 507.692 36.7663 517.412 36.7663C526.797 36.7663 534.841 29.1857 542.214 21.984L546.907 17.8146C554.615 10.2339 563.33 1.89518 574.39 1.89518H574.725C585.786 1.89518 594.5 10.2339 602.209 17.8146L606.901 22.3631C614.275 29.1857 622.654 37.1454 632.039 37.1454C641.423 37.1454 649.467 29.5647 656.841 22.3631L661.533 18.1936C669.242 10.6129 677.956 2.27412 689.017 2.27412H689.352C700.412 2.27412 709.126 10.6129 716.835 18.1936L721.192 22.7421C728.566 29.5647 736.61 37.5245 746.33 37.5245C755.714 37.5245 763.758 29.9438 771.132 22.7421L775.489 18.5727C783.198 10.992 791.912 2.65318 802.973 2.65318H803.308C814.368 2.65318 823.083 10.992 830.791 18.5727L835.484 23.1211C842.857 29.9437 850.901 37.9035 860.621 37.9035C870.006 37.9035 878.049 30.3227 885.423 23.1211L890.115 18.9518C897.824 11.3711 906.874 3.03224 917.934 3.03224C928.995 3.03224 937.709 11.3711 945.418 18.9518L950.11 23.5001C957.484 30.3227 965.528 38.2825 975.247 38.2825C984.632 38.2825 992.676 30.7018 1000.05 23.5001L1004.74 19.3307C1012.45 11.75 1021.16 3.41129 1032.23 3.41129H1032.56C1043.62 3.41129 1052.34 11.75 1060.04 19.3307L1064.74 23.8792C1072.11 30.7018 1080.15 38.6615 1089.87 38.6615C1099.26 38.6615 1107.3 31.0808 1114.68 23.8792L1119.37 19.7098C1127.08 12.1291 1135.79 3.79035 1146.85 3.79035H1147.19C1158.25 3.79035 1166.96 12.1291 1174.67 19.7098L1179.36 24.2582C1186.74 31.0809 1194.78 39.0406 1204.16 39.0406H1204.5C1213.88 39.0406 1221.93 31.4599 1229.3 24.2582L1233.66 20.0888C1241.37 12.5081 1250.08 4.16929 1261.14 4.16929H1261.48C1272.54 4.16929 1281.25 12.5081 1288.96 20.0888L1293.65 24.6373C1301.03 31.4599 1309.07 39.4196 1318.79 39.4196C1328.18 39.4196 1336.22 31.839 1343.59 24.6373L1348.29 20.4679C1355.99 12.8872 1364.71 4.54835 1375.77 4.54835H1376.1C1387.16 4.54835 1395.88 12.8872 1403.59 20.4679L1407.95 25.0162C1415.32 31.8389 1423.36 39.7987 1433.08 39.7987C1442.47 39.7987 1450.51 32.2179 1457.88 25.0162L1461.57 21.2259L1464.92 25.3953C1471.63 33.7341 1479 43.589 1479 55.7181C1479 67.8472 1471.63 77.3231 1464.92 85.6619L1460.9 90.9684C1454.87 98.9282 1447.83 107.646 1447.83 118.259C1447.83 128.872 1454.87 137.59 1460.9 145.17L1464.92 150.477C1471.63 158.816 1479 168.671 1479 180.8C1479 192.929 1471.63 202.405 1464.92 210.743L1460.23 216.05Z"/>
</mask>
<path d="M1460.23 216.05C1454.2 224.01 1447.16 232.728 1447.16 243.34C1447.16 253.953 1454.2 262.671 1460.23 270.252L1464.25 275.559C1470.96 283.897 1478.33 293.752 1478.33 305.881C1478.33 318.01 1470.96 327.486 1464.25 335.825L1460.23 341.132C1454.2 349.091 1447.16 357.809 1447.16 368.422C1447.16 378.656 1454.2 387.753 1460.23 395.334L1464.25 400.64C1470.96 408.979 1478.33 418.834 1478.33 430.963C1478.33 443.092 1470.96 452.568 1464.25 460.907L1460.23 466.213C1454.2 474.173 1447.16 482.891 1447.16 493.504C1447.16 504.117 1454.2 512.835 1460.23 520.415L1464.25 525.722C1470.96 534.06 1478.33 543.915 1478.33 556.044C1478.33 568.174 1470.96 577.649 1464.25 585.988L1460.23 591.295C1454.2 599.255 1447.16 607.972 1447.16 618.585C1447.16 629.198 1454.2 637.916 1460.23 645.497L1464.25 650.803C1470.96 659.142 1478.33 668.997 1478.33 681.126C1478.33 693.255 1470.96 702.731 1464.25 711.07L1460.23 716.376C1454.2 724.336 1447.16 733.054 1447.16 743.667C1447.16 753.901 1454.2 762.998 1460.23 770.578L1464.25 775.885C1470.96 784.224 1478.33 794.079 1478.33 806.208C1478.33 818.337 1470.96 827.813 1464.25 836.151L1460.23 841.458C1454.2 849.418 1447.16 858.136 1447.16 868.749C1447.16 879.362 1454.2 888.079 1460.23 895.66L1464.25 900.967C1470.96 909.305 1478.33 919.16 1478.33 931.289C1478.33 943.419 1470.96 952.894 1464.25 961.233L1460.23 966.54C1454.2 974.499 1447.16 983.217 1447.16 993.83C1447.16 1004.06 1454.2 1013.16 1460.23 1020.74L1463.58 1025.29L1459.9 1029.08C1452.19 1036.66 1443.47 1045 1432.41 1045H1432.08C1421.02 1045 1412.3 1036.66 1404.59 1029.08L1399.9 1024.53C1392.53 1017.71 1384.48 1009.75 1375.1 1009.75H1374.76C1365.38 1009.75 1357.34 1017.33 1349.96 1024.53L1345.27 1028.7C1337.56 1036.28 1328.85 1044.62 1317.45 1044.62C1306.39 1044.62 1297.68 1036.28 1289.97 1028.7L1285.27 1024.15C1278.24 1017.33 1269.86 1009.37 1260.47 1009.37H1260.14C1250.75 1009.37 1242.71 1016.95 1235.34 1024.15L1230.64 1028.32C1222.93 1035.9 1214.22 1044.24 1202.82 1044.24C1191.76 1044.24 1183.05 1035.9 1175.34 1028.32L1170.65 1023.77C1163.27 1016.95 1154.9 1008.99 1145.51 1008.99C1136.13 1008.99 1128.08 1016.57 1120.71 1023.77L1116.02 1027.94C1108.31 1035.52 1099.26 1043.86 1088.2 1043.86C1077.14 1043.86 1068.42 1035.52 1060.71 1027.94L1056.02 1023.39C1048.65 1016.57 1040.6 1008.61 1031.22 1008.61H1030.88C1021.5 1008.61 1013.46 1016.19 1006.08 1023.39L1001.39 1027.56C993.681 1035.14 984.632 1043.48 973.571 1043.48C962.511 1043.48 953.797 1035.14 946.088 1027.56L941.396 1023.02C934.022 1016.19 925.978 1008.23 916.258 1008.23C906.874 1008.23 898.83 1015.81 891.456 1023.02L886.764 1027.19C879.055 1034.77 870.006 1043.1 858.945 1043.1C847.885 1043.1 839.17 1034.77 831.462 1027.19L826.769 1022.64C819.731 1015.81 811.352 1007.85 801.967 1007.85H801.632C792.247 1007.85 784.203 1015.44 776.83 1022.64L772.137 1026.81C764.429 1034.39 755.714 1042.73 744.319 1042.73C733.258 1042.73 724.544 1034.39 716.835 1026.81L712.143 1022.26C704.769 1015.44 696.725 1007.48 687.341 1007.48H689.352C679.967 1007.48 671.923 1015.06 664.55 1022.26L659.857 1026.43C652.148 1034.01 643.434 1042.35 632.039 1042.35C620.978 1042.35 612.264 1034.01 604.555 1026.43L599.863 1021.88C592.489 1015.06 584.445 1007.1 574.725 1007.1C565.341 1007.1 557.297 1014.68 549.923 1021.88L545.231 1026.05C537.522 1033.63 528.473 1041.97 517.412 1041.97C506.352 1041.97 497.637 1033.63 489.929 1026.05L485.236 1021.5C477.863 1014.68 469.819 1006.72 460.434 1006.72H460.099C450.714 1006.72 442.67 1014.3 435.297 1021.5L430.94 1025.67C423.231 1033.25 414.181 1041.59 403.121 1041.59C392.061 1041.59 383.346 1033.25 375.637 1025.67L370.945 1021.12C363.907 1014.3 355.528 1006.34 346.143 1006.34H345.808C336.423 1006.34 328.379 1013.92 321.006 1021.12L316.313 1025.29C308.604 1032.87 299.555 1041.21 288.495 1041.21C277.434 1041.21 268.72 1032.87 261.011 1025.29L256.319 1020.74C248.945 1013.92 240.566 1005.96 231.181 1005.96C221.797 1005.96 213.753 1013.54 206.379 1020.74L201.687 1024.91C193.978 1032.49 184.929 1040.83 173.868 1040.83C162.808 1040.83 154.093 1032.49 146.385 1024.91L141.692 1020.36C134.319 1013.54 126.275 1005.58 116.89 1005.58H116.555C107.17 1005.58 99.1264 1013.16 91.7528 1020.36L87.3957 1024.53C79.6869 1032.11 70.9726 1040.45 59.577 1040.45C48.5165 1040.45 39.8022 1032.11 32.0935 1024.53L27.4011 1019.98C20.0275 1013.16 11.9836 1005.2 2.59894 1005.2H2.26378C-7.12084 1005.2 -14.8296 1012.78 -22.5384 1019.98L-26.5604 1023.77L-29.912 1019.6C-36.6153 1011.27 -43.989 1001.41 -43.989 989.282C-43.989 977.153 -36.6153 967.677 -29.912 959.338L-25.8901 954.032C-19.8571 946.072 -12.8186 937.354 -13.1538 926.741C-13.1538 916.507 -20.1923 907.41 -26.2252 899.829L-30.2472 894.523C-36.9505 886.184 -44.3241 876.329 -43.989 864.2C-43.989 852.071 -36.6153 842.595 -29.912 834.256L-25.8901 828.95C-19.8571 820.99 -12.8186 812.272 -13.1538 801.659C-13.1538 791.046 -20.1923 782.329 -26.2252 774.748L-30.2472 769.441C-36.9505 761.103 -44.3241 751.248 -43.989 739.119C-43.989 726.989 -36.6153 717.513 -29.912 709.175L-25.8901 703.868C-19.8571 695.909 -12.8186 687.191 -13.1538 676.578C-13.1538 666.344 -20.1923 657.247 -26.2252 649.666L-30.2472 644.36C-36.9505 636.021 -44.3241 626.166 -43.989 614.037C-43.989 601.908 -36.6153 592.432 -29.912 584.093L-25.8901 578.787C-19.8571 570.827 -12.8186 562.109 -13.1538 551.496C-13.1538 541.262 -20.1923 532.165 -26.2252 524.585L-30.2472 519.278C-36.9505 510.939 -44.3241 501.084 -43.989 488.955C-43.989 476.826 -36.6153 467.35 -29.912 459.011L-25.8901 453.705C-19.8571 445.745 -12.8186 437.028 -13.1538 426.415C-13.1538 415.802 -20.1923 407.084 -26.2252 399.503L-30.2472 394.197C-36.9505 385.858 -44.3241 376.003 -43.989 363.874C-43.989 351.745 -36.6153 342.269 -29.912 333.93L-25.8901 328.623C-19.8571 320.664 -12.8186 311.946 -13.1538 301.333C-13.1538 291.099 -20.1923 282.002 -26.2252 274.421L-30.2472 269.115C-36.9505 260.776 -44.3241 250.921 -43.989 238.792C-43.989 226.663 -36.6153 217.187 -29.912 208.848L-25.8901 203.542C-19.8571 195.582 -12.8186 186.864 -13.1538 176.251C-13.1538 165.638 -20.1923 156.921 -26.2252 149.34L-30.2472 144.033C-36.9505 135.695 -44.3241 125.84 -43.989 113.711C-43.989 101.581 -36.6153 92.1055 -29.912 83.7667L-25.8901 78.4602C-19.8571 70.5005 -12.8186 61.7827 -13.1538 51.1697C-13.1538 40.9358 -20.1923 31.8389 -26.2252 24.2582L-29.5769 19.7098L-25.8901 15.9194C-18.1813 8.3387 -9.13182 0 1.92862 0C12.9891 0 21.7033 8.3387 29.4121 15.9194L34.1044 20.4679C41.4781 27.2905 49.522 35.2502 59.2418 35.2502C68.6264 35.2502 76.6704 27.6695 84.044 20.4679L88.7363 16.2985C96.4451 8.71776 105.159 0.378943 116.22 0.378943H116.555C127.615 0.378943 136.33 8.71776 144.039 16.2985L148.731 20.8469C156.104 27.6696 164.148 35.6293 173.868 35.6293C183.253 35.6293 191.297 28.0486 198.67 20.8469L203.363 16.6775C211.071 9.09682 219.786 0.758001 230.846 0.758001H231.181C242.242 0.758001 250.956 9.09682 258.665 16.6775L263.022 21.2259C270.396 28.0485 278.775 36.0083 288.159 36.0083C297.544 36.0083 305.588 28.4275 312.962 21.2259L317.654 17.0566C325.363 9.47588 334.077 1.13706 345.137 1.13706H345.473C356.533 1.13706 365.247 9.47588 372.956 17.0566L377.648 21.6049C385.022 28.4276 393.066 36.3873 402.786 36.3873C412.17 36.3873 420.214 28.8066 427.588 21.6049L432.28 17.4355C439.989 9.85482 448.703 1.51612 459.764 1.51612H460.099C471.159 1.51612 479.874 9.85482 487.582 17.4355L492.275 21.984C499.648 28.8066 507.692 36.7663 517.412 36.7663C526.797 36.7663 534.841 29.1857 542.214 21.984L546.907 17.8146C554.615 10.2339 563.33 1.89518 574.39 1.89518H574.725C585.786 1.89518 594.5 10.2339 602.209 17.8146L606.901 22.3631C614.275 29.1857 622.654 37.1454 632.039 37.1454C641.423 37.1454 649.467 29.5647 656.841 22.3631L661.533 18.1936C669.242 10.6129 677.956 2.27412 689.017 2.27412H689.352C700.412 2.27412 709.126 10.6129 716.835 18.1936L721.192 22.7421C728.566 29.5647 736.61 37.5245 746.33 37.5245C755.714 37.5245 763.758 29.9438 771.132 22.7421L775.489 18.5727C783.198 10.992 791.912 2.65318 802.973 2.65318H803.308C814.368 2.65318 823.083 10.992 830.791 18.5727L835.484 23.1211C842.857 29.9437 850.901 37.9035 860.621 37.9035C870.006 37.9035 878.049 30.3227 885.423 23.1211L890.115 18.9518C897.824 11.3711 906.874 3.03224 917.934 3.03224C928.995 3.03224 937.709 11.3711 945.418 18.9518L950.11 23.5001C957.484 30.3227 965.528 38.2825 975.247 38.2825C984.632 38.2825 992.676 30.7018 1000.05 23.5001L1004.74 19.3307C1012.45 11.75 1021.16 3.41129 1032.23 3.41129H1032.56C1043.62 3.41129 1052.34 11.75 1060.04 19.3307L1064.74 23.8792C1072.11 30.7018 1080.15 38.6615 1089.87 38.6615C1099.26 38.6615 1107.3 31.0808 1114.68 23.8792L1119.37 19.7098C1127.08 12.1291 1135.79 3.79035 1146.85 3.79035H1147.19C1158.25 3.79035 1166.96 12.1291 1174.67 19.7098L1179.36 24.2582C1186.74 31.0809 1194.78 39.0406 1204.16 39.0406H1204.5C1213.88 39.0406 1221.93 31.4599 1229.3 24.2582L1233.66 20.0888C1241.37 12.5081 1250.08 4.16929 1261.14 4.16929H1261.48C1272.54 4.16929 1281.25 12.5081 1288.96 20.0888L1293.65 24.6373C1301.03 31.4599 1309.07 39.4196 1318.79 39.4196C1328.18 39.4196 1336.22 31.839 1343.59 24.6373L1348.29 20.4679C1355.99 12.8872 1364.71 4.54835 1375.77 4.54835H1376.1C1387.16 4.54835 1395.88 12.8872 1403.59 20.4679L1407.95 25.0162C1415.32 31.8389 1423.36 39.7987 1433.08 39.7987C1442.47 39.7987 1450.51 32.2179 1457.88 25.0162L1461.57 21.2259L1464.92 25.3953C1471.63 33.7341 1479 43.589 1479 55.7181C1479 67.8472 1471.63 77.3231 1464.92 85.6619L1460.9 90.9684C1454.87 98.9282 1447.83 107.646 1447.83 118.259C1447.83 128.872 1454.87 137.59 1460.9 145.17L1464.92 150.477C1471.63 158.816 1479 168.671 1479 180.8C1479 192.929 1471.63 202.405 1464.92 210.743L1460.23 216.05Z" fill="#4B4EFF" stroke="black" stroke-width="8" mask="url(#path-1-inside-1_254_506)"/>
</svg>
