<?xml version="1.0" encoding="utf-8"?>
<!-- Generator: Adobe Illustrator 27.3.1, SVG Export Plug-In . SVG Version: 6.00 Build 0)  -->
<svg version="1.1" id="Layer_1" xmlns="http://www.w3.org/2000/svg" xmlns:xlink="http://www.w3.org/1999/xlink" x="0px" y="0px"
	 viewBox="0 0 1440 1045" style="enable-background:new 0 0 1440 1045;" xml:space="preserve">
<style type="text/css">
	.st0{fill:#FFFFFF;filter:url(#Adobe_OpacityMaskFilter);}
	
		.st1{mask:url(#path-1-inside-1_254_506_00000180330447669694414710000006815345283569752728_);fill:#4B4EFF;stroke:#000000;stroke-width:8;}
</style>
<defs>
	<filter id="Adobe_OpacityMaskFilter" filterUnits="userSpaceOnUse" x="-44" y="175.4" width="1531" height="762.9">
		<feColorMatrix  type="matrix" values="1 0 0 0 0  0 1 0 0 0  0 0 1 0 0  0 0 0 1 0"/>
	</filter>
</defs>
<mask maskUnits="userSpaceOnUse" x="-44" y="175.4" width="1531" height="762.9" id="path-1-inside-1_254_506_00000180330447669694414710000006815345283569752728_">
	<path class="st0" d="M1464.2,335.4c-6,5.8-13.1,12-13.1,19.7c0,7.7,7,14,13.1,19.4l4,3.8c6.7,6,14.1,13.1,14.1,21.9
		s-7.4,15.6-14.1,21.6l-4,3.8c-6,5.7-13.1,12-13.1,19.7c0,7.4,7,14,13.1,19.4l4,3.8c6.7,6,14.1,13.1,14.1,21.9s-7.4,15.6-14.1,21.6
		l-4,3.8c-6,5.8-13.1,12-13.1,19.7c0,7.7,7,14,13.1,19.4l4,3.8c6.7,6,14.1,13.1,14.1,21.9c0,8.8-7.4,15.6-14.1,21.6l-4,3.8
		c-6,5.8-13.1,12-13.1,19.7c0,7.7,7,14,13.1,19.4l4,3.8c6.7,6,14.1,13.1,14.1,21.9c0,8.8-7.4,15.6-14.1,21.6l-4,3.8
		c-6,5.8-13.1,12-13.1,19.7c0,7.4,7,14,13.1,19.4l4,3.8c6.7,6,14.1,13.1,14.1,21.9s-7.4,15.6-14.1,21.6l-4,3.8
		c-6,5.8-13.1,12-13.1,19.7c0,7.7,7,14,13.1,19.4l4,3.8c6.7,6,14.1,13.1,14.1,21.9c0,8.8-7.4,15.6-14.1,21.6l-4,3.8
		c-6,5.7-13.1,12-13.1,19.7c0,7.4,7,14,13.1,19.4l3.3,3.3l-3.7,2.7c-7.7,5.5-16.4,11.5-27.5,11.5h-0.3c-11.1,0-19.8-6-27.5-11.5
		l-4.7-3.3c-7.4-4.9-15.4-10.7-24.8-10.7h-0.3c-9.4,0-17.4,5.5-24.8,10.7l-4.7,3c-7.7,5.5-16.4,11.5-27.8,11.5
		c-11.1,0-19.8-6-27.5-11.5l-4.7-3.3c-7-4.9-15.4-10.7-24.8-10.7h-0.3c-9.4,0-17.4,5.5-24.8,10.7l-4.7,3
		c-7.7,5.5-16.4,11.5-27.8,11.5c-11.1,0-19.8-6-27.5-11.5l-4.7-3.3c-7.4-4.9-15.8-10.7-25.1-10.7c-9.4,0-17.4,5.5-24.8,10.7l-4.7,3
		c-7.7,5.5-16.8,11.5-27.8,11.5c-11.1,0-19.8-6-27.5-11.5l-4.7-3.3c-7.4-4.9-15.4-10.7-24.8-10.7h-0.3c-9.4,0-17.4,5.5-24.8,10.7
		l-4.7,3c-7.7,5.5-16.8,11.5-27.8,11.5c-11.1,0-19.8-6-27.5-11.5l-4.7-3.3c-7.4-4.9-15.4-10.7-25.1-10.7c-9.4,0-17.4,5.5-24.8,10.7
		l-4.7,3c-7.7,5.5-16.8,11.5-27.8,11.5c-11.1,0-19.8-6-27.5-11.5l-4.7-3.3c-7-4.9-15.4-10.7-24.8-10.7h-0.3
		c-9.4,0-17.4,5.5-24.8,10.7l-4.7,3c-7.7,5.5-16.4,11.5-27.8,11.5c-11.1,0-19.8-6-27.5-11.5l-4.7-3.3c-7.4-4.9-15.4-10.7-24.8-10.7
		h2c-9.4,0-17.4,5.5-24.8,10.7l-4.7,3c-7.7,5.5-16.4,11.5-27.8,11.5c-11.1,0-19.8-6-27.5-11.5l-4.7-3.3
		c-7.4-4.9-15.4-10.7-25.1-10.7c-9.4,0-17.4,5.5-24.8,10.7l-4.7,3c-7.7,5.5-16.8,11.5-27.8,11.5c-11.1,0-19.8-6-27.5-11.5l-4.7-3.3
		c-7.4-4.9-15.4-10.7-24.8-10.7h-0.3c-9.4,0-17.4,5.5-24.8,10.7l-4.4,3c-7.7,5.5-16.8,11.5-27.8,11.5s-19.8-6-27.5-11.5l-4.7-3.3
		c-7-4.9-15.4-10.7-24.8-10.7h-0.3c-9.4,0-17.4,5.5-24.8,10.7l-4.7,3c-7.7,5.5-16.8,11.5-27.8,11.5c-11.1,0-19.8-6-27.5-11.5
		l-4.7-3.3c-7.4-4.9-15.8-10.7-25.1-10.7c-9.4,0-17.4,5.5-24.8,10.7l-4.7,3c-7.7,5.5-16.8,11.5-27.8,11.5c-11.1,0-19.8-6-27.5-11.5
		l-4.7-3.3c-7.4-4.9-15.4-10.7-24.8-10.7h-0.3c-9.4,0-17.4,5.5-24.8,10.7l-4.4,3c-7.7,5.5-16.4,11.5-27.8,11.5
		c-11.1,0-19.8-6-27.5-11.5l-4.7-3.3C24,911.2,16,905.5,6.6,905.5H6.3c-9.4,0-17.1,5.5-24.8,10.7l-4,2.7l-3.4-3
		c-6.7-6-14.1-13.1-14.1-21.9c0-8.8,7.4-15.6,14.1-21.6l4-3.8c6-5.8,13.1-12,12.7-19.7c0-7.4-7-14-13.1-19.4l-4-3.8
		c-6.7-6-14.1-13.1-13.7-21.9c0-8.8,7.4-15.6,14.1-21.6l4-3.8c6-5.8,13.1-12,12.7-19.7c0-7.7-7-14-13.1-19.4l-4-3.8
		c-6.7-6-14.1-13.1-13.7-21.9c0-8.8,7.4-15.6,14.1-21.6l4-3.8c6-5.7,13.1-12,12.7-19.7c0-7.4-7-14-13.1-19.4l-4-3.8
		c-6.7-6-14.1-13.1-13.7-21.9c0-8.8,7.4-15.6,14.1-21.6l4-3.8c6-5.8,13.1-12,12.7-19.7c0-7.4-7-14-13.1-19.4l-4-3.8
		c-6.7-6-14.1-13.1-13.7-21.9c0-8.8,7.4-15.6,14.1-21.6l4-3.8c6-5.8,13.1-12,12.7-19.7c0-7.7-7-14-13.1-19.4l-4-3.8
		c-6.7-6-14.1-13.1-13.7-21.9c0-8.8,7.4-15.6,14.1-21.6l4-3.8c6-5.7,13.1-12,12.7-19.7c0-7.4-7-14-13.1-19.4l-4-3.8
		c-6.7-6-14.1-13.1-13.7-21.9c0-8.8,7.4-15.6,14.1-21.6l4-3.8c6-5.8,13.1-12,12.7-19.7c0-7.7-7-14-13.1-19.4l-4-3.8
		c-6.7-6-14.1-13.1-13.7-21.9c0-8.8,7.4-15.6,14.1-21.6l4-3.8c6-5.7,13.1-12,12.7-19.7c0-7.4-7-14-13.1-19.4l-3.4-3.3l3.7-2.7
		c7.7-5.5,16.8-11.5,27.8-11.5c11.1,0,19.8,6,27.5,11.5l4.7,3.3c7.4,4.9,15.4,10.7,25.1,10.7c9.4,0,17.4-5.5,24.8-10.7l4.7-3
		c7.7-5.5,16.4-11.5,27.5-11.5h0.3c11.1,0,19.8,6,27.5,11.5l4.7,3.3c7.4,4.9,15.4,10.7,25.1,10.7c9.4,0,17.4-5.5,24.8-10.7l4.7-3
		c7.7-5.5,16.4-11.5,27.5-11.5h0.3c11.1,0,19.8,6,27.5,11.5l4.4,3.3c7.4,4.9,15.8,10.7,25.1,10.7c9.4,0,17.4-5.5,24.8-10.7l4.7-3
		c7.7-5.5,16.4-11.5,27.5-11.5h0.3c11.1,0,19.8,6,27.5,11.5l4.7,3.3c7.4,4.9,15.4,10.7,25.1,10.7c9.4,0,17.4-5.5,24.8-10.7l4.7-3
		c7.7-5.5,16.4-11.5,27.5-11.5h0.3c11.1,0,19.8,6,27.5,11.5l4.7,3.3c7.4,4.9,15.4,10.7,25.1,10.7c9.4,0,17.4-5.5,24.8-10.7l4.7-3
		c7.7-5.5,16.4-11.5,27.5-11.5h0.3c11.1,0,19.8,6,27.5,11.5l4.7,3.3c7.4,4.9,15.8,10.7,25.1,10.7c9.4,0,17.4-5.5,24.8-10.7l4.7-3
		C673.2,187,682,181,693,181h0.3c11.1,0,19.8,6,27.5,11.5l4.4,3.3c7.4,4.9,15.4,10.7,25.1,10.7c9.4,0,17.4-5.5,24.8-10.7l4.4-3
		c7.7-5.5,16.4-11.5,27.5-11.5h0.3c11.1,0,19.8,6,27.5,11.5l4.7,3.3c7.4,4.9,15.4,10.7,25.1,10.7c9.4,0,17.4-5.5,24.8-10.7l4.7-3
		c7.7-5.5,16.8-11.5,27.8-11.5c11.1,0,19.8,6,27.5,11.5l4.7,3.3c7.4,4.9,15.4,10.7,25.1,10.7c9.4,0,17.4-5.5,24.8-10.7l4.7-3
		c7.7-5.5,16.4-11.5,27.5-11.5h0.3c11.1,0,19.8,6,27.5,11.5l4.7,3.3c7.4,4.9,15.4,10.7,25.1,10.7c9.4,0,17.4-5.5,24.8-10.7l4.7-3
		c7.7-5.5,16.4-11.5,27.5-11.5h0.3c11.1,0,19.8,6,27.5,11.5l4.7,3.3c7.4,4.9,15.4,10.7,24.8,10.7h0.3c9.4,0,17.4-5.5,24.8-10.7
		l4.4-3c7.7-5.5,16.4-11.5,27.5-11.5h0.3c11.1,0,19.8,6,27.5,11.5l4.7,3.3c7.4,4.9,15.4,10.7,25.1,10.7c9.4,0,17.4-5.5,24.8-10.7
		l4.7-3c7.7-5.5,16.4-11.5,27.5-11.5h0.3c11.1,0,19.8,6,27.5,11.5l4.4,3.3c7.4,4.9,15.4,10.7,25.1,10.7c9.4,0,17.4-5.5,24.8-10.7
		l3.7-2.7l3.4,3c6.7,6,14.1,13.1,14.1,21.9c0,8.8-7.4,15.6-14.1,21.6l-4,3.8c-6,5.7-13.1,12-13.1,19.7s7,14,13.1,19.4l4,3.8
		c6.7,6,14.1,13.1,14.1,21.9s-7.4,15.6-14.1,21.6L1464.2,335.4z"/>
</mask>
<path class="st1" d="M1464.2,335.4c-6,5.8-13.1,12-13.1,19.7c0,7.7,7,14,13.1,19.4l4,3.8c6.7,6,14.1,13.1,14.1,21.9
	s-7.4,15.6-14.1,21.6l-4,3.8c-6,5.7-13.1,12-13.1,19.7c0,7.4,7,14,13.1,19.4l4,3.8c6.7,6,14.1,13.1,14.1,21.9s-7.4,15.6-14.1,21.6
	l-4,3.8c-6,5.8-13.1,12-13.1,19.7c0,7.7,7,14,13.1,19.4l4,3.8c6.7,6,14.1,13.1,14.1,21.9c0,8.8-7.4,15.6-14.1,21.6l-4,3.8
	c-6,5.8-13.1,12-13.1,19.7c0,7.7,7,14,13.1,19.4l4,3.8c6.7,6,14.1,13.1,14.1,21.9c0,8.8-7.4,15.6-14.1,21.6l-4,3.8
	c-6,5.8-13.1,12-13.1,19.7c0,7.4,7,14,13.1,19.4l4,3.8c6.7,6,14.1,13.1,14.1,21.9s-7.4,15.6-14.1,21.6l-4,3.8
	c-6,5.8-13.1,12-13.1,19.7c0,7.7,7,14,13.1,19.4l4,3.8c6.7,6,14.1,13.1,14.1,21.9c0,8.8-7.4,15.6-14.1,21.6l-4,3.8
	c-6,5.7-13.1,12-13.1,19.7c0,7.4,7,14,13.1,19.4l3.3,3.3l-3.7,2.7c-7.7,5.5-16.4,11.5-27.5,11.5h-0.3c-11.1,0-19.8-6-27.5-11.5
	l-4.7-3.3c-7.4-4.9-15.4-10.7-24.8-10.7h-0.3c-9.4,0-17.4,5.5-24.8,10.7l-4.7,3c-7.7,5.5-16.4,11.5-27.8,11.5
	c-11.1,0-19.8-6-27.5-11.5l-4.7-3.3c-7-4.9-15.4-10.7-24.8-10.7h-0.3c-9.4,0-17.4,5.5-24.8,10.7l-4.7,3
	c-7.7,5.5-16.4,11.5-27.8,11.5c-11.1,0-19.8-6-27.5-11.5l-4.7-3.3c-7.4-4.9-15.8-10.7-25.1-10.7c-9.4,0-17.4,5.5-24.8,10.7l-4.7,3
	c-7.7,5.5-16.8,11.5-27.8,11.5c-11.1,0-19.8-6-27.5-11.5l-4.7-3.3c-7.4-4.9-15.4-10.7-24.8-10.7h-0.3c-9.4,0-17.4,5.5-24.8,10.7
	l-4.7,3c-7.7,5.5-16.8,11.5-27.8,11.5c-11.1,0-19.8-6-27.5-11.5l-4.7-3.3c-7.4-4.9-15.4-10.7-25.1-10.7c-9.4,0-17.4,5.5-24.8,10.7
	l-4.7,3c-7.7,5.5-16.8,11.5-27.8,11.5c-11.1,0-19.8-6-27.5-11.5l-4.7-3.3c-7-4.9-15.4-10.7-24.8-10.7h-0.3
	c-9.4,0-17.4,5.5-24.8,10.7l-4.7,3c-7.7,5.5-16.4,11.5-27.8,11.5c-11.1,0-19.8-6-27.5-11.5l-4.7-3.3c-7.4-4.9-15.4-10.7-24.8-10.7h2
	c-9.4,0-17.4,5.5-24.8,10.7l-4.7,3c-7.7,5.5-16.4,11.5-27.8,11.5c-11.1,0-19.8-6-27.5-11.5l-4.7-3.3c-7.4-4.9-15.4-10.7-25.1-10.7
	c-9.4,0-17.4,5.5-24.8,10.7l-4.7,3c-7.7,5.5-16.8,11.5-27.8,11.5c-11.1,0-19.8-6-27.5-11.5l-4.7-3.3c-7.4-4.9-15.4-10.7-24.8-10.7
	h-0.3c-9.4,0-17.4,5.5-24.8,10.7l-4.4,3c-7.7,5.5-16.8,11.5-27.8,11.5s-19.8-6-27.5-11.5l-4.7-3.3c-7-4.9-15.4-10.7-24.8-10.7h-0.3
	c-9.4,0-17.4,5.5-24.8,10.7l-4.7,3c-7.7,5.5-16.8,11.5-27.8,11.5c-11.1,0-19.8-6-27.5-11.5l-4.7-3.3c-7.4-4.9-15.8-10.7-25.1-10.7
	c-9.4,0-17.4,5.5-24.8,10.7l-4.7,3c-7.7,5.5-16.8,11.5-27.8,11.5c-11.1,0-19.8-6-27.5-11.5l-4.7-3.3c-7.4-4.9-15.4-10.7-24.8-10.7
	h-0.3c-9.4,0-17.4,5.5-24.8,10.7l-4.4,3c-7.7,5.5-16.4,11.5-27.8,11.5c-11.1,0-19.8-6-27.5-11.5l-4.7-3.3
	C24,911.2,16,905.5,6.6,905.5H6.3c-9.4,0-17.1,5.5-24.8,10.7l-4,2.7l-3.4-3c-6.7-6-14.1-13.1-14.1-21.9c0-8.8,7.4-15.6,14.1-21.6
	l4-3.8c6-5.8,13.1-12,12.7-19.7c0-7.4-7-14-13.1-19.4l-4-3.8c-6.7-6-14.1-13.1-13.7-21.9c0-8.8,7.4-15.6,14.1-21.6l4-3.8
	c6-5.8,13.1-12,12.7-19.7c0-7.7-7-14-13.1-19.4l-4-3.8c-6.7-6-14.1-13.1-13.7-21.9c0-8.8,7.4-15.6,14.1-21.6l4-3.8
	c6-5.7,13.1-12,12.7-19.7c0-7.4-7-14-13.1-19.4l-4-3.8c-6.7-6-14.1-13.1-13.7-21.9c0-8.8,7.4-15.6,14.1-21.6l4-3.8
	c6-5.8,13.1-12,12.7-19.7c0-7.4-7-14-13.1-19.4l-4-3.8c-6.7-6-14.1-13.1-13.7-21.9c0-8.8,7.4-15.6,14.1-21.6l4-3.8
	c6-5.8,13.1-12,12.7-19.7c0-7.7-7-14-13.1-19.4l-4-3.8c-6.7-6-14.1-13.1-13.7-21.9c0-8.8,7.4-15.6,14.1-21.6l4-3.8
	c6-5.7,13.1-12,12.7-19.7c0-7.4-7-14-13.1-19.4l-4-3.8c-6.7-6-14.1-13.1-13.7-21.9c0-8.8,7.4-15.6,14.1-21.6l4-3.8
	c6-5.8,13.1-12,12.7-19.7c0-7.7-7-14-13.1-19.4l-4-3.8c-6.7-6-14.1-13.1-13.7-21.9c0-8.8,7.4-15.6,14.1-21.6l4-3.8
	c6-5.7,13.1-12,12.7-19.7c0-7.4-7-14-13.1-19.4l-3.4-3.3l3.7-2.7c7.7-5.5,16.8-11.5,27.8-11.5c11.1,0,19.8,6,27.5,11.5l4.7,3.3
	c7.4,4.9,15.4,10.7,25.1,10.7c9.4,0,17.4-5.5,24.8-10.7l4.7-3c7.7-5.5,16.4-11.5,27.5-11.5h0.3c11.1,0,19.8,6,27.5,11.5l4.7,3.3
	c7.4,4.9,15.4,10.7,25.1,10.7c9.4,0,17.4-5.5,24.8-10.7l4.7-3c7.7-5.5,16.4-11.5,27.5-11.5h0.3c11.1,0,19.8,6,27.5,11.5l4.4,3.3
	c7.4,4.9,15.8,10.7,25.1,10.7c9.4,0,17.4-5.5,24.8-10.7l4.7-3c7.7-5.5,16.4-11.5,27.5-11.5h0.3c11.1,0,19.8,6,27.5,11.5l4.7,3.3
	c7.4,4.9,15.4,10.7,25.1,10.7c9.4,0,17.4-5.5,24.8-10.7l4.7-3c7.7-5.5,16.4-11.5,27.5-11.5h0.3c11.1,0,19.8,6,27.5,11.5l4.7,3.3
	c7.4,4.9,15.4,10.7,25.1,10.7c9.4,0,17.4-5.5,24.8-10.7l4.7-3c7.7-5.5,16.4-11.5,27.5-11.5h0.3c11.1,0,19.8,6,27.5,11.5l4.7,3.3
	c7.4,4.9,15.8,10.7,25.1,10.7c9.4,0,17.4-5.5,24.8-10.7l4.7-3C673.2,187,682,181,693,181h0.3c11.1,0,19.8,6,27.5,11.5l4.4,3.3
	c7.4,4.9,15.4,10.7,25.1,10.7c9.4,0,17.4-5.5,24.8-10.7l4.4-3c7.7-5.5,16.4-11.5,27.5-11.5h0.3c11.1,0,19.8,6,27.5,11.5l4.7,3.3
	c7.4,4.9,15.4,10.7,25.1,10.7c9.4,0,17.4-5.5,24.8-10.7l4.7-3c7.7-5.5,16.8-11.5,27.8-11.5c11.1,0,19.8,6,27.5,11.5l4.7,3.3
	c7.4,4.9,15.4,10.7,25.1,10.7c9.4,0,17.4-5.5,24.8-10.7l4.7-3c7.7-5.5,16.4-11.5,27.5-11.5h0.3c11.1,0,19.8,6,27.5,11.5l4.7,3.3
	c7.4,4.9,15.4,10.7,25.1,10.7c9.4,0,17.4-5.5,24.8-10.7l4.7-3c7.7-5.5,16.4-11.5,27.5-11.5h0.3c11.1,0,19.8,6,27.5,11.5l4.7,3.3
	c7.4,4.9,15.4,10.7,24.8,10.7h0.3c9.4,0,17.4-5.5,24.8-10.7l4.4-3c7.7-5.5,16.4-11.5,27.5-11.5h0.3c11.1,0,19.8,6,27.5,11.5l4.7,3.3
	c7.4,4.9,15.4,10.7,25.1,10.7c9.4,0,17.4-5.5,24.8-10.7l4.7-3c7.7-5.5,16.4-11.5,27.5-11.5h0.3c11.1,0,19.8,6,27.5,11.5l4.4,3.3
	c7.4,4.9,15.4,10.7,25.1,10.7c9.4,0,17.4-5.5,24.8-10.7l3.7-2.7l3.4,3c6.7,6,14.1,13.1,14.1,21.9c0,8.8-7.4,15.6-14.1,21.6l-4,3.8
	c-6,5.7-13.1,12-13.1,19.7s7,14,13.1,19.4l4,3.8c6.7,6,14.1,13.1,14.1,21.9s-7.4,15.6-14.1,21.6L1464.2,335.4z"/>
</svg>
